<svg width="42" height="30" viewBox="0 0 42 30" fill="none" xmlns="http://www.w3.org/2000/svg">
<rect x="0.846154" y="1.07662" width="27.9231" height="23.6923" rx="2.53846" stroke="black" stroke-width="1.69231"/>
<circle cx="8.88432" cy="25.1968" r="3.80769" fill="white" stroke="black" stroke-width="1.69231"/>
<path d="M27.9258 24.7695H28.7719M28.7719 24.7695H38.9258C39.8604 24.7695 40.6181 24.0119 40.6181 23.0772V15.3167C40.6181 14.8678 40.4398 14.4374 40.1224 14.12L34.7676 8.7652C34.4502 8.44783 34.0198 8.26953 33.571 8.26953H30.4642C29.5296 8.26953 28.7719 9.0272 28.7719 9.96184V24.7695Z" stroke="black" stroke-width="1.69231"/>
<circle cx="30.0406" cy="25.1968" r="3.80769" fill="white" stroke="black" stroke-width="1.69231"/>
<path d="M31.3086 16.3083V10.9237C31.3086 10.3898 31.9409 10.1082 32.3378 10.4653L32.8471 10.9237L38.1311 15.6794C38.7076 16.1981 38.3406 17.1544 37.5651 17.1544H32.1547C31.6874 17.1544 31.3086 16.7756 31.3086 16.3083Z" fill="black"/>
</svg>
