<svg width="151" height="54" viewBox="0 0 151 54" fill="none" xmlns="http://www.w3.org/2000/svg">
<rect x="1.04957" y="1.04957" width="148.901" height="51.3233" rx="2.95043" fill="black" stroke="#E4E4E4" stroke-width="1.90086"/>
<path d="M19.1715 22.7657H11.4248V7.95372H19.1715C20.2858 7.96712 21.2129 8.07431 21.9531 8.27528C23.2137 8.61694 24.2344 9.24332 25.0152 10.1544C25.6414 10.8913 26.0684 11.6885 26.2961 12.546C26.5239 13.4035 26.6377 14.2208 26.6377 14.9979C26.6377 16.9675 26.1579 18.6356 25.1982 20.0023C23.8969 21.8445 21.888 22.7657 19.1715 22.7657ZM21.9653 11.7321C21.3878 10.9282 20.2451 10.5262 18.5372 10.5262H15.0725V20.1932H18.5372C20.3102 20.1932 21.5464 19.473 22.2458 18.0327C22.6281 17.2422 22.8192 16.3009 22.8192 15.209C22.8192 13.7016 22.5346 12.5427 21.9653 11.7321Z" fill="#E4E4E4"/>
<path d="M40.5819 19.5501C40.4924 20.1999 40.0817 20.8598 39.3497 21.5297C38.2111 22.5949 36.617 23.1274 34.5675 23.1274C32.8758 23.1274 31.3834 22.6786 30.0902 21.7809C28.7971 20.8832 28.1505 19.4228 28.1505 17.3996C28.1505 15.5037 28.732 14.05 29.895 13.0384C31.0662 12.0268 32.583 11.5211 34.4455 11.5211C35.5516 11.5211 36.5479 11.6919 37.4344 12.0335C38.3209 12.3752 39.0529 12.9145 39.6303 13.6514C40.1509 14.3012 40.4884 15.0549 40.6429 15.9124C40.7324 16.4148 40.769 17.1383 40.7527 18.0829H31.6518C31.7006 19.1816 32.1194 19.952 32.9083 20.3942C33.3882 20.6688 33.9656 20.8062 34.6407 20.8062C35.3564 20.8062 35.9379 20.6387 36.3852 20.3037C36.6292 20.1228 36.8448 19.8716 37.0318 19.5501H40.5819ZM37.1416 16.1938C37.0847 15.4367 36.8041 14.864 36.2998 14.4754C35.8037 14.0802 35.1856 13.8825 34.4455 13.8825C33.6403 13.8825 33.0141 14.0902 32.5667 14.5056C32.1276 14.9209 31.851 15.4836 31.7372 16.1938H37.1416Z" fill="#E4E4E4"/>
<path d="M41.8019 11.8125H45.7058L48.4751 19.8917L51.3054 11.8125H55.0385L50.244 22.7657H46.5719L41.8019 11.8125Z" fill="#E4E4E4"/>
<path d="M68.3971 19.5501C68.3076 20.1999 67.8969 20.8598 67.1649 21.5297C66.0263 22.5949 64.4322 23.1274 62.3827 23.1274C60.691 23.1274 59.1986 22.6786 57.9054 21.7809C56.6122 20.8832 55.9657 19.4228 55.9657 17.3996C55.9657 15.5037 56.5472 14.05 57.7102 13.0384C58.8814 12.0268 60.3982 11.5211 62.2607 11.5211C63.3668 11.5211 64.3631 11.6919 65.2496 12.0335C66.1361 12.3752 66.8681 12.9145 67.4455 13.6514C67.966 14.3012 68.3036 15.0549 68.4581 15.9124C68.5476 16.4148 68.5842 17.1383 68.5679 18.0829H59.467C59.5158 19.1816 59.9346 19.952 60.7235 20.3942C61.2034 20.6688 61.7808 20.8062 62.4559 20.8062C63.1716 20.8062 63.7531 20.6387 64.2004 20.3037C64.4444 20.1228 64.6599 19.8716 64.847 19.5501H68.3971ZM64.9568 16.1938C64.8999 15.4367 64.6193 14.864 64.115 14.4754C63.6189 14.0802 63.0008 13.8825 62.2607 13.8825C61.4555 13.8825 60.8292 14.0902 60.3819 14.5056C59.9427 14.9209 59.6662 15.4836 59.5524 16.1938H64.9568Z" fill="#E4E4E4"/>
<path d="M70.9956 7.95372H74.4725V22.7657H70.9956V7.95372Z" fill="#E4E4E4"/>
<path d="M88.9657 13.1992C90.088 14.3582 90.6492 15.7282 90.6492 17.3092C90.6492 18.917 90.088 20.2937 88.9657 21.4392C87.8433 22.5781 86.1394 23.1475 83.854 23.1475C81.5686 23.1475 79.8648 22.5781 78.7424 21.4392C77.62 20.2937 77.0588 18.917 77.0588 17.3092C77.0588 15.7282 77.62 14.3582 78.7424 13.1992C79.8648 12.0402 81.5686 11.4608 83.854 11.4608C86.1394 11.4608 87.8433 12.0402 88.9657 13.1992ZM83.8418 13.8825C82.8252 13.8825 82.0404 14.1806 81.4873 14.7769C80.9424 15.3664 80.6699 16.2105 80.6699 17.3092C80.6699 18.4078 80.9424 19.2553 81.4873 19.8515C82.0404 20.4478 82.8252 20.7459 83.8418 20.7459C84.8585 20.7459 85.6392 20.4478 86.1842 19.8515C86.7291 19.2553 87.0015 18.4078 87.0015 17.3092C87.0015 16.2105 86.7291 15.3664 86.1842 14.7769C85.6392 14.1806 84.8585 13.8825 83.8418 13.8825Z" fill="#E4E4E4"/>
<path d="M104.288 12.9882C105.362 13.9328 105.899 15.3195 105.899 17.1484C105.899 19.0778 105.37 20.5482 104.313 21.5598C103.264 22.5714 101.91 23.0772 100.25 23.0772C99.1931 23.0772 98.3147 22.8595 97.6152 22.424C97.233 22.1829 96.8588 21.8311 96.4929 21.3689V27.0766H93.0526V11.8125H96.3831V13.4303C96.7572 12.9547 97.1557 12.5795 97.5786 12.3049C98.3513 11.8158 99.2703 11.5713 100.336 11.5713C101.889 11.5713 103.207 12.0436 104.288 12.9882ZM102.312 17.2891C102.312 16.445 102.076 15.698 101.605 15.0482C101.141 14.3984 100.385 14.0735 99.3354 14.0735C98.0747 14.0735 97.2086 14.5658 96.7369 15.5506C96.4929 16.0732 96.3709 16.7364 96.3709 17.5403C96.3709 18.8131 96.7816 19.7075 97.603 20.2233C98.091 20.5248 98.6685 20.6755 99.3354 20.6755C100.303 20.6755 101.039 20.3674 101.544 19.751C102.056 19.1347 102.312 18.3141 102.312 17.2891Z" fill="#E4E4E4"/>
<path d="M111.999 11.8125V22.7657H108.473V11.8125H111.999ZM111.999 7.86328V10.5061H108.473V7.86328H111.999Z" fill="#E4E4E4"/>
<path d="M121.636 13.9328C120.457 13.9328 119.648 14.3448 119.209 15.1688C118.981 15.6042 118.867 16.1603 118.867 16.8369V22.7657H115.402V11.8326H118.757V13.4303C119.205 12.8676 119.627 12.4623 120.026 12.2144C120.742 11.7723 121.649 11.5512 122.746 11.5512C124.121 11.5512 125.243 11.8493 126.114 12.4455C126.992 13.0351 127.431 14.0165 127.431 15.3898V22.7657H123.869V16.1033C123.869 15.5272 123.775 15.085 123.588 14.7769C123.247 14.2141 122.596 13.9328 121.636 13.9328Z" fill="#E4E4E4"/>
<path d="M134.409 24.685C134.783 24.9463 135.414 25.0769 136.3 25.0769C137.553 25.0769 138.39 24.7319 138.813 24.0419C139.09 23.5997 139.228 22.8561 139.228 21.811V21.1076C138.895 21.5766 138.537 21.9283 138.155 22.1628C137.463 22.5982 136.565 22.8159 135.459 22.8159C133.751 22.8159 132.384 22.3235 131.359 21.3388C130.343 20.3473 129.834 19.0074 129.834 17.3192C129.834 15.6913 130.327 14.3247 131.311 13.2193C132.295 12.1072 133.69 11.5512 135.495 11.5512C136.162 11.5512 136.744 11.6349 137.24 11.8024C138.086 12.0905 138.769 12.6197 139.289 13.3901V11.8125H142.669V22.203C142.669 23.6165 142.38 24.6817 141.802 25.3985C140.81 26.6311 138.907 27.2475 136.093 27.2475C134.393 27.2475 133.006 26.9728 131.933 26.4235C130.859 25.8741 130.266 25.0535 130.152 23.9615H133.934C134.031 24.2965 134.19 24.5376 134.409 24.685ZM133.824 19.0275C134.295 19.952 135.141 20.4143 136.361 20.4143C137.175 20.4143 137.862 20.163 138.423 19.6606C138.984 19.1515 139.265 18.3442 139.265 17.2388C139.265 16.2005 138.996 15.4099 138.46 14.8673C137.931 14.3247 137.219 14.0534 136.325 14.0534C135.105 14.0534 134.263 14.5257 133.799 15.4702C133.555 15.9727 133.433 16.5924 133.433 17.3293C133.433 17.9657 133.564 18.5318 133.824 19.0275Z" fill="#E4E4E4"/>
<path d="M17.9516 41.6158C18.8381 41.6158 19.5579 41.5354 20.1109 41.3746C21.1601 41.0665 21.6847 40.4937 21.6847 39.6563C21.6847 39.1672 21.4244 38.7887 20.9039 38.5208C20.3834 38.2595 19.566 38.0284 18.4518 37.8274L16.5486 37.4757C14.678 37.1273 13.3848 36.7488 12.6691 36.3402C11.4573 35.6569 10.8514 34.5883 10.8514 33.1346C10.8514 31.8082 11.437 30.7061 12.6081 29.8285C13.7793 28.9509 15.4994 28.5121 17.7686 28.5121C19.6636 28.5121 21.278 28.9275 22.6118 29.7582C23.9538 30.5822 24.6573 31.7814 24.7224 33.3557H21.1113C21.0462 32.4647 20.5745 31.8316 19.6961 31.4565C19.1105 31.2086 18.3826 31.0846 17.5124 31.0846C16.5446 31.0846 15.7719 31.2454 15.1945 31.567C14.617 31.8886 14.3283 32.3374 14.3283 32.9135C14.3283 33.4428 14.6129 33.838 15.1823 34.0993C15.5482 34.2735 16.329 34.4778 17.5246 34.7123L20.6233 35.3252C21.9815 35.5932 23.0063 35.9516 23.6976 36.4005C24.7712 37.0972 25.308 38.1054 25.308 39.4252C25.308 40.7784 24.6776 41.9039 23.417 42.8016C22.1645 43.6926 20.3915 44.1381 18.098 44.1381C15.7556 44.1381 13.9135 43.6993 12.5715 42.8217C11.2296 41.9374 10.5586 40.7248 10.5586 39.184H14.1453C14.2592 39.8606 14.4828 40.3664 14.8163 40.7014C15.4263 41.311 16.4714 41.6158 17.9516 41.6158Z" fill="#E4E4E4"/>
<path d="M33.8965 41.7163V43.8567L32.2496 43.9069C30.6067 43.9538 29.4843 43.7194 28.8825 43.2035C28.4921 42.8753 28.2969 42.3695 28.2969 41.6862V34.9434H26.4425V32.9035H28.2969V29.8486H31.7372V32.9035H33.8965V34.9434H31.7372V40.7315C31.7372 41.1804 31.8063 41.4617 31.9446 41.5756C32.0828 41.6828 32.5057 41.7364 33.2133 41.7364C33.3191 41.7364 33.4289 41.7364 33.5427 41.7364C33.6647 41.7297 33.7826 41.723 33.8965 41.7163Z" fill="#E4E4E4"/>
<path d="M44.6566 42.2087C44.6241 42.2422 44.5427 42.3427 44.4126 42.5102C44.2825 42.6776 44.1279 42.825 43.949 42.9523C43.4041 43.3543 42.8754 43.6289 42.3631 43.7763C41.8588 43.9237 41.2651 43.9974 40.5819 43.9974C38.6137 43.9974 37.288 43.4146 36.6048 42.2489C36.2226 41.6058 36.0314 40.6578 36.0314 39.4051V32.803H39.5937V39.4051C39.5937 40.0281 39.6832 40.497 39.8621 40.8119C40.1793 41.3679 40.8015 41.646 41.7287 41.646C42.9161 41.646 43.7294 41.2507 44.1686 40.4602C44.3963 40.0314 44.5102 39.4654 44.5102 38.7619V32.803H48.0359V43.7562H44.6566V42.2087Z" fill="#E4E4E4"/>
<path d="M63.505 28.9643V43.7562H60.1257V42.2388C59.6296 42.8887 59.0644 43.361 58.43 43.6557C57.7956 43.9505 57.0067 44.0979 56.0633 44.0979C54.5098 44.0979 53.2004 43.582 52.135 42.5504C51.0777 41.512 50.549 40.1822 50.549 38.561C50.549 36.6919 51.0695 35.2214 52.1106 34.1495C53.1597 33.0777 54.5586 32.5417 56.3072 32.5417C57.1124 32.5417 57.8281 32.6891 58.4544 32.9839C59.0806 33.2719 59.5889 33.6739 59.9793 34.1897V28.9643H63.505ZM54.1357 38.3499C54.1357 39.3615 54.3797 40.1688 54.8677 40.7717C55.3475 41.3813 56.0795 41.6862 57.0636 41.6862C58.0477 41.6862 58.796 41.3847 59.3084 40.7818C59.8207 40.1788 60.0769 39.3984 60.0769 38.4404C60.0769 37.1005 59.6662 36.1426 58.8448 35.5664C58.3405 35.2181 57.7549 35.0439 57.088 35.0439C56.0714 35.0439 55.3231 35.3621 54.8433 35.9985C54.3716 36.6282 54.1357 37.4121 54.1357 38.3499Z" fill="#E4E4E4"/>
<path d="M70.2514 32.803V43.7562H66.7257V32.803H70.2514ZM70.2514 28.8538V31.4966H66.7257V28.8538H70.2514Z" fill="#E4E4E4"/>
<path d="M84.7202 34.1897C85.8426 35.3487 86.4038 36.7187 86.4038 38.2997C86.4038 39.9075 85.8426 41.2842 84.7202 42.4298C83.5978 43.5686 81.894 44.1381 79.6086 44.1381C77.3232 44.1381 75.6193 43.5686 74.4969 42.4298C73.3745 41.2842 72.8134 39.9075 72.8134 38.2997C72.8134 36.7187 73.3745 35.3487 74.4969 34.1897C75.6193 33.0308 77.3232 32.4513 79.6086 32.4513C81.894 32.4513 83.5978 33.0308 84.7202 34.1897ZM79.5964 34.8731C78.5797 34.8731 77.7949 35.1712 77.2418 35.7674C76.6969 36.3569 76.4245 37.201 76.4245 38.2997C76.4245 39.3984 76.6969 40.2458 77.2418 40.8421C77.7949 41.4383 78.5797 41.7364 79.5964 41.7364C80.613 41.7364 81.3938 41.4383 81.9387 40.8421C82.4836 40.2458 82.7561 39.3984 82.7561 38.2997C82.7561 37.201 82.4836 36.3569 81.9387 35.7674C81.3938 35.1712 80.613 34.8731 79.5964 34.8731Z" fill="#E4E4E4"/>
<circle cx="99" cy="38" r="5" fill="#38A8F9"/>
<circle cx="112" cy="38" r="5" fill="#30DC75"/>
<circle cx="125" cy="38" r="5" fill="#F99C30"/>
<circle cx="138" cy="38" r="5" fill="#C6C6C6"/>
</svg>
