<svg width="36" height="36" viewBox="0 0 36 36" fill="none" xmlns="http://www.w3.org/2000/svg">
<g clip-path="url(#clip0_3480_5644)">
<path d="M18.0739 35.8471C21.5883 35.8471 25.0238 34.8049 27.946 32.8524C30.8681 30.8999 33.1456 28.1247 34.4905 24.8778C35.8355 21.6309 36.1873 18.0581 35.5017 14.6112C34.8161 11.1643 33.1237 7.99816 30.6387 5.51309C28.1536 3.02802 24.9874 1.33566 21.5405 0.650033C18.0936 -0.0355971 14.5208 0.316293 11.2739 1.6612C8.02703 3.00611 5.25185 5.28364 3.29934 8.20578C1.34684 11.1279 0.304688 14.5634 0.304688 18.0778C0.304688 22.7905 2.1768 27.3102 5.50917 30.6426C8.84155 33.9749 13.3612 35.8471 18.0739 35.8471Z" fill="#F7F7F7"/>
<path d="M12.4372 16.082C12.1271 16.089 11.8325 16.2188 11.6181 16.4428C11.4036 16.6668 11.2867 16.9668 11.2932 17.2768V25.7442C11.2867 26.0543 11.4036 26.3543 11.6181 26.5783C11.8325 26.8023 12.1271 26.932 12.4372 26.939H23.4964C23.8065 26.932 24.1011 26.8023 24.3156 26.5783C24.5301 26.3543 24.6469 26.0543 24.6404 25.7442V17.2768C24.6469 16.9668 24.5301 16.6668 24.3156 16.4428C24.1011 16.2188 23.8065 16.089 23.4964 16.082H12.4372Z" fill="black"/>
<path d="M9.13913 17.1059C8.67713 17.5868 8.8367 17.9763 9.49665 17.9763H26.425C27.085 17.9763 27.2495 17.5811 26.7936 17.0946L18.9158 8.69184C18.8101 8.57692 18.682 8.48498 18.5393 8.42174C18.3966 8.3585 18.2424 8.32531 18.0863 8.32425C17.9302 8.32318 17.7756 8.35425 17.632 8.41554C17.4884 8.47682 17.359 8.56701 17.2519 8.68047L9.13913 17.1059Z" fill="black"/>
<path d="M9.25241 16.9861C8.79041 17.457 8.94998 17.839 9.60993 17.839H26.5383C27.1983 17.839 27.3628 17.452 26.9069 16.9754L19.029 8.74329C18.9222 8.63037 18.7937 8.54022 18.6511 8.47828C18.5085 8.41633 18.3549 8.38387 18.1994 8.38284C18.044 8.38181 17.89 8.41223 17.7466 8.47229C17.6032 8.53234 17.4734 8.62077 17.3651 8.73227L9.25241 16.9861Z" stroke="black" stroke-width="1.42154"/>
<path d="M16.9073 21.5128C16.6726 21.5013 16.4429 21.5832 16.2685 21.7407C16.094 21.8981 15.9891 22.1183 15.9766 22.3529V26.711C15.9891 26.9457 16.094 27.1658 16.2685 27.3233C16.4429 27.4807 16.6726 27.5626 16.9073 27.5511H19.029C19.2637 27.5626 19.4934 27.4807 19.6678 27.3233C19.8423 27.1658 19.9472 26.9457 19.9597 26.711V22.3529C19.9472 22.1183 19.8423 21.8981 19.6678 21.7407C19.4934 21.5832 19.2637 21.5013 19.029 21.5128H16.9073Z" fill="#F7F7F7"/>
</g>
<defs>
<clipPath id="clip0_3480_5644">
<rect width="35.5385" height="35.5385" fill="white" transform="translate(0.308594 0.308594)"/>
</clipPath>
</defs>
</svg>
