<svg width="26" height="19" viewBox="0 0 26 19" fill="none" xmlns="http://www.w3.org/2000/svg">
<rect x="0.510385" y="0.80726" width="16.8427" height="14.2908" rx="1.53115" stroke="white" stroke-width="1.02077"/>
<circle cx="5.35399" cy="15.354" r="2.29673" fill="#0C0C0C" stroke="white" stroke-width="1.02077"/>
<path d="M16.8438 15.1009H17.3541M17.3541 15.1009H23.4788C24.0425 15.1009 24.4995 14.6439 24.4995 14.0802V9.39914C24.4995 9.12842 24.392 8.86878 24.2005 8.67735L20.9706 5.44741C20.7792 5.25598 20.5195 5.14844 20.2488 5.14844H18.3749C17.8111 5.14844 17.3541 5.60545 17.3541 6.16921V15.1009Z" stroke="white" stroke-width="1.02077"/>
<circle cx="18.1196" cy="15.354" r="2.29673" fill="#0C0C0C" stroke="white" stroke-width="1.02077"/>
<path d="M18.8828 9.25086V6.65253C18.8828 6.37858 19.214 6.24138 19.4078 6.4351L19.6252 6.65253L21.6986 8.72592C22.1662 9.19359 21.835 9.99323 21.1736 9.99323H19.6252C19.2152 9.99323 18.8828 9.66086 18.8828 9.25086Z" fill="white"/>
</svg>
