<svg width="167" height="157" viewBox="0 0 167 157" fill="none" xmlns="http://www.w3.org/2000/svg">
<path d="M0.769531 11.2282C0.769531 8.29759 3.14525 5.92188 6.07584 5.92188H103.771C106.702 5.92188 109.077 8.29759 109.077 11.2282V143.532C109.077 146.463 106.702 148.839 103.771 148.839H6.07585C3.14525 148.839 0.769531 146.463 0.769531 143.532V11.2282Z" fill="url(#paint0_linear_2734_325)"/>
<path d="M15.0155 129.976C15.6848 129.976 16.2042 130.152 16.5736 130.505C16.9431 130.858 17.1482 131.258 17.189 131.707H16.4909C16.4117 131.366 16.2534 131.096 16.0159 130.897C15.7808 130.698 15.4497 130.599 15.0227 130.599C14.5021 130.599 14.081 130.782 13.7596 131.149C13.4405 131.514 13.2809 132.074 13.2809 132.83C13.2809 133.449 13.4249 133.951 13.7128 134.337C14.0031 134.721 14.4349 134.913 15.0083 134.913C15.536 134.913 15.9379 134.711 16.2138 134.305C16.3601 134.092 16.4693 133.811 16.5413 133.463H17.2394C17.177 134.02 16.9707 134.486 16.6204 134.863C16.2006 135.316 15.6344 135.543 14.9219 135.543C14.3077 135.543 13.7919 135.357 13.3745 134.985C12.8251 134.493 12.5504 133.734 12.5504 132.707C12.5504 131.928 12.7568 131.288 13.1694 130.789C13.6156 130.247 14.231 129.976 15.0155 129.976ZM19.5569 134.989C19.9863 134.989 20.2802 134.827 20.4385 134.503C20.5992 134.177 20.6796 133.814 20.6796 133.416C20.6796 133.056 20.622 132.764 20.5069 132.538C20.3246 132.183 20.0103 132.006 19.5641 132.006C19.1682 132.006 18.8803 132.157 18.7004 132.459C18.5205 132.761 18.4305 133.126 18.4305 133.553C18.4305 133.963 18.5205 134.305 18.7004 134.579C18.8803 134.852 19.1658 134.989 19.5569 134.989ZM19.582 131.441C20.0786 131.441 20.4985 131.606 20.8415 131.937C21.1846 132.268 21.3561 132.755 21.3561 133.398C21.3561 134.02 21.205 134.533 20.9027 134.938C20.6004 135.344 20.1314 135.547 19.4957 135.547C18.9655 135.547 18.5445 135.368 18.2326 135.01C17.9207 134.651 17.7648 134.168 17.7648 133.564C17.7648 132.916 17.9291 132.4 18.2578 132.016C18.5864 131.633 19.0279 131.441 19.582 131.441ZM22.1478 130.12H22.7956V135.406H22.1478V130.12ZM25.3002 134.989C25.7296 134.989 26.0235 134.827 26.1818 134.503C26.3426 134.177 26.4229 133.814 26.4229 133.416C26.4229 133.056 26.3654 132.764 26.2502 132.538C26.0679 132.183 25.7536 132.006 25.3074 132.006C24.9115 132.006 24.6236 132.157 24.4437 132.459C24.2638 132.761 24.1738 133.126 24.1738 133.553C24.1738 133.963 24.2638 134.305 24.4437 134.579C24.6236 134.852 24.9091 134.989 25.3002 134.989ZM25.3254 131.441C25.822 131.441 26.2418 131.606 26.5849 131.937C26.9279 132.268 27.0995 132.755 27.0995 133.398C27.0995 134.02 26.9483 134.533 26.646 134.938C26.3438 135.344 25.8747 135.547 25.239 135.547C24.7088 135.547 24.2878 135.368 23.9759 135.01C23.664 134.651 23.5081 134.168 23.5081 133.564C23.5081 132.916 23.6724 132.4 24.0011 132.016C24.3298 131.633 24.7712 131.441 25.3254 131.441ZM27.8911 131.552H28.5065V132.218C28.5569 132.088 28.6804 131.931 28.8772 131.747C29.0739 131.559 29.3006 131.466 29.5573 131.466C29.5693 131.466 29.5897 131.467 29.6185 131.469C29.6473 131.472 29.6964 131.477 29.766 131.484V132.168C29.7276 132.16 29.6916 132.156 29.658 132.153C29.6269 132.151 29.5921 132.15 29.5537 132.15C29.2274 132.15 28.9767 132.255 28.8016 132.466C28.6265 132.675 28.5389 132.916 28.5389 133.19V135.406H27.8911V131.552Z" fill="white"/>
<circle cx="54.9139" cy="77.3787" r="37.4224" stroke="white" stroke-width="1.47526"/>
<g filter="url(#filter0_d_2734_325)">
<rect x="52.3828" y="5.07812" width="109.154" height="144.033" rx="5.34777" fill="url(#paint1_linear_2734_325)"/>
</g>
<path opacity="0.72" d="M65.0121 134.578H65.9343L67.2999 138.597L68.6558 134.578H69.5683V139.332H68.9567V136.526C68.9567 136.429 68.9589 136.269 68.9632 136.044C68.9675 135.82 68.9697 135.579 68.9697 135.323L67.6138 139.332H66.9763L65.6107 135.323V135.468C65.6107 135.585 65.6129 135.763 65.6172 136.002C65.6237 136.24 65.6269 136.414 65.6269 136.526V139.332H65.0121V134.578ZM70.9177 138.41C70.9177 138.578 70.9792 138.711 71.1022 138.808C71.2251 138.905 71.3707 138.953 71.539 138.953C71.744 138.953 71.9424 138.906 72.1344 138.811C72.458 138.654 72.6198 138.396 72.6198 138.038V137.568C72.5486 137.614 72.457 137.651 72.3448 137.682C72.2326 137.712 72.1226 137.733 72.0147 137.746L71.662 137.792C71.4506 137.82 71.292 137.864 71.1863 137.924C71.0072 138.026 70.9177 138.188 70.9177 138.41ZM72.3286 137.232C72.4623 137.215 72.5519 137.159 72.5972 137.064C72.6231 137.012 72.636 136.937 72.636 136.84C72.636 136.642 72.5648 136.498 72.4224 136.41C72.2822 136.319 72.0805 136.274 71.8173 136.274C71.5131 136.274 71.2974 136.356 71.1701 136.52C71.0989 136.611 71.0525 136.745 71.031 136.924H70.4873C70.4981 136.497 70.6362 136.201 70.9015 136.035C71.169 135.866 71.4786 135.782 71.8303 135.782C72.238 135.782 72.5691 135.86 72.8237 136.015C73.0761 136.17 73.2023 136.412 73.2023 136.74V138.737C73.2023 138.797 73.2142 138.846 73.2379 138.882C73.2638 138.919 73.3166 138.937 73.3965 138.937C73.4223 138.937 73.4515 138.936 73.4838 138.934C73.5162 138.93 73.5507 138.924 73.5874 138.918V139.348C73.4968 139.374 73.4277 139.39 73.3803 139.397C73.3328 139.403 73.2681 139.406 73.1861 139.406C72.9855 139.406 72.8399 139.335 72.7493 139.193C72.7018 139.117 72.6684 139.011 72.649 138.873C72.5303 139.028 72.3599 139.163 72.1377 139.277C71.9155 139.391 71.6706 139.449 71.4031 139.449C71.0817 139.449 70.8185 139.351 70.6135 139.157C70.4107 138.961 70.3093 138.716 70.3093 138.423C70.3093 138.101 70.4097 137.852 70.6103 137.675C70.8109 137.498 71.0741 137.389 71.3999 137.348L72.3286 137.232ZM75.3833 135.805C75.6552 135.805 75.8925 135.872 76.0953 136.005C76.2053 136.081 76.3175 136.191 76.4318 136.336V135.899H76.969V139.051C76.969 139.491 76.9042 139.838 76.7748 140.092C76.5332 140.563 76.0769 140.798 75.406 140.798C75.0328 140.798 74.7189 140.714 74.4643 140.546C74.2098 140.379 74.0674 140.118 74.0372 139.762H74.6294C74.6574 139.918 74.7135 140.037 74.7976 140.122C74.9292 140.251 75.1363 140.316 75.4189 140.316C75.8655 140.316 76.1578 140.158 76.2959 139.843C76.3779 139.658 76.4156 139.327 76.4091 138.85C76.2927 139.027 76.1524 139.158 75.9885 139.245C75.8245 139.331 75.6077 139.374 75.338 139.374C74.9627 139.374 74.6337 139.241 74.3511 138.976C74.0706 138.709 73.9304 138.267 73.9304 137.653C73.9304 137.072 74.0717 136.619 74.3543 136.293C74.6391 135.968 74.9821 135.805 75.3833 135.805ZM76.4318 137.585C76.4318 137.155 76.3433 136.837 76.1664 136.63C75.9895 136.423 75.7641 136.319 75.4901 136.319C75.0802 136.319 74.7998 136.511 74.6488 136.895C74.569 137.1 74.529 137.369 74.529 137.701C74.529 138.092 74.6078 138.389 74.7653 138.594C74.9249 138.797 75.1385 138.898 75.406 138.898C75.8245 138.898 76.119 138.71 76.2894 138.332C76.3843 138.119 76.4318 137.869 76.4318 137.585ZM77.8492 135.882H78.4413V139.332H77.8492V135.882ZM77.8492 134.578H78.4413V135.239H77.8492V134.578ZM80.6612 135.766C81.0517 135.766 81.3688 135.861 81.6126 136.051C81.8585 136.241 82.0063 136.567 82.0559 137.031H81.4896C81.4551 136.818 81.3764 136.641 81.2534 136.501C81.1304 136.358 80.933 136.287 80.6612 136.287C80.2901 136.287 80.0248 136.468 79.8652 136.831C79.7616 137.066 79.7098 137.356 79.7098 137.701C79.7098 138.048 79.7832 138.341 79.9299 138.578C80.0766 138.815 80.3074 138.934 80.6224 138.934C80.864 138.934 81.0549 138.861 81.1951 138.714C81.3375 138.565 81.4357 138.362 81.4896 138.106H82.0559C81.9912 138.565 81.8294 138.902 81.5705 139.115C81.3116 139.327 80.9805 139.432 80.5771 139.432C80.124 139.432 79.7627 139.267 79.493 138.937C79.2234 138.605 79.0885 138.191 79.0885 137.695C79.0885 137.086 79.2363 136.613 79.5319 136.274C79.8274 135.935 80.2039 135.766 80.6612 135.766ZM86.5636 134.449C87.1655 134.449 87.6326 134.608 87.9648 134.925C88.297 135.242 88.4815 135.602 88.5181 136.005H87.8904C87.8192 135.699 87.6768 135.456 87.4632 135.277C87.2518 135.098 86.9541 135.009 86.5701 135.009C86.1019 135.009 85.7233 135.174 85.4343 135.504C85.1473 135.832 85.0039 136.336 85.0039 137.015C85.0039 137.572 85.1333 138.024 85.3922 138.371C85.6532 138.716 86.0415 138.889 86.5571 138.889C87.0317 138.889 87.3931 138.706 87.6412 138.342C87.7728 138.15 87.8709 137.897 87.9357 137.585H88.5634C88.5073 138.085 88.3218 138.505 88.0069 138.843C87.6293 139.251 87.1202 139.455 86.4795 139.455C85.9272 139.455 85.4634 139.288 85.088 138.953C84.594 138.511 84.347 137.828 84.347 136.905C84.347 136.204 84.5325 135.629 84.9036 135.18C85.3048 134.693 85.8582 134.449 86.5636 134.449ZM90.6474 138.957C91.0336 138.957 91.2978 138.811 91.4402 138.52C91.5848 138.226 91.657 137.901 91.657 137.543C91.657 137.219 91.6052 136.956 91.5017 136.753C91.3377 136.434 91.0551 136.274 90.6539 136.274C90.2979 136.274 90.039 136.41 89.8772 136.682C89.7154 136.954 89.6345 137.282 89.6345 137.666C89.6345 138.034 89.7154 138.342 89.8772 138.588C90.039 138.834 90.2958 138.957 90.6474 138.957ZM90.6701 135.766C91.1166 135.766 91.4941 135.915 91.8026 136.213C92.1111 136.51 92.2654 136.948 92.2654 137.526C92.2654 138.085 92.1295 138.547 91.8577 138.911C91.5858 139.276 91.1641 139.458 90.5924 139.458C90.1156 139.458 89.737 139.298 89.4566 138.976C89.1761 138.652 89.0359 138.219 89.0359 137.675C89.0359 137.093 89.1837 136.629 89.4792 136.284C89.7748 135.939 90.1717 135.766 90.6701 135.766ZM92.9773 134.578H93.5598V139.332H92.9773V134.578ZM95.812 138.957C96.1982 138.957 96.4624 138.811 96.6048 138.52C96.7494 138.226 96.8216 137.901 96.8216 137.543C96.8216 137.219 96.7699 136.956 96.6663 136.753C96.5023 136.434 96.2197 136.274 95.8185 136.274C95.4625 136.274 95.2036 136.41 95.0418 136.682C94.88 136.954 94.7991 137.282 94.7991 137.666C94.7991 138.034 94.88 138.342 95.0418 138.588C95.2036 138.834 95.4604 138.957 95.812 138.957ZM95.8347 135.766C96.2812 135.766 96.6587 135.915 96.9672 136.213C97.2757 136.51 97.43 136.948 97.43 137.526C97.43 138.085 97.2941 138.547 97.0223 138.911C96.7504 139.276 96.3287 139.458 95.757 139.458C95.2802 139.458 94.9016 139.298 94.6212 138.976C94.3407 138.652 94.2005 138.219 94.2005 137.675C94.2005 137.093 94.3483 136.629 94.6438 136.284C94.9394 135.939 95.3363 135.766 95.8347 135.766ZM98.1419 135.866H98.6953V136.465C98.7406 136.348 98.8517 136.207 99.0286 136.041C99.2055 135.873 99.4093 135.789 99.6402 135.789C99.6509 135.789 99.6693 135.79 99.6952 135.792C99.7211 135.794 99.7653 135.798 99.8278 135.805V136.42C99.7933 136.413 99.761 136.409 99.7308 136.407C99.7027 136.405 99.6714 136.403 99.6369 136.403C99.3435 136.403 99.1181 136.498 98.9606 136.688C98.8031 136.876 98.7244 137.093 98.7244 137.339V139.332H98.1419V135.866Z" fill="white"/>
<circle cx="106.942" cy="81.6534" r="37.7147" stroke="white" stroke-width="1.48678"/>
<g opacity="0.5">
<path d="M65.1967 16.4263H63.0521V17.4114H64.9297V18.1553H63.0521V19.9511H62.1641V15.6737H65.1967V16.4263Z" fill="white"/>
<path d="M68.2085 18.2716H67.2856V19.9511H66.4121V15.6679H68.5103C68.8101 15.6737 69.0404 15.7105 69.201 15.7783C69.3635 15.8461 69.5008 15.9459 69.613 16.0776C69.7059 16.1861 69.7794 16.3062 69.8336 16.438C69.8878 16.5697 69.9149 16.7198 69.9149 16.8884C69.9149 17.0918 69.8636 17.2923 69.761 17.4899C69.6585 17.6855 69.4892 17.8241 69.2532 17.9054C69.4505 17.9848 69.5898 18.0982 69.6711 18.2454C69.7543 18.3907 69.7959 18.6135 69.7959 18.9137V19.2014L69.7906 19.5995V19.8436V19.9511H68.902V19.7274C68.902 19.7274 68.904 19.4784 68.902 19.3525L68.8962 18.9544C68.8924 18.6813 68.8421 18.4992 68.7453 18.4081C68.6505 18.3171 68.4716 18.2716 68.2085 18.2716ZM68.7511 17.4928C68.9291 17.4114 69.0181 17.2506 69.0181 17.0104C69.0181 16.7508 68.932 16.5765 68.7598 16.4874C68.6631 16.437 68.518 16.4118 68.3245 16.4118H67.2856V17.5625H68.2984C68.4996 17.5625 68.6505 17.5393 68.7511 17.4928Z" fill="white"/>
<path d="M73.7856 19.0707H72.2098L71.9138 19.9511H70.9793L72.5058 15.6679H73.5157L75.0306 19.9511H74.0613L73.7856 19.0707ZM73.536 18.3326L73.0021 16.6472L72.4507 18.3326H73.536Z" fill="white"/>
<path d="M76.9889 19.9511H76.156V15.6679H77.4561L78.2339 19.0358L79.0058 15.6679H80.2914V19.9511H79.4585V17.054C79.4585 16.9707 79.4595 16.8545 79.4614 16.7053C79.4634 16.5542 79.4643 16.438 79.4643 16.3566L78.6547 19.9511H77.787L76.9831 16.3566C76.9831 16.438 76.9841 16.5542 76.986 16.7053C76.9879 16.8545 76.9889 16.9707 76.9889 17.054V19.9511Z" fill="white"/>
<path d="M84.6933 18.0798H82.6154V19.1811H84.9835V19.9511H81.7419V15.6679H84.879V16.4263H82.6154V17.3359H84.6933V18.0798Z" fill="white"/>
<path d="M87.8269 19.3322C88.0378 19.3322 88.209 19.3089 88.3406 19.2624C88.5901 19.1733 88.7149 19.0077 88.7149 18.7655C88.7149 18.6241 88.653 18.5147 88.5292 18.4372C88.4054 18.3616 88.2109 18.2948 87.9459 18.2367L87.4932 18.135C87.0482 18.0342 86.7406 17.9248 86.5703 17.8066C86.282 17.609 86.1379 17.3 86.1379 16.8797C86.1379 16.4961 86.2772 16.1774 86.5558 15.9236C86.8344 15.6699 87.2436 15.543 87.7834 15.543C88.2341 15.543 88.6182 15.6631 88.9355 15.9033C89.2547 16.1416 89.422 16.4883 89.4375 16.9436H88.5785C88.563 16.6859 88.4508 16.5029 88.2419 16.3944C88.1026 16.3227 87.9294 16.2869 87.7224 16.2869C87.4922 16.2869 87.3084 16.3334 87.171 16.4263C87.0337 16.5193 86.965 16.6491 86.965 16.8157C86.965 16.9688 87.0327 17.0831 87.1681 17.1586C87.2552 17.209 87.4409 17.2681 87.7253 17.3359L88.4624 17.5131C88.7855 17.5906 89.0293 17.6943 89.1938 17.8241C89.4491 18.0255 89.5768 18.3171 89.5768 18.6987C89.5768 19.09 89.4269 19.4155 89.127 19.6751C88.8291 19.9327 88.4073 20.0616 87.8617 20.0616C87.3045 20.0616 86.8663 19.9347 86.5471 19.6809C86.2279 19.4252 86.0682 19.0745 86.0682 18.629H86.9214C86.9485 18.8246 87.0017 18.9709 87.0811 19.0678C87.2262 19.244 87.4748 19.3322 87.8269 19.3322Z" fill="white"/>
</g>
<g opacity="0.5">
<path d="M14.7983 16.9615H12.6537V17.9466H14.5313V18.6905H12.6537V20.4863H11.7656V16.2089H14.7983V16.9615Z" fill="white"/>
<path d="M17.81 18.8067H16.8872V20.4863H16.0136V16.2031H18.1118C18.4117 16.2089 18.6419 16.2457 18.8025 16.3135C18.965 16.3813 19.1024 16.4811 19.2146 16.6128C19.3075 16.7213 19.381 16.8414 19.4352 16.9731C19.4893 17.1049 19.5164 17.255 19.5164 17.4235C19.5164 17.6269 19.4652 17.8274 19.3626 18.025C19.2601 18.2207 19.0908 18.3592 18.8548 18.4406C19.0521 18.52 19.1914 18.6333 19.2726 18.7806C19.3558 18.9259 19.3974 19.1486 19.3974 19.4489V19.7366L19.3922 20.1347V20.3788V20.4863H18.5036V20.2625C18.5036 20.2625 18.5055 20.0136 18.5036 19.8877L18.4978 19.4896C18.4939 19.2164 18.4436 19.0343 18.3469 18.9433C18.2521 18.8522 18.0731 18.8067 17.81 18.8067ZM18.3527 18.0279C18.5307 17.9466 18.6197 17.7858 18.6197 17.5456C18.6197 17.286 18.5336 17.1116 18.3614 17.0225C18.2647 16.9722 18.1196 16.947 17.9261 16.947H16.8872V18.0977H17.9C18.1012 18.0977 18.2521 18.0744 18.3527 18.0279Z" fill="white"/>
<path d="M23.3872 19.6058H21.8114L21.5154 20.4863H20.5809L22.1074 16.2031H23.1173L24.6322 20.4863H23.6629L23.3872 19.6058ZM23.1376 18.8677L22.6036 17.1823L22.0522 18.8677H23.1376Z" fill="white"/>
<path d="M26.5905 20.4863H25.7576V16.2031H27.0577L27.8354 19.5709L28.6074 16.2031H29.893V20.4863H29.0601V17.5892C29.0601 17.5059 29.0611 17.3896 29.063 17.2405C29.0649 17.0894 29.0659 16.9731 29.0659 16.8918L28.2562 20.4863H27.3885L26.5847 16.8918C26.5847 16.9731 26.5856 17.0894 26.5876 17.2405C26.5895 17.3896 26.5905 17.5059 26.5905 17.5892V20.4863Z" fill="white"/>
<path d="M34.2948 18.6149H32.217V19.7162H34.585V20.4863H31.3434V16.2031H34.4805V16.9615H32.217V17.871H34.2948V18.6149Z" fill="white"/>
<path d="M37.4285 19.8673C37.6393 19.8673 37.8106 19.8441 37.9421 19.7976C38.1917 19.7085 38.3165 19.5429 38.3165 19.3007C38.3165 19.1593 38.2546 19.0498 38.1307 18.9723C38.0069 18.8968 37.8125 18.83 37.5474 18.7718L37.0947 18.6701C36.6497 18.5694 36.3421 18.4599 36.1719 18.3418C35.8836 18.1442 35.7395 17.8352 35.7395 17.4148C35.7395 17.0312 35.8788 16.7126 36.1574 16.4588C36.436 16.205 36.8451 16.0781 37.3849 16.0781C37.8357 16.0781 38.2197 16.1982 38.537 16.4384C38.8563 16.6767 39.0236 17.0235 39.0391 17.4787H38.1801C38.1646 17.2211 38.0524 17.038 37.8434 16.9295C37.7041 16.8579 37.531 16.822 37.324 16.822C37.0937 16.822 36.91 16.8685 36.7726 16.9615C36.6352 17.0545 36.5665 17.1843 36.5665 17.3509C36.5665 17.5039 36.6343 17.6182 36.7697 17.6938C36.8567 17.7441 37.0425 17.8032 37.3269 17.871L38.064 18.0483C38.3871 18.1258 38.6309 18.2294 38.7953 18.3592C39.0507 18.5607 39.1784 18.8522 39.1784 19.2339C39.1784 19.6252 39.0284 19.9506 38.7286 20.2102C38.4306 20.4679 38.0089 20.5967 37.4633 20.5967C36.9061 20.5967 36.4679 20.4698 36.1486 20.216C35.8294 19.9603 35.6698 19.6097 35.6698 19.1641H36.523C36.5501 19.3598 36.6033 19.5061 36.6826 19.6029C36.8277 19.7792 37.0763 19.8673 37.4285 19.8673Z" fill="white"/>
</g>
<defs>
<filter id="filter0_d_2734_325" x="44.8581" y="0.182104" width="121.573" height="156.452" filterUnits="userSpaceOnUse" color-interpolation-filters="sRGB">
<feFlood flood-opacity="0" result="BackgroundImageFix"/>
<feColorMatrix in="SourceAlpha" type="matrix" values="0 0 0 0 0 0 0 0 0 0 0 0 0 0 0 0 0 0 127 0" result="hardAlpha"/>
<feOffset dx="-1.31437" dy="1.31437"/>
<feGaussianBlur stdDeviation="3.10519"/>
<feComposite in2="hardAlpha" operator="out"/>
<feColorMatrix type="matrix" values="0 0 0 0 0 0 0 0 0 0 0 0 0 0 0 0 0 0 0.25 0"/>
<feBlend mode="normal" in2="BackgroundImageFix" result="effect1_dropShadow_2734_325"/>
<feBlend mode="normal" in="SourceGraphic" in2="effect1_dropShadow_2734_325" result="shape"/>
</filter>
<linearGradient id="paint0_linear_2734_325" x1="94.1542" y1="5.87731" x2="0.769539" y2="172.694" gradientUnits="userSpaceOnUse">
<stop stop-color="#0029BB"/>
<stop offset="1" stop-color="#046AB3"/>
</linearGradient>
<linearGradient id="paint1_linear_2734_325" x1="114.583" y1="157.126" x2="83.5552" y2="10.2721" gradientUnits="userSpaceOnUse">
<stop stop-color="#F0D85A"/>
<stop offset="1" stop-color="#E48F10"/>
</linearGradient>
</defs>
</svg>
