<svg width="143" height="155" viewBox="0 0 143 155" fill="none" xmlns="http://www.w3.org/2000/svg">
<path d="M0.484375 6.45569C0.484375 3.29805 3.04415 0.738281 6.20179 0.738281H111.466C114.623 0.738281 117.183 3.29806 117.183 6.4557V149.01C117.183 152.168 114.623 154.727 111.466 154.727H6.20179C3.04415 154.727 0.484375 152.168 0.484375 149.01V6.45569Z" fill="url(#paint0_linear_3746_440)"/>
<path d="M15.837 134.942C16.5582 134.942 17.1178 135.132 17.5159 135.512C17.914 135.892 18.135 136.324 18.1789 136.807H17.4267C17.3414 136.44 17.1708 136.149 16.9149 135.935C16.6616 135.72 16.3049 135.613 15.8447 135.613C15.2838 135.613 14.8302 135.811 14.4838 136.206C14.14 136.599 13.9681 137.203 13.9681 138.017C13.9681 138.684 14.1232 139.225 14.4334 139.641C14.7462 140.055 15.2114 140.262 15.8292 140.262C16.3979 140.262 16.8309 140.043 17.1282 139.606C17.2858 139.376 17.4035 139.074 17.481 138.699H18.2332C18.166 139.299 17.9437 139.802 17.5663 140.207C17.1139 140.696 16.5039 140.94 15.7362 140.94C15.0744 140.94 14.5187 140.74 14.0689 140.339C13.477 139.809 13.181 138.991 13.181 137.885C13.181 137.045 13.4033 136.356 13.8479 135.818C14.3287 135.234 14.9917 134.942 15.837 134.942ZM20.7302 140.343C21.1929 140.343 21.5096 140.169 21.6802 139.82C21.8534 139.468 21.94 139.078 21.94 138.649C21.94 138.261 21.8779 137.946 21.7539 137.703C21.5574 137.32 21.2188 137.129 20.738 137.129C20.3115 137.129 20.0013 137.292 19.8074 137.617C19.6136 137.943 19.5166 138.336 19.5166 138.796C19.5166 139.238 19.6136 139.606 19.8074 139.901C20.0013 140.196 20.3089 140.343 20.7302 140.343ZM20.7574 136.52C21.2925 136.52 21.7448 136.698 22.1145 137.055C22.4841 137.412 22.6689 137.937 22.6689 138.629C22.6689 139.299 22.5061 139.852 22.1804 140.289C21.8547 140.726 21.3493 140.944 20.6643 140.944C20.0931 140.944 19.6394 140.752 19.3034 140.366C18.9673 139.979 18.7993 139.459 18.7993 138.808C18.7993 138.11 18.9764 137.554 19.3305 137.14C19.6846 136.727 20.1603 136.52 20.7574 136.52ZM23.5219 135.097H24.2199V140.793H23.5219V135.097ZM26.9185 140.343C27.3812 140.343 27.6979 140.169 27.8685 139.82C28.0417 139.468 28.1283 139.078 28.1283 138.649C28.1283 138.261 28.0662 137.946 27.9421 137.703C27.7457 137.32 27.4071 137.129 26.9263 137.129C26.4998 137.129 26.1896 137.292 25.9957 137.617C25.8018 137.943 25.7049 138.336 25.7049 138.796C25.7049 139.238 25.8018 139.606 25.9957 139.901C26.1896 140.196 26.4972 140.343 26.9185 140.343ZM26.9457 136.52C27.4807 136.52 27.9331 136.698 28.3027 137.055C28.6724 137.412 28.8572 137.937 28.8572 138.629C28.8572 139.299 28.6944 139.852 28.3687 140.289C28.043 140.726 27.5376 140.944 26.8526 140.944C26.2813 140.944 25.8277 140.752 25.4917 140.366C25.1556 139.979 24.9876 139.459 24.9876 138.808C24.9876 138.11 25.1647 137.554 25.5188 137.14C25.8729 136.727 26.3485 136.52 26.9457 136.52ZM29.7102 136.64H30.3733V137.358C30.4275 137.218 30.5607 137.049 30.7726 136.85C30.9846 136.648 31.2289 136.547 31.5055 136.547C31.5184 136.547 31.5404 136.549 31.5714 136.551C31.6024 136.554 31.6554 136.559 31.7303 136.567V137.303C31.689 137.296 31.6502 137.29 31.614 137.288C31.5804 137.285 31.5429 137.284 31.5016 137.284C31.15 137.284 30.8799 137.398 30.6912 137.625C30.5025 137.85 30.4082 138.11 30.4082 138.405V140.793H29.7102V136.64Z" fill="white"/>
<circle cx="58.8274" cy="77.7336" r="40.3216" stroke="white" stroke-width="1.58955"/>
<path d="M43.5654 18.8003H44.2335V19.4512H43.5654V18.8003Z" fill="white"/>
<path d="M46.5719 18.8003H47.24V19.4512H46.5719V18.8003Z" fill="white"/>
<path d="M45.5697 18.8003H46.2379V19.4512H45.5697V18.8003Z" fill="white"/>
<path d="M44.5676 18.8003L45.2357 18.8003V19.4512H44.5676V18.8003Z" fill="white"/>
<path d="M12.832 18.8003H13.5001V19.4512H12.832V18.8003Z" fill="white"/>
<path d="M37.3296 18.8003H37.9978V19.4512H37.3296V18.8003Z" fill="white"/>
<path d="M24.5241 18.8003H25.1922V19.4512H24.5241V18.8003Z" fill="white"/>
<path d="M28.5328 18.8003H29.2009V19.4512H28.5328V18.8003Z" fill="white"/>
<path d="M30.5371 18.8003H31.2052V19.4512H30.5371V18.8003Z" fill="white"/>
<path d="M34.9912 18.8003H35.6593V19.4512H34.9912V18.8003Z" fill="white"/>
<path d="M18.6224 18.8003H19.2905V19.4512H18.6224V18.8003Z" fill="white"/>
<path d="M12.832 17.8238H13.5001V18.4748H12.832V17.8238Z" fill="white"/>
<path d="M37.3296 17.8238H37.9978V18.4748H37.3296V17.8238Z" fill="white"/>
<path d="M24.5241 17.8238H25.1922V18.4748H24.5241V17.8238Z" fill="white"/>
<path d="M28.5328 17.8238H29.2009V18.4748H28.5328V17.8238Z" fill="white"/>
<path d="M30.5371 17.8238H31.2052V18.4748H30.5371V17.8238Z" fill="white"/>
<path d="M34.9912 17.8238H35.6593V18.4748H34.9912V17.8238Z" fill="white"/>
<path d="M18.6224 17.8238H19.2905V18.4748H18.6224V17.8238Z" fill="white"/>
<path d="M12.832 16.8474H13.5001V17.4984H12.832V16.8474Z" fill="white"/>
<path d="M43.5654 16.8474H44.2335V17.4984H43.5654V16.8474Z" fill="white"/>
<path d="M37.3296 16.8474H37.9978V17.4984H37.3296V16.8474Z" fill="white"/>
<path d="M24.5241 16.8474L25.1922 16.8474V17.4984H24.5241V16.8474Z" fill="white"/>
<path d="M28.5328 16.8474H29.2009V17.4984H28.5328V16.8474Z" fill="white"/>
<path d="M30.5371 16.8474H31.2052V17.4984H30.5371V16.8474Z" fill="white"/>
<path d="M34.9912 16.8474H35.6593V17.4984H34.9912V16.8474Z" fill="white"/>
<path d="M18.6224 16.8474H19.2905V17.4984H18.6224V16.8474Z" fill="white"/>
<path d="M13.8342 16.8474H14.5023V17.4984H13.8342V16.8474Z" fill="white"/>
<path d="M44.5676 16.8474H45.2357V17.4984L44.5676 17.4984V16.8474Z" fill="white"/>
<path d="M38.3318 16.8474H38.9999V17.4984H38.3318V16.8474Z" fill="white"/>
<path d="M38.3318 18.8003H38.9999V19.4512H38.3318V18.8003Z" fill="white"/>
<path d="M25.5262 16.8474H26.1944V17.4984H25.5262V16.8474Z" fill="white"/>
<path d="M19.6245 16.8474H20.2927V17.4984H19.6245V16.8474Z" fill="white"/>
<path d="M14.8364 16.8474H15.5045V17.4984H14.8364V16.8474Z" fill="white"/>
<path d="M45.5697 16.8474H46.2379V17.4984H45.5697V16.8474Z" fill="white"/>
<path d="M39.334 16.8474H40.0021V17.4984H39.334V16.8474Z" fill="white"/>
<path d="M39.334 18.8003H40.0021V19.4512H39.334V18.8003Z" fill="white"/>
<path d="M26.5284 16.8474H27.1965V17.4984H26.5284V16.8474Z" fill="white"/>
<path d="M20.6267 16.8474H21.2948V17.4984H20.6267V16.8474Z" fill="white"/>
<path d="M15.7272 16.8474H16.3953V17.4984H15.7272V16.8474Z" fill="white"/>
<path d="M16.618 16.8474H17.2861V17.4984H16.618V16.8474Z" fill="white"/>
<path d="M46.5719 16.8474H47.24V17.4984H46.5719V16.8474Z" fill="white"/>
<path d="M40.3362 16.8474H41.0043V17.4984H40.3362V16.8474Z" fill="white"/>
<path d="M41.3383 16.8474H42.0065V17.4984H41.3383V16.8474Z" fill="white"/>
<path d="M40.3362 18.8003H41.0043V19.4512H40.3362V18.8003Z" fill="white"/>
<path d="M41.3383 18.8003H42.0065V19.4512H41.3383V18.8003Z" fill="white"/>
<path d="M27.5306 16.8474H28.1987V17.4984H27.5306V16.8474Z" fill="white"/>
<path d="M21.6289 16.8474H22.297V17.4984H21.6289V16.8474Z" fill="white"/>
<path d="M22.5197 17.8238H23.1878V18.4748H22.5197V17.8238Z" fill="white"/>
<path d="M22.5197 18.8003H23.1878V19.4512H22.5197V18.8003Z" fill="white"/>
<path d="M12.832 15.871H13.5001V16.5219H12.832V15.871Z" fill="white"/>
<path d="M42.8973 15.871H43.5654V16.5219H42.8973V15.871Z" fill="white"/>
<path d="M37.3296 15.871H37.9978V16.5219H37.3296V15.871Z" fill="white"/>
<path d="M24.5241 15.871H25.1922V16.5219L24.5241 16.5219V15.871Z" fill="white"/>
<path d="M28.5328 15.871L29.2009 15.871V16.5219H28.5328V15.871Z" fill="white"/>
<path d="M30.5371 15.871H31.2052V16.5219H30.5371V15.871Z" fill="white"/>
<path d="M34.9912 15.871H35.6593V16.5219H34.9912V15.871Z" fill="white"/>
<path d="M18.6224 15.871L19.2905 15.871V16.5219H18.6224V15.871Z" fill="white"/>
<path d="M12.832 14.8945H13.5001V15.5455H12.832V14.8945Z" fill="white"/>
<path d="M43.5654 14.8945H44.2335V15.5455H43.5654V14.8945Z" fill="white"/>
<path d="M37.3296 14.8945H37.9978V15.5455H37.3296V14.8945Z" fill="white"/>
<path d="M30.5371 14.8945H31.2052V15.5455H30.5371V14.8945Z" fill="white"/>
<path d="M31.6506 15.3285H32.3188V15.9795H31.6506V15.3285Z" fill="white"/>
<path d="M32.7642 15.9795H33.4323V16.6304H32.7642V15.9795Z" fill="white"/>
<path d="M33.8777 15.3285H34.5458V15.9795H33.8777V15.3285Z" fill="white"/>
<path d="M34.9912 14.8945H35.6593V15.5455H34.9912V14.8945Z" fill="white"/>
<path d="M18.6224 14.8945H19.2905V15.5455L18.6224 15.5455V14.8945Z" fill="white"/>
<path d="M13.8342 14.8945H14.5023V15.5455H13.8342V14.8945Z" fill="white"/>
<path d="M44.5676 14.8945H45.2357V15.5455H44.5676V14.8945Z" fill="white"/>
<path d="M38.3318 14.8945H38.9999V15.5455H38.3318V14.8945Z" fill="white"/>
<path d="M25.5262 14.8945H26.1944V15.5455H25.5262V14.8945Z" fill="white"/>
<path d="M19.6245 14.8945H20.2927V15.5455H19.6245V14.8945Z" fill="white"/>
<path d="M14.8364 14.8945H15.5045V15.5455H14.8364V14.8945Z" fill="white"/>
<path d="M45.5697 14.8945H46.2379V15.5455H45.5697V14.8945Z" fill="white"/>
<path d="M39.334 14.8945H40.0021V15.5455H39.334V14.8945Z" fill="white"/>
<path d="M26.5284 14.8945H27.1965V15.5455H26.5284V14.8945Z" fill="white"/>
<path d="M20.6267 14.8945H21.2948V15.5455H20.6267V14.8945Z" fill="white"/>
<path d="M15.7272 14.8945H16.3953V15.5455H15.7272V14.8945Z" fill="white"/>
<path d="M16.618 14.8945H17.2861V15.5455H16.618V14.8945Z" fill="white"/>
<path d="M46.5719 14.8945H47.24V15.5455H46.5719V14.8945Z" fill="white"/>
<path d="M40.3362 14.8945L41.0043 14.8945V15.5455L40.3362 15.5455V14.8945Z" fill="white"/>
<path d="M41.3383 14.8945H42.0065V15.5455H41.3383V14.8945Z" fill="white"/>
<path d="M27.5306 14.8945H28.1987V15.5455H27.5306V14.8945Z" fill="white"/>
<path d="M21.6289 14.8945H22.297V15.5455H21.6289V14.8945Z" fill="white"/>
<path d="M22.6311 15.871H23.2992V16.5219H22.6311V15.871Z" fill="white"/>
<path d="M47.24 17.8238H47.9082V18.4748H47.24V17.8238Z" fill="white"/>
<path d="M25.3438 6.72913C25.3438 3.57149 27.9035 1.01172 31.0612 1.01172H136.325C139.483 1.01172 142.043 3.57149 142.043 6.72914V149.283C142.043 152.441 139.483 155.001 136.325 155.001H31.0612C27.9035 155.001 25.3438 152.441 25.3438 149.283V6.72913Z" fill="url(#paint1_linear_3746_440)"/>
<path d="M40.6964 135.215C41.4176 135.215 41.9772 135.405 42.3753 135.785C42.7733 136.165 42.9944 136.597 43.0383 137.08H42.2861C42.2008 136.713 42.0302 136.423 41.7743 136.208C41.521 135.994 41.1642 135.886 40.7041 135.886C40.1432 135.886 39.6895 136.084 39.3432 136.479C38.9994 136.872 38.8275 137.476 38.8275 138.29C38.8275 138.957 38.9826 139.499 39.2928 139.915C39.6055 140.328 40.0708 140.535 40.6886 140.535C41.2573 140.535 41.6903 140.317 41.9875 139.88C42.1452 139.65 42.2628 139.347 42.3404 138.973H43.0926C43.0254 139.572 42.8031 140.075 42.4257 140.481C41.9733 140.969 41.3633 141.214 40.5956 141.214C39.9338 141.214 39.3781 141.013 38.9283 140.613C38.3363 140.083 38.0404 139.265 38.0404 138.158C38.0404 137.318 38.2627 136.629 38.7073 136.092C39.1881 135.508 39.8511 135.215 40.6964 135.215ZM45.5896 140.617C46.0523 140.617 46.369 140.442 46.5396 140.093C46.7128 139.742 46.7994 139.351 46.7994 138.922C46.7994 138.534 46.7373 138.219 46.6132 137.976C46.4168 137.594 46.0782 137.402 45.5974 137.402C45.1709 137.402 44.8607 137.565 44.6668 137.891C44.4729 138.217 44.376 138.609 44.376 139.07C44.376 139.512 44.4729 139.88 44.6668 140.175C44.8607 140.469 45.1683 140.617 45.5896 140.617ZM45.6168 136.794C46.1518 136.794 46.6042 136.972 46.9738 137.329C47.3435 137.685 47.5283 138.21 47.5283 138.903C47.5283 139.572 47.3654 140.125 47.0398 140.562C46.7141 140.999 46.2087 141.218 45.5237 141.218C44.9524 141.218 44.4988 141.025 44.1627 140.64C43.8267 140.252 43.6587 139.733 43.6587 139.081C43.6587 138.383 43.8357 137.828 44.1899 137.414C44.544 137 45.0196 136.794 45.6168 136.794ZM48.3813 135.371H49.0792V141.066H48.3813V135.371ZM51.7779 140.617C52.2406 140.617 52.5573 140.442 52.7279 140.093C52.901 139.742 52.9876 139.351 52.9876 138.922C52.9876 138.534 52.9256 138.219 52.8015 137.976C52.6051 137.594 52.2664 137.402 51.7857 137.402C51.3591 137.402 51.049 137.565 50.8551 137.891C50.6612 138.217 50.5643 138.609 50.5643 139.07C50.5643 139.512 50.6612 139.88 50.8551 140.175C51.049 140.469 51.3566 140.617 51.7779 140.617ZM51.805 136.794C52.3401 136.794 52.7925 136.972 53.1621 137.329C53.5318 137.685 53.7166 138.21 53.7166 138.903C53.7166 139.572 53.5537 140.125 53.228 140.562C52.9023 140.999 52.397 141.218 51.712 141.218C51.1407 141.218 50.6871 141.025 50.351 140.64C50.015 140.252 49.847 139.733 49.847 139.081C49.847 138.383 50.024 137.828 50.3782 137.414C50.7323 137 51.2079 136.794 51.805 136.794ZM54.5696 136.914H55.2326V137.631C55.2869 137.491 55.42 137.322 55.632 137.123C55.844 136.921 56.0882 136.821 56.3648 136.821C56.3778 136.821 56.3997 136.822 56.4307 136.825C56.4618 136.827 56.5148 136.832 56.5897 136.84V137.577C56.5484 137.569 56.5096 137.564 56.4734 137.561C56.4398 137.559 56.4023 137.557 56.361 137.557C56.0094 137.557 55.7393 137.671 55.5506 137.899C55.3619 138.123 55.2675 138.383 55.2675 138.678V141.066H54.5696V136.914Z" fill="white"/>
<circle cx="83.6867" cy="78.007" r="40.3216" stroke="white" stroke-width="1.58955"/>
<path d="M68.4248 19.0737H69.0929V19.7247H68.4248V19.0737Z" fill="white"/>
<path d="M71.4313 19.0737H72.0994V19.7247H71.4313V19.0737Z" fill="white"/>
<path d="M70.4291 19.0737H71.0972V19.7247H70.4291V19.0737Z" fill="white"/>
<path d="M69.4269 19.0737L70.0951 19.0737V19.7247H69.4269V19.0737Z" fill="white"/>
<path d="M37.6914 19.0737H38.3595V19.7247H37.6914V19.0737Z" fill="white"/>
<path d="M62.189 19.0737H62.8571V19.7247H62.189V19.0737Z" fill="white"/>
<path d="M49.3834 19.0737H50.0516V19.7247H49.3834V19.0737Z" fill="white"/>
<path d="M53.3921 19.0737H54.0603V19.7247H53.3921V19.0737Z" fill="white"/>
<path d="M55.3965 19.0737H56.0646V19.7247H55.3965V19.0737Z" fill="white"/>
<path d="M59.8506 19.0737H60.5187V19.7247H59.8506V19.0737Z" fill="white"/>
<path d="M43.4818 19.0737H44.1499V19.7247H43.4818V19.0737Z" fill="white"/>
<path d="M37.6914 18.0973H38.3595V18.7482H37.6914V18.0973Z" fill="white"/>
<path d="M62.189 18.0973H62.8571V18.7482H62.189V18.0973Z" fill="white"/>
<path d="M49.3834 18.0973H50.0516V18.7482H49.3834V18.0973Z" fill="white"/>
<path d="M53.3921 18.0973H54.0603V18.7482H53.3921V18.0973Z" fill="white"/>
<path d="M55.3965 18.0973H56.0646V18.7482H55.3965V18.0973Z" fill="white"/>
<path d="M59.8506 18.0973H60.5187V18.7482H59.8506V18.0973Z" fill="white"/>
<path d="M43.4818 18.0973H44.1499V18.7482H43.4818V18.0973Z" fill="white"/>
<path d="M37.6914 17.1208H38.3595V17.7718H37.6914V17.1208Z" fill="white"/>
<path d="M68.4248 17.1208H69.0929V17.7718H68.4248V17.1208Z" fill="white"/>
<path d="M62.189 17.1208H62.8571V17.7718H62.189V17.1208Z" fill="white"/>
<path d="M49.3834 17.1208L50.0516 17.1208V17.7718H49.3834V17.1208Z" fill="white"/>
<path d="M53.3921 17.1208H54.0603V17.7718H53.3921V17.1208Z" fill="white"/>
<path d="M55.3965 17.1208H56.0646V17.7718H55.3965V17.1208Z" fill="white"/>
<path d="M59.8506 17.1208H60.5187V17.7718H59.8506V17.1208Z" fill="white"/>
<path d="M43.4818 17.1208H44.1499V17.7718H43.4818V17.1208Z" fill="white"/>
<path d="M38.6936 17.1208H39.3617V17.7718H38.6936V17.1208Z" fill="white"/>
<path d="M69.4269 17.1208H70.0951V17.7718L69.4269 17.7718V17.1208Z" fill="white"/>
<path d="M63.1912 17.1208H63.8593V17.7718H63.1912V17.1208Z" fill="white"/>
<path d="M63.1912 19.0737H63.8593V19.7247H63.1912V19.0737Z" fill="white"/>
<path d="M50.3856 17.1208H51.0537V17.7718H50.3856V17.1208Z" fill="white"/>
<path d="M44.4839 17.1208H45.152V17.7718H44.4839V17.1208Z" fill="white"/>
<path d="M39.6958 17.1208H40.3639V17.7718H39.6958V17.1208Z" fill="white"/>
<path d="M70.4291 17.1208H71.0972V17.7718H70.4291V17.1208Z" fill="white"/>
<path d="M64.1934 17.1208H64.8615V17.7718H64.1934V17.1208Z" fill="white"/>
<path d="M64.1934 19.0737H64.8615V19.7247H64.1934V19.0737Z" fill="white"/>
<path d="M51.3878 17.1208H52.0559V17.7718H51.3878V17.1208Z" fill="white"/>
<path d="M45.4861 17.1208H46.1542V17.7718H45.4861V17.1208Z" fill="white"/>
<path d="M40.5866 17.1208H41.2547V17.7718H40.5866V17.1208Z" fill="white"/>
<path d="M41.4774 17.1208H42.1455V17.7718H41.4774V17.1208Z" fill="white"/>
<path d="M71.4313 17.1208H72.0994V17.7718H71.4313V17.1208Z" fill="white"/>
<path d="M65.1955 17.1208H65.8637V17.7718H65.1955V17.1208Z" fill="white"/>
<path d="M66.1977 17.1208H66.8658V17.7718H66.1977V17.1208Z" fill="white"/>
<path d="M65.1955 19.0737H65.8637V19.7247H65.1955V19.0737Z" fill="white"/>
<path d="M66.1977 19.0737H66.8658V19.7247H66.1977V19.0737Z" fill="white"/>
<path d="M52.39 17.1208H53.0581V17.7718H52.39V17.1208Z" fill="white"/>
<path d="M46.4883 17.1208H47.1564V17.7718H46.4883V17.1208Z" fill="white"/>
<path d="M47.3791 18.0973H48.0472V18.7482H47.3791V18.0973Z" fill="white"/>
<path d="M47.3791 19.0737H48.0472V19.7247H47.3791V19.0737Z" fill="white"/>
<path d="M37.6914 16.1444H38.3595V16.7954H37.6914V16.1444Z" fill="white"/>
<path d="M67.7567 16.1444H68.4248V16.7954H67.7567V16.1444Z" fill="white"/>
<path d="M62.189 16.1444H62.8571V16.7954H62.189V16.1444Z" fill="white"/>
<path d="M49.3834 16.1444H50.0516V16.7954L49.3834 16.7954V16.1444Z" fill="white"/>
<path d="M53.3921 16.1444H54.0603V16.7954H53.3921V16.1444Z" fill="white"/>
<path d="M55.3965 16.1444H56.0646V16.7954H55.3965V16.1444Z" fill="white"/>
<path d="M59.8506 16.1444H60.5187V16.7954H59.8506V16.1444Z" fill="white"/>
<path d="M43.4818 16.1444H44.1499V16.7954H43.4818V16.1444Z" fill="white"/>
<path d="M37.6914 15.168H38.3595V15.8189H37.6914V15.168Z" fill="white"/>
<path d="M68.4248 15.168H69.0929V15.8189H68.4248V15.168Z" fill="white"/>
<path d="M62.189 15.168H62.8571V15.8189H62.189V15.168Z" fill="white"/>
<path d="M55.3965 15.168H56.0646V15.8189H55.3965V15.168Z" fill="white"/>
<path d="M56.51 15.6019H57.1781V16.2529H56.51V15.6019Z" fill="white"/>
<path d="M57.6236 16.2529H58.2917V16.9039H57.6236V16.2529Z" fill="white"/>
<path d="M58.7371 15.6019H59.4052V16.2529H58.7371V15.6019Z" fill="white"/>
<path d="M59.8506 15.168H60.5187V15.8189H59.8506V15.168Z" fill="white"/>
<path d="M43.4818 15.168H44.1499V15.8189L43.4818 15.8189V15.168Z" fill="white"/>
<path d="M38.6936 15.168H39.3617V15.8189H38.6936V15.168Z" fill="white"/>
<path d="M69.4269 15.168H70.0951V15.8189H69.4269V15.168Z" fill="white"/>
<path d="M63.1912 15.168H63.8593V15.8189H63.1912V15.168Z" fill="white"/>
<path d="M50.3856 15.168H51.0537V15.8189H50.3856V15.168Z" fill="white"/>
<path d="M44.4839 15.168H45.152V15.8189H44.4839V15.168Z" fill="white"/>
<path d="M39.6958 15.168H40.3639V15.8189H39.6958V15.168Z" fill="white"/>
<path d="M70.4291 15.168H71.0972V15.8189H70.4291V15.168Z" fill="white"/>
<path d="M64.1934 15.168H64.8615V15.8189H64.1934V15.168Z" fill="white"/>
<path d="M51.3878 15.168H52.0559V15.8189H51.3878V15.168Z" fill="white"/>
<path d="M45.4861 15.168H46.1542V15.8189H45.4861V15.168Z" fill="white"/>
<path d="M40.5866 15.168H41.2547V15.8189H40.5866V15.168Z" fill="white"/>
<path d="M41.4774 15.168H42.1455V15.8189H41.4774V15.168Z" fill="white"/>
<path d="M71.4313 15.168H72.0994V15.8189H71.4313V15.168Z" fill="white"/>
<path d="M65.1955 15.168L65.8637 15.168V15.8189L65.1955 15.8189V15.168Z" fill="white"/>
<path d="M66.1977 15.168H66.8658V15.8189H66.1977V15.168Z" fill="white"/>
<path d="M52.39 15.168H53.0581V15.8189H52.39V15.168Z" fill="white"/>
<path d="M46.4883 15.168H47.1564V15.8189H46.4883V15.168Z" fill="white"/>
<path d="M47.4904 16.1444H48.1586V16.7954H47.4904V16.1444Z" fill="white"/>
<path d="M72.0994 18.0973H72.7675V18.7482H72.0994V18.0973Z" fill="white"/>
<defs>
<linearGradient id="paint0_linear_3746_440" x1="101.104" y1="0.690265" x2="0.484367" y2="180.431" gradientUnits="userSpaceOnUse">
<stop stop-color="#0029BB"/>
<stop offset="1" stop-color="#046AB3"/>
</linearGradient>
<linearGradient id="paint1_linear_3746_440" x1="125.963" y1="0.963702" x2="25.3437" y2="180.704" gradientUnits="userSpaceOnUse">
<stop stop-color="#0029BB"/>
<stop offset="1" stop-color="#046AB3"/>
</linearGradient>
</defs>
</svg>
