<svg width="140" height="155" viewBox="0 0 140 155" fill="none" xmlns="http://www.w3.org/2000/svg">
<path d="M0.769531 6.19649C0.769531 3.02883 3.33743 0.460938 6.50509 0.460938H112.103C115.271 0.460938 117.839 3.02883 117.839 6.19649V149.203C117.839 152.371 115.271 154.939 112.103 154.939H6.50509C3.33743 154.939 0.769531 152.371 0.769531 149.203V6.19649Z" fill="url(#paint0_linear_3746_445)"/>
<path d="M16.1707 135.064C16.8942 135.064 17.4556 135.255 17.855 135.636C18.2543 136.017 18.476 136.45 18.5201 136.935H17.7655C17.6799 136.567 17.5088 136.275 17.2521 136.06C16.9979 135.845 16.6401 135.737 16.1785 135.737C15.6158 135.737 15.1607 135.935 14.8133 136.332C14.4684 136.726 14.2959 137.332 14.2959 138.149C14.2959 138.818 14.4515 139.361 14.7627 139.778C15.0765 140.193 15.5432 140.401 16.163 140.401C16.7335 140.401 17.1678 140.182 17.466 139.743C17.6242 139.513 17.7422 139.209 17.82 138.833H18.5746C18.5071 139.435 18.2841 139.939 17.9055 140.346C17.4517 140.836 16.8398 141.081 16.0696 141.081C15.4058 141.081 14.8483 140.88 14.3971 140.479C13.8032 139.947 13.5063 139.126 13.5063 138.016C13.5063 137.174 13.7293 136.483 14.1753 135.943C14.6577 135.357 15.3228 135.064 16.1707 135.064ZM21.0795 140.482C21.5437 140.482 21.8613 140.307 22.0325 139.957C22.2062 139.605 22.2931 139.213 22.2931 138.783C22.2931 138.394 22.2309 138.077 22.1064 137.834C21.9093 137.45 21.5696 137.258 21.0873 137.258C20.6594 137.258 20.3483 137.421 20.1538 137.748C19.9593 138.075 19.862 138.469 19.862 138.93C19.862 139.374 19.9593 139.743 20.1538 140.039C20.3483 140.335 20.6568 140.482 21.0795 140.482ZM21.1067 136.647C21.6435 136.647 22.0973 136.826 22.4681 137.184C22.8389 137.542 23.0243 138.068 23.0243 138.763C23.0243 139.435 22.861 139.99 22.5342 140.428C22.2075 140.866 21.7006 141.085 21.0134 141.085C20.4403 141.085 19.9852 140.892 19.6481 140.506C19.311 140.117 19.1425 139.596 19.1425 138.942C19.1425 138.242 19.3201 137.684 19.6753 137.27C20.0306 136.855 20.5077 136.647 21.1067 136.647ZM23.8801 135.22H24.5802V140.934H23.8801V135.22ZM27.2874 140.482C27.7516 140.482 28.0693 140.307 28.2404 139.957C28.4141 139.605 28.501 139.213 28.501 138.783C28.501 138.394 28.4388 138.077 28.3143 137.834C28.1172 137.45 27.7775 137.258 27.2952 137.258C26.8673 137.258 26.5562 137.421 26.3617 137.748C26.1672 138.075 26.07 138.469 26.07 138.93C26.07 139.374 26.1672 139.743 26.3617 140.039C26.5562 140.335 26.8648 140.482 27.2874 140.482ZM27.3147 136.647C27.8514 136.647 28.3052 136.826 28.676 137.184C29.0469 137.542 29.2323 138.068 29.2323 138.763C29.2323 139.435 29.0689 139.99 28.7422 140.428C28.4154 140.866 27.9085 141.085 27.2213 141.085C26.6482 141.085 26.1931 140.892 25.856 140.506C25.5189 140.117 25.3504 139.596 25.3504 138.942C25.3504 138.242 25.528 137.684 25.8833 137.27C26.2385 136.855 26.7156 136.647 27.3147 136.647ZM30.088 136.768H30.7531V137.487C30.8076 137.347 30.9411 137.177 31.1538 136.978C31.3664 136.776 31.6114 136.674 31.8889 136.674C31.9019 136.674 31.9239 136.676 31.955 136.678C31.9862 136.681 32.0393 136.686 32.1145 136.694V137.433C32.073 137.425 32.0341 137.42 31.9978 137.417C31.9641 137.415 31.9265 137.413 31.885 137.413C31.5324 137.413 31.2614 137.528 31.0721 137.756C30.8828 137.981 30.7881 138.242 30.7881 138.538V140.934H30.088V136.768Z" fill="white"/>
<circle cx="59.2976" cy="77.7" r="40.4496" stroke="white" stroke-width="1.5946"/>
<path d="M43.9871 18.5783H44.6574V19.2313H43.9871V18.5783Z" fill="white"/>
<path d="M47.0032 18.5783H47.6734V19.2313H47.0032V18.5783Z" fill="white"/>
<path d="M45.9978 18.5783H46.6681V19.2313H45.9978V18.5783Z" fill="white"/>
<path d="M44.9925 18.5783H45.6627V19.2313H44.9925V18.5783Z" fill="white"/>
<path d="M13.1562 18.5783H13.8265V19.2313H13.1562V18.5783Z" fill="white"/>
<path d="M37.7316 18.5783H38.4018V19.2313H37.7316V18.5783Z" fill="white"/>
<path d="M24.8854 18.5783H25.5556V19.2313H24.8854V18.5783Z" fill="white"/>
<path d="M28.9068 18.5783H29.577V19.2313H28.9068V18.5783Z" fill="white"/>
<path d="M30.9175 18.5783H31.5877V19.2313H30.9175V18.5783Z" fill="white"/>
<path d="M35.3857 18.5783H36.056V19.2313H35.3857V18.5783Z" fill="white"/>
<path d="M18.965 18.5783H19.6352V19.2313H18.965V18.5783Z" fill="white"/>
<path d="M13.1562 17.5988H13.8265V18.2518H13.1562V17.5988Z" fill="white"/>
<path d="M37.7316 17.5988H38.4018V18.2518H37.7316V17.5988Z" fill="white"/>
<path d="M24.8854 17.5988H25.5556V18.2518H24.8854V17.5988Z" fill="white"/>
<path d="M28.9068 17.5988H29.577V18.2518H28.9068V17.5988Z" fill="white"/>
<path d="M30.9175 17.5988H31.5877V18.2518H30.9175V17.5988Z" fill="white"/>
<path d="M35.3857 17.5988H36.056V18.2518H35.3857V17.5988Z" fill="white"/>
<path d="M18.965 17.5988H19.6352V18.2518H18.965V17.5988Z" fill="white"/>
<path d="M13.1562 16.6192H13.8265V17.2723H13.1562V16.6192Z" fill="white"/>
<path d="M43.9871 16.6192H44.6574V17.2723H43.9871V16.6192Z" fill="white"/>
<path d="M37.7316 16.6192H38.4018V17.2723H37.7316V16.6192Z" fill="white"/>
<path d="M24.8854 16.6192L25.5556 16.6192V17.2723H24.8854V16.6192Z" fill="white"/>
<path d="M28.9068 16.6192H29.577V17.2723H28.9068V16.6192Z" fill="white"/>
<path d="M30.9175 16.6192H31.5877V17.2723H30.9175V16.6192Z" fill="white"/>
<path d="M35.3857 16.6192H36.056V17.2723H35.3857V16.6192Z" fill="white"/>
<path d="M18.965 16.6192H19.6352V17.2723H18.965V16.6192Z" fill="white"/>
<path d="M14.1616 16.6192H14.8318V17.2723H14.1616V16.6192Z" fill="white"/>
<path d="M44.9925 16.6192L45.6627 16.6192V17.2723H44.9925V16.6192Z" fill="white"/>
<path d="M38.7369 16.6192H39.4072V17.2723H38.7369V16.6192Z" fill="white"/>
<path d="M38.7369 18.5783H39.4072V19.2313H38.7369V18.5783Z" fill="white"/>
<path d="M25.8907 16.6192H26.561V17.2723H25.8907V16.6192Z" fill="white"/>
<path d="M19.9703 16.6192H20.6406V17.2723H19.9703V16.6192Z" fill="white"/>
<path d="M15.167 16.6192H15.8372V17.2723H15.167V16.6192Z" fill="white"/>
<path d="M45.9978 16.6192H46.6681V17.2723H45.9978V16.6192Z" fill="white"/>
<path d="M39.7423 16.6192H40.4125V17.2723H39.7423V16.6192Z" fill="white"/>
<path d="M39.7423 18.5783H40.4125V19.2313H39.7423V18.5783Z" fill="white"/>
<path d="M26.8961 16.6192H27.5663V17.2723H26.8961V16.6192Z" fill="white"/>
<path d="M20.9757 16.6192H21.6459V17.2723H20.9757V16.6192Z" fill="white"/>
<path d="M16.0606 16.6192H16.7308V17.2723H16.0606V16.6192Z" fill="white"/>
<path d="M16.9543 16.6192H17.6245V17.2723H16.9543V16.6192Z" fill="white"/>
<path d="M47.0032 16.6192H47.6734V17.2723H47.0032V16.6192Z" fill="white"/>
<path d="M40.7476 16.6192H41.4179V17.2723H40.7476V16.6192Z" fill="white"/>
<path d="M41.753 16.6192H42.4232V17.2723H41.753V16.6192Z" fill="white"/>
<path d="M40.7476 18.5783H41.4179V19.2313H40.7476V18.5783Z" fill="white"/>
<path d="M41.753 18.5783H42.4232V19.2313H41.753V18.5783Z" fill="white"/>
<path d="M27.9014 16.6192H28.5717V17.2723H27.9014V16.6192Z" fill="white"/>
<path d="M21.981 16.6192H22.6513V17.2723H21.981V16.6192Z" fill="white"/>
<path d="M22.8747 17.5988H23.5449V18.2518H22.8747V17.5988Z" fill="white"/>
<path d="M22.8747 18.5783H23.5449V19.2313H22.8747V18.5783Z" fill="white"/>
<path d="M13.1562 15.6397H13.8265V16.2927H13.1562V15.6397Z" fill="white"/>
<path d="M43.3169 15.6397H43.9871V16.2927H43.3169V15.6397Z" fill="white"/>
<path d="M37.7316 15.6397H38.4018V16.2927H37.7316V15.6397Z" fill="white"/>
<path d="M24.8854 15.6397H25.5556V16.2927L24.8854 16.2927V15.6397Z" fill="white"/>
<path d="M28.9068 15.6397L29.577 15.6397V16.2927H28.9068V15.6397Z" fill="white"/>
<path d="M30.9175 15.6397H31.5877V16.2927H30.9175V15.6397Z" fill="white"/>
<path d="M35.3857 15.6397H36.056V16.2927H35.3857V15.6397Z" fill="white"/>
<path d="M18.965 15.6397L19.6352 15.6397V16.2927H18.965V15.6397Z" fill="white"/>
<path d="M13.1562 14.6602H13.8265V15.3132H13.1562V14.6602Z" fill="white"/>
<path d="M43.9871 14.6602H44.6574V15.3132H43.9871V14.6602Z" fill="white"/>
<path d="M37.7316 14.6602H38.4018V15.3132H37.7316V14.6602Z" fill="white"/>
<path d="M30.9175 14.6602H31.5877V15.3132H30.9175V14.6602Z" fill="white"/>
<path d="M32.0346 15.0955H32.7048V15.7485H32.0346V15.0955Z" fill="white"/>
<path d="M33.1516 15.7485H33.8219V16.4016H33.1516V15.7485Z" fill="white"/>
<path d="M34.2687 15.0955H34.9389V15.7485H34.2687V15.0955Z" fill="white"/>
<path d="M35.3857 14.6602H36.056V15.3132H35.3857V14.6602Z" fill="white"/>
<path d="M18.965 14.6602H19.6352V15.3132L18.965 15.3132V14.6602Z" fill="white"/>
<path d="M14.1616 14.6602H14.8318V15.3132H14.1616V14.6602Z" fill="white"/>
<path d="M44.9925 14.6602H45.6627V15.3132H44.9925V14.6602Z" fill="white"/>
<path d="M38.7369 14.6602H39.4072V15.3132H38.7369V14.6602Z" fill="white"/>
<path d="M25.8907 14.6602H26.561V15.3132H25.8907V14.6602Z" fill="white"/>
<path d="M19.9703 14.6602H20.6406V15.3132H19.9703V14.6602Z" fill="white"/>
<path d="M15.167 14.6602H15.8372V15.3132H15.167V14.6602Z" fill="white"/>
<path d="M45.9978 14.6602H46.6681V15.3132H45.9978V14.6602Z" fill="white"/>
<path d="M39.7423 14.6602H40.4125V15.3132H39.7423V14.6602Z" fill="white"/>
<path d="M26.8961 14.6602H27.5663V15.3132H26.8961V14.6602Z" fill="white"/>
<path d="M20.9757 14.6602H21.6459V15.3132H20.9757V14.6602Z" fill="white"/>
<path d="M16.0606 14.6602H16.7308V15.3132H16.0606V14.6602Z" fill="white"/>
<path d="M16.9543 14.6602H17.6245V15.3132H16.9543V14.6602Z" fill="white"/>
<path d="M47.0032 14.6602H47.6734V15.3132H47.0032V14.6602Z" fill="white"/>
<path d="M40.7476 14.6602L41.4179 14.6602V15.3132L40.7476 15.3132V14.6602Z" fill="white"/>
<path d="M41.753 14.6602H42.4232V15.3132H41.753V14.6602Z" fill="white"/>
<path d="M27.9014 14.6602H28.5717V15.3132H27.9014V14.6602Z" fill="white"/>
<path d="M21.981 14.6602H22.6513V15.3132H21.981V14.6602Z" fill="white"/>
<path d="M22.9864 15.6397H23.6566V16.2927H22.9864V15.6397Z" fill="white"/>
<path d="M47.6734 17.5988H48.3437V18.2518H47.6734V17.5988Z" fill="white"/>
<path d="M22 5.75495C22 2.57658 24.5766 0 27.755 0H133.71C136.888 0 139.465 2.57658 139.465 5.75495V149.245C139.465 152.423 136.888 155 133.71 155H27.755C24.5766 155 22 152.423 22 149.245V5.75495Z" fill="url(#paint1_linear_3746_445)"/>
<path d="M37.4505 135.04C38.1764 135.04 38.7397 135.232 39.1404 135.614C39.5411 135.997 39.7635 136.431 39.8078 136.918H39.0506C38.9648 136.548 38.793 136.255 38.5355 136.039C38.2805 135.823 37.9214 135.716 37.4583 135.716C36.8937 135.716 36.437 135.915 36.0884 136.313C35.7423 136.708 35.5693 137.316 35.5693 138.135C35.5693 138.807 35.7254 139.352 36.0376 139.771C36.3525 140.187 36.8208 140.395 37.4427 140.395C38.0151 140.395 38.4509 140.175 38.7501 139.735C38.9088 139.504 39.0272 139.199 39.1053 138.822H39.8624C39.7948 139.426 39.571 139.932 39.1911 140.34C38.7358 140.832 38.1218 141.078 37.349 141.078C36.6829 141.078 36.1235 140.876 35.6708 140.473C35.075 139.94 34.777 139.116 34.777 138.003C34.777 137.157 35.0008 136.464 35.4483 135.922C35.9323 135.334 36.5997 135.04 37.4505 135.04ZM42.3758 140.477C42.8416 140.477 43.1603 140.301 43.332 139.95C43.5064 139.596 43.5935 139.203 43.5935 138.771C43.5935 138.381 43.5311 138.064 43.4062 137.819C43.2084 137.434 42.8676 137.242 42.3836 137.242C41.9543 137.242 41.6421 137.405 41.447 137.733C41.2518 138.061 41.1543 138.457 41.1543 138.92C41.1543 139.365 41.2518 139.735 41.447 140.032C41.6421 140.329 41.9517 140.477 42.3758 140.477ZM42.4032 136.629C42.9417 136.629 43.3971 136.808 43.7691 137.167C44.1412 137.526 44.3272 138.055 44.3272 138.752C44.3272 139.426 44.1633 139.983 43.8355 140.422C43.5077 140.862 42.999 141.082 42.3095 141.082C41.7345 141.082 41.2778 140.888 40.9396 140.5C40.6014 140.11 40.4322 139.587 40.4322 138.931C40.4322 138.229 40.6105 137.67 40.9669 137.253C41.3234 136.837 41.8021 136.629 42.4032 136.629ZM45.1859 135.196H45.8884V140.93H45.1859V135.196ZM48.6047 140.477C49.0705 140.477 49.3892 140.301 49.5609 139.95C49.7353 139.596 49.8224 139.203 49.8224 138.771C49.8224 138.381 49.76 138.064 49.6351 137.819C49.4373 137.434 49.0965 137.242 48.6126 137.242C48.1832 137.242 47.871 137.405 47.6759 137.733C47.4807 138.061 47.3832 138.457 47.3832 138.92C47.3832 139.365 47.4807 139.735 47.6759 140.032C47.871 140.329 48.1806 140.477 48.6047 140.477ZM48.6321 136.629C49.1707 136.629 49.626 136.808 49.9981 137.167C50.3701 137.526 50.5562 138.055 50.5562 138.752C50.5562 139.426 50.3922 139.983 50.0644 140.422C49.7366 140.862 49.2279 141.082 48.5384 141.082C47.9634 141.082 47.5068 140.888 47.1685 140.5C46.8303 140.11 46.6611 139.587 46.6611 138.931C46.6611 138.229 46.8394 137.67 47.1958 137.253C47.5523 136.837 48.031 136.629 48.6321 136.629ZM51.4148 136.75H52.0822V137.472C52.1368 137.331 52.2708 137.161 52.4842 136.961C52.6975 136.758 52.9434 136.656 53.2218 136.656C53.2348 136.656 53.2569 136.657 53.2881 136.66C53.3194 136.663 53.3727 136.668 53.4482 136.676V137.417C53.4065 137.409 53.3675 137.404 53.3311 137.402C53.2972 137.399 53.2595 137.398 53.2179 137.398C52.864 137.398 52.5921 137.512 52.4022 137.741C52.2123 137.967 52.1173 138.229 52.1173 138.526V140.93H51.4148V136.75Z" fill="white"/>
<circle cx="80.7262" cy="77.4996" r="40.5863" stroke="white" stroke-width="1.59999"/>
<path d="M65.3609 18.1775H66.0334V18.8327H65.3609V18.1775Z" fill="white"/>
<path d="M68.3872 18.1775H69.0597V18.8327H68.3872V18.1775Z" fill="white"/>
<path d="M67.3784 18.1775H68.0509V18.8327H67.3784V18.1775Z" fill="white"/>
<path d="M66.3697 18.1775H67.0422V18.8327H66.3697V18.1775Z" fill="white"/>
<path d="M34.4258 18.1775H35.0983V18.8327H34.4258V18.1775Z" fill="white"/>
<path d="M59.0842 18.1775H59.7567V18.8327H59.0842V18.1775Z" fill="white"/>
<path d="M46.1946 18.1775L46.8671 18.1775V18.8327H46.1946V18.1775Z" fill="white"/>
<path d="M50.2296 18.1775H50.9021V18.8327H50.2296V18.1775Z" fill="white"/>
<path d="M52.2471 18.1775H52.9196V18.8327H52.2471V18.1775Z" fill="white"/>
<path d="M56.7304 18.1775H57.403V18.8327H56.7304V18.1775Z" fill="white"/>
<path d="M40.2541 18.1775H40.9266V18.8327H40.2541V18.1775Z" fill="white"/>
<path d="M34.4258 17.1946H35.0983V17.8499H34.4258V17.1946Z" fill="white"/>
<path d="M59.0842 17.1946H59.7567V17.8499H59.0842V17.1946Z" fill="white"/>
<path d="M46.1946 17.1946L46.8671 17.1946V17.8499L46.1946 17.8499V17.1946Z" fill="white"/>
<path d="M50.2296 17.1946H50.9021V17.8499H50.2296V17.1946Z" fill="white"/>
<path d="M52.2471 17.1946H52.9196V17.8499H52.2471V17.1946Z" fill="white"/>
<path d="M56.7304 17.1946H57.403V17.8499H56.7304V17.1946Z" fill="white"/>
<path d="M40.2541 17.1946H40.9266V17.8499H40.2541V17.1946Z" fill="white"/>
<path d="M34.4258 16.2118H35.0983V16.867H34.4258V16.2118Z" fill="white"/>
<path d="M65.3609 16.2118H66.0334V16.867H65.3609V16.2118Z" fill="white"/>
<path d="M59.0842 16.2118H59.7567V16.867H59.0842V16.2118Z" fill="white"/>
<path d="M46.1946 16.2118H46.8671V16.867L46.1946 16.867V16.2118Z" fill="white"/>
<path d="M50.2296 16.2118H50.9021V16.867H50.2296V16.2118Z" fill="white"/>
<path d="M52.2471 16.2118H52.9196V16.867H52.2471V16.2118Z" fill="white"/>
<path d="M56.7304 16.2118H57.403V16.867H56.7304V16.2118Z" fill="white"/>
<path d="M40.2541 16.2118H40.9266V16.867H40.2541V16.2118Z" fill="white"/>
<path d="M35.4345 16.2118H36.107V16.867H35.4345V16.2118Z" fill="white"/>
<path d="M66.3697 16.2118L67.0422 16.2118V16.867H66.3697V16.2118Z" fill="white"/>
<path d="M60.093 16.2118H60.7655V16.867H60.093V16.2118Z" fill="white"/>
<path d="M60.093 18.1775H60.7655V18.8327H60.093V18.1775Z" fill="white"/>
<path d="M47.2033 16.2118H47.8758V16.867H47.2033V16.2118Z" fill="white"/>
<path d="M41.2629 16.2118H41.9354V16.867H41.2629V16.2118Z" fill="white"/>
<path d="M36.4433 16.2118H37.1158V16.867H36.4433V16.2118Z" fill="white"/>
<path d="M67.3784 16.2118H68.0509V16.867H67.3784V16.2118Z" fill="white"/>
<path d="M61.1017 16.2118H61.7742V16.867H61.1017V16.2118Z" fill="white"/>
<path d="M61.1017 18.1775H61.7742V18.8327H61.1017V18.1775Z" fill="white"/>
<path d="M48.2121 16.2118H48.8846V16.867H48.2121V16.2118Z" fill="white"/>
<path d="M42.2716 16.2118H42.9441V16.867H42.2716V16.2118Z" fill="white"/>
<path d="M37.34 16.2118H38.0125V16.867H37.34V16.2118Z" fill="white"/>
<path d="M38.2366 16.2118H38.9091V16.867H38.2366V16.2118Z" fill="white"/>
<path d="M68.3872 16.2118H69.0597V16.867H68.3872V16.2118Z" fill="white"/>
<path d="M62.1105 16.2118H62.783V16.867H62.1105V16.2118Z" fill="white"/>
<path d="M63.1192 16.2118H63.7917V16.867H63.1192V16.2118Z" fill="white"/>
<path d="M62.1105 18.1775H62.783V18.8327H62.1105V18.1775Z" fill="white"/>
<path d="M63.1192 18.1775H63.7917V18.8327H63.1192V18.1775Z" fill="white"/>
<path d="M49.2208 16.2118H49.8933V16.867H49.2208V16.2118Z" fill="white"/>
<path d="M43.2804 16.2118H43.9529V16.867H43.2804V16.2118Z" fill="white"/>
<path d="M44.1771 17.1946H44.8496V17.8499H44.1771V17.1946Z" fill="white"/>
<path d="M44.1771 18.1775H44.8496V18.8327H44.1771V18.1775Z" fill="white"/>
<path d="M34.4258 15.2289H35.0983V15.8842H34.4258V15.2289Z" fill="white"/>
<path d="M64.6884 15.2289H65.3609V15.8842H64.6884V15.2289Z" fill="white"/>
<path d="M59.0842 15.2289H59.7567V15.8842H59.0842V15.2289Z" fill="white"/>
<path d="M46.1946 15.2289H46.8671V15.8842H46.1946V15.2289Z" fill="white"/>
<path d="M50.2296 15.2289L50.9021 15.2289V15.8842L50.2296 15.8842V15.2289Z" fill="white"/>
<path d="M52.2471 15.2289H52.9196V15.8842H52.2471V15.2289Z" fill="white"/>
<path d="M56.7304 15.2289H57.403V15.8842H56.7304V15.2289Z" fill="white"/>
<path d="M40.2541 15.2289L40.9266 15.2289V15.8842L40.2541 15.8842V15.2289Z" fill="white"/>
<path d="M34.4258 14.2461H35.0983V14.9013H34.4258V14.2461Z" fill="white"/>
<path d="M65.3609 14.2461H66.0334V14.9013H65.3609V14.2461Z" fill="white"/>
<path d="M59.0842 14.2461H59.7567V14.9013H59.0842V14.2461Z" fill="white"/>
<path d="M52.2471 14.2461H52.9196V14.9013H52.2471V14.2461Z" fill="white"/>
<path d="M53.3679 14.6829H54.0404V15.3381H53.3679V14.6829Z" fill="white"/>
<path d="M54.4888 15.3381H55.1613V15.9934H54.4888V15.3381Z" fill="white"/>
<path d="M55.6096 14.6829H56.2821V15.3381H55.6096V14.6829Z" fill="white"/>
<path d="M56.7304 14.2461H57.403V14.9013H56.7304V14.2461Z" fill="white"/>
<path d="M40.2541 14.2461H40.9266V14.9013L40.2541 14.9013V14.2461Z" fill="white"/>
<path d="M35.4345 14.2461H36.107V14.9013H35.4345V14.2461Z" fill="white"/>
<path d="M66.3697 14.2461H67.0422V14.9013H66.3697V14.2461Z" fill="white"/>
<path d="M60.093 14.2461H60.7655V14.9013H60.093V14.2461Z" fill="white"/>
<path d="M47.2033 14.2461H47.8758V14.9013H47.2033V14.2461Z" fill="white"/>
<path d="M41.2629 14.2461H41.9354V14.9013H41.2629V14.2461Z" fill="white"/>
<path d="M36.4433 14.2461H37.1158V14.9013H36.4433V14.2461Z" fill="white"/>
<path d="M67.3784 14.2461H68.0509V14.9013H67.3784V14.2461Z" fill="white"/>
<path d="M61.1017 14.2461H61.7742V14.9013H61.1017V14.2461Z" fill="white"/>
<path d="M48.2121 14.2461H48.8846V14.9013H48.2121V14.2461Z" fill="white"/>
<path d="M42.2716 14.2461H42.9441V14.9013H42.2716V14.2461Z" fill="white"/>
<path d="M37.34 14.2461H38.0125V14.9013H37.34V14.2461Z" fill="white"/>
<path d="M38.2366 14.2461H38.9091V14.9013H38.2366V14.2461Z" fill="white"/>
<path d="M68.3872 14.2461H69.0597V14.9013H68.3872V14.2461Z" fill="white"/>
<path d="M62.1105 14.2461H62.783V14.9013L62.1105 14.9013V14.2461Z" fill="white"/>
<path d="M63.1192 14.2461H63.7917V14.9013H63.1192V14.2461Z" fill="white"/>
<path d="M49.2208 14.2461H49.8933V14.9013H49.2208V14.2461Z" fill="white"/>
<path d="M43.2804 14.2461H43.9529V14.9013H43.2804V14.2461Z" fill="white"/>
<path d="M44.2892 15.2289H44.9617V15.8842H44.2892V15.2289Z" fill="white"/>
<path d="M69.0597 17.1946H69.7322V17.8499H69.0597V17.1946Z" fill="white"/>
<defs>
<linearGradient id="paint0_linear_3746_445" x1="101.708" y1="0.412769" x2="0.76954" y2="180.724" gradientUnits="userSpaceOnUse">
<stop stop-color="#E69718"/>
<stop offset="1" stop-color="#F0D355"/>
</linearGradient>
<linearGradient id="paint1_linear_3746_445" x1="123.28" y1="-0.0483317" x2="22" y2="180.872" gradientUnits="userSpaceOnUse">
<stop stop-color="#0029BB"/>
<stop offset="1" stop-color="#046AB3"/>
</linearGradient>
</defs>
</svg>
