<svg width="155" height="160" viewBox="0 0 155 160" fill="none" xmlns="http://www.w3.org/2000/svg">
<path d="M0.460938 12.9697C0.460938 9.97047 2.89233 7.53906 5.89162 7.53906H105.876C108.876 7.53906 111.307 9.97046 111.307 12.9697V148.375C111.307 151.374 108.876 153.805 105.876 153.805H5.89162C2.89233 153.805 0.460938 151.374 0.460938 148.375V12.9697Z" fill="url(#paint0_linear_2734_320)"/>
<path d="M15.0418 135.36C15.7268 135.36 16.2583 135.541 16.6365 135.902C17.0146 136.263 17.2245 136.673 17.2662 137.132H16.5518C16.4707 136.783 16.3087 136.507 16.0656 136.303C15.825 136.099 15.4862 135.998 15.0491 135.998C14.5163 135.998 14.0854 136.185 13.7564 136.561C13.4299 136.934 13.2666 137.508 13.2666 138.281C13.2666 138.914 13.4139 139.429 13.7085 139.824C14.0056 140.217 14.4476 140.413 15.0344 140.413C15.5746 140.413 15.9858 140.206 16.2682 139.791C16.4179 139.572 16.5297 139.285 16.6033 138.929H17.3178C17.254 139.499 17.0428 139.976 16.6843 140.362C16.2547 140.826 15.6752 141.058 14.946 141.058C14.3175 141.058 13.7896 140.868 13.3623 140.487C12.8001 139.984 12.519 139.207 12.519 138.156C12.519 137.358 12.7301 136.703 13.1524 136.193C13.6091 135.638 14.2389 135.36 15.0418 135.36ZM19.6896 140.491C20.1291 140.491 20.4299 140.325 20.5919 139.994C20.7564 139.66 20.8387 139.289 20.8387 138.881C20.8387 138.513 20.7797 138.213 20.6619 137.983C20.4753 137.619 20.1536 137.438 19.697 137.438C19.2918 137.438 18.9972 137.592 18.8131 137.902C18.6289 138.211 18.5368 138.584 18.5368 139.021C18.5368 139.441 18.6289 139.791 18.8131 140.071C18.9972 140.351 19.2894 140.491 19.6896 140.491ZM19.7154 136.859C20.2236 136.859 20.6533 137.029 21.0044 137.368C21.3555 137.706 21.5311 138.205 21.5311 138.863C21.5311 139.499 21.3764 140.024 21.067 140.439C20.7576 140.854 20.2776 141.062 19.627 141.062C19.0844 141.062 18.6535 140.879 18.3343 140.513C18.0151 140.145 17.8555 139.651 17.8555 139.032C17.8555 138.369 18.0237 137.842 18.3601 137.449C18.6964 137.056 19.1482 136.859 19.7154 136.859ZM22.3413 135.508H23.0042V140.918H22.3413V135.508ZM25.5675 140.491C26.007 140.491 26.3078 140.325 26.4698 139.994C26.6343 139.66 26.7166 139.289 26.7166 138.881C26.7166 138.513 26.6577 138.213 26.5398 137.983C26.3532 137.619 26.0316 137.438 25.5749 137.438C25.1698 137.438 24.8751 137.592 24.691 137.902C24.5068 138.211 24.4148 138.584 24.4148 139.021C24.4148 139.441 24.5068 139.791 24.691 140.071C24.8751 140.351 25.1673 140.491 25.5675 140.491ZM25.5933 136.859C26.1015 136.859 26.5312 137.029 26.8823 137.368C27.2334 137.706 27.409 138.205 27.409 138.863C27.409 139.499 27.2543 140.024 26.9449 140.439C26.6356 140.854 26.1556 141.062 25.5049 141.062C24.9623 141.062 24.5314 140.879 24.2122 140.513C23.893 140.145 23.7334 139.651 23.7334 139.032C23.7334 138.369 23.9016 137.842 24.238 137.449C24.5744 137.056 25.0261 136.859 25.5933 136.859ZM28.2192 136.974H28.849V137.655C28.9006 137.522 29.027 137.362 29.2283 137.172C29.4297 136.981 29.6617 136.885 29.9244 136.885C29.9367 136.885 29.9576 136.886 29.987 136.889C30.0165 136.891 30.0668 136.896 30.138 136.904V137.603C30.0987 137.596 30.0619 137.591 30.0275 137.589C29.9956 137.586 29.96 137.585 29.9207 137.585C29.5868 137.585 29.3302 137.693 29.151 137.909C28.9718 138.123 28.8821 138.369 28.8821 138.649V140.918H28.2192V136.974Z" fill="white"/>
<circle cx="55.8708" cy="80.6715" r="38.2994" stroke="white" stroke-width="1.50983"/>
<path d="M41.3795 24.6903H42.0141V25.3087H41.3795V24.6903Z" fill="white"/>
<path d="M44.2353 24.6903H44.8699V25.3087H44.2353V24.6903Z" fill="white"/>
<path d="M43.2834 24.6903H43.918V25.3087H43.2834V24.6903Z" fill="white"/>
<path d="M42.3314 24.6903H42.966V25.3087L42.3314 25.3087V24.6903Z" fill="white"/>
<path d="M12.1875 24.6903H12.8221V25.3087H12.1875V24.6903Z" fill="white"/>
<path d="M35.4565 24.6903H36.0911V25.3087H35.4565V24.6903Z" fill="white"/>
<path d="M23.2932 24.6903H23.9278V25.3087H23.2932V24.6903Z" fill="white"/>
<path d="M27.1008 24.6903H27.7354V25.3087H27.1008V24.6903Z" fill="white"/>
<path d="M29.0046 24.6903H29.6393V25.3087H29.0046V24.6903Z" fill="white"/>
<path d="M33.2354 24.6903H33.87V25.3087H33.2354V24.6903Z" fill="white"/>
<path d="M17.6874 24.6903H18.3221V25.3087H17.6874V24.6903Z" fill="white"/>
<path d="M12.1875 23.7629H12.8221V24.3812H12.1875V23.7629Z" fill="white"/>
<path d="M35.4565 23.7629H36.0911V24.3812H35.4565V23.7629Z" fill="white"/>
<path d="M23.2932 23.7629H23.9278V24.3812H23.2932V23.7629Z" fill="white"/>
<path d="M27.1008 23.7629H27.7354V24.3812H27.1008V23.7629Z" fill="white"/>
<path d="M29.0046 23.7629H29.6393V24.3812H29.0046V23.7629Z" fill="white"/>
<path d="M33.2354 23.7629H33.87V24.3812H33.2354V23.7629Z" fill="white"/>
<path d="M17.6874 23.7629H18.3221V24.3812H17.6874V23.7629Z" fill="white"/>
<path d="M12.1875 22.8354H12.8221V23.4537H12.1875V22.8354Z" fill="white"/>
<path d="M41.3795 22.8354H42.0141V23.4537H41.3795V22.8354Z" fill="white"/>
<path d="M35.4565 22.8354H36.0911V23.4537H35.4565V22.8354Z" fill="white"/>
<path d="M23.2932 22.8354L23.9278 22.8354V23.4537H23.2932V22.8354Z" fill="white"/>
<path d="M27.1008 22.8354H27.7354V23.4537H27.1008V22.8354Z" fill="white"/>
<path d="M29.0046 22.8354H29.6393V23.4537H29.0046V22.8354Z" fill="white"/>
<path d="M33.2354 22.8354H33.87V23.4537H33.2354V22.8354Z" fill="white"/>
<path d="M17.6874 22.8354H18.3221V23.4537H17.6874V22.8354Z" fill="white"/>
<path d="M13.1394 22.8354H13.774V23.4537H13.1394V22.8354Z" fill="white"/>
<path d="M42.3314 22.8354H42.966V23.4537H42.3314V22.8354Z" fill="white"/>
<path d="M36.4084 22.8354H37.043V23.4537H36.4084V22.8354Z" fill="white"/>
<path d="M36.4084 24.6903H37.043V25.3087H36.4084V24.6903Z" fill="white"/>
<path d="M24.2451 22.8354H24.8797V23.4537L24.2451 23.4537V22.8354Z" fill="white"/>
<path d="M18.6394 22.8354H19.274V23.4537H18.6394V22.8354Z" fill="white"/>
<path d="M14.0913 22.8354H14.7259V23.4537H14.0913V22.8354Z" fill="white"/>
<path d="M43.2834 22.8354H43.918V23.4537H43.2834V22.8354Z" fill="white"/>
<path d="M37.3603 22.8354H37.9949V23.4537H37.3603V22.8354Z" fill="white"/>
<path d="M37.3603 24.6903H37.9949V25.3087H37.3603V24.6903Z" fill="white"/>
<path d="M25.197 22.8354H25.8316V23.4537H25.197V22.8354Z" fill="white"/>
<path d="M19.5913 22.8354H20.2259V23.4537H19.5913V22.8354Z" fill="white"/>
<path d="M14.9375 22.8354H15.5721V23.4537H14.9375V22.8354Z" fill="white"/>
<path d="M15.7836 22.8354H16.4182V23.4537H15.7836V22.8354Z" fill="white"/>
<path d="M44.2353 22.8354L44.8699 22.8354V23.4537H44.2353V22.8354Z" fill="white"/>
<path d="M38.3122 22.8354H38.9469V23.4537H38.3122V22.8354Z" fill="white"/>
<path d="M39.2642 22.8354H39.8988V23.4537H39.2642V22.8354Z" fill="white"/>
<path d="M38.3122 24.6903H38.9469V25.3087H38.3122V24.6903Z" fill="white"/>
<path d="M39.2642 24.6903H39.8988V25.3087H39.2642V24.6903Z" fill="white"/>
<path d="M26.1489 22.8354H26.7835V23.4537H26.1489V22.8354Z" fill="white"/>
<path d="M20.5432 22.8354H21.1778V23.4537H20.5432V22.8354Z" fill="white"/>
<path d="M21.3893 23.7629H22.0239V24.3812H21.3893V23.7629Z" fill="white"/>
<path d="M21.3893 24.6903H22.0239V25.3087H21.3893V24.6903Z" fill="white"/>
<path d="M12.1875 21.9079H12.8221V22.5263H12.1875V21.9079Z" fill="white"/>
<path d="M40.7449 21.9079H41.3795V22.5263H40.7449V21.9079Z" fill="white"/>
<path d="M35.4565 21.9079H36.0911V22.5263H35.4565V21.9079Z" fill="white"/>
<path d="M23.2932 21.9079L23.9278 21.9079V22.5263L23.2932 22.5263V21.9079Z" fill="white"/>
<path d="M27.1008 21.9079H27.7354V22.5263H27.1008V21.9079Z" fill="white"/>
<path d="M29.0046 21.9079H29.6393V22.5263H29.0046V21.9079Z" fill="white"/>
<path d="M33.2354 21.9079H33.87V22.5263H33.2354V21.9079Z" fill="white"/>
<path d="M17.6874 21.9079H18.3221V22.5263H17.6874V21.9079Z" fill="white"/>
<path d="M12.1875 20.9805H12.8221V21.5988H12.1875V20.9805Z" fill="white"/>
<path d="M41.3795 20.9805H42.0141V21.5988H41.3795V20.9805Z" fill="white"/>
<path d="M35.4565 20.9805H36.0911V21.5988H35.4565V20.9805Z" fill="white"/>
<path d="M29.0046 20.9805H29.6393V21.5988H29.0046V20.9805Z" fill="white"/>
<path d="M30.0623 21.3927H30.6969V22.011H30.0623V21.3927Z" fill="white"/>
<path d="M31.12 22.011H31.7546V22.6293H31.12V22.011Z" fill="white"/>
<path d="M32.1777 21.3927H32.8123V22.011H32.1777V21.3927Z" fill="white"/>
<path d="M33.2354 20.9805H33.87V21.5988H33.2354V20.9805Z" fill="white"/>
<path d="M17.6874 20.9805H18.3221V21.5988H17.6874V20.9805Z" fill="white"/>
<path d="M13.1394 20.9805H13.774V21.5988H13.1394V20.9805Z" fill="white"/>
<path d="M42.3314 20.9805H42.966V21.5988H42.3314V20.9805Z" fill="white"/>
<path d="M36.4084 20.9805H37.043V21.5988H36.4084V20.9805Z" fill="white"/>
<path d="M24.2451 20.9805H24.8797V21.5988H24.2451V20.9805Z" fill="white"/>
<path d="M18.6394 20.9805H19.274V21.5988H18.6394V20.9805Z" fill="white"/>
<path d="M14.0913 20.9805H14.7259V21.5988H14.0913V20.9805Z" fill="white"/>
<path d="M43.2834 20.9805H43.918V21.5988H43.2834V20.9805Z" fill="white"/>
<path d="M37.3603 20.9805H37.9949V21.5988H37.3603V20.9805Z" fill="white"/>
<path d="M25.197 20.9805H25.8316V21.5988H25.197V20.9805Z" fill="white"/>
<path d="M19.5913 20.9805H20.2259V21.5988H19.5913V20.9805Z" fill="white"/>
<path d="M14.9375 20.9805H15.5721V21.5988H14.9375V20.9805Z" fill="white"/>
<path d="M15.7836 20.9805H16.4182V21.5988H15.7836V20.9805Z" fill="white"/>
<path d="M44.2353 20.9805H44.8699V21.5988H44.2353V20.9805Z" fill="white"/>
<path d="M38.3122 20.9805H38.9469V21.5988H38.3122V20.9805Z" fill="white"/>
<path d="M39.2642 20.9805H39.8988V21.5988H39.2642V20.9805Z" fill="white"/>
<path d="M26.1489 20.9805H26.7835V21.5988H26.1489V20.9805Z" fill="white"/>
<path d="M20.5432 20.9805H21.1778V21.5988H20.5432V20.9805Z" fill="white"/>
<path d="M21.4951 21.9079H22.1297V22.5263H21.4951V21.9079Z" fill="white"/>
<path d="M44.8699 23.7629H45.5045V24.3812H44.8699V23.7629Z" fill="white"/>
<g filter="url(#filter0_d_2734_320)">
<path d="M40.2305 12.9697C40.2305 9.97047 42.6619 7.53906 45.6611 7.53906H145.646C148.645 7.53906 151.077 9.97046 151.077 12.9697V148.375C151.077 151.374 148.645 153.805 145.646 153.805H45.6611C42.6619 153.805 40.2305 151.374 40.2305 148.375V12.9697Z" fill="url(#paint1_linear_2734_320)"/>
</g>
<path d="M54.8113 135.36C55.4963 135.36 56.0279 135.541 56.406 135.902C56.7841 136.263 56.994 136.673 57.0358 137.132H56.3213C56.2403 136.783 56.0782 136.507 55.8351 136.303C55.5945 136.099 55.2557 135.998 54.8187 135.998C54.2859 135.998 53.855 136.185 53.526 136.561C53.1994 136.934 53.0361 137.508 53.0361 138.281C53.0361 138.914 53.1834 139.429 53.4781 139.824C53.7752 140.217 54.2171 140.413 54.8039 140.413C55.3441 140.413 55.7553 140.206 56.0377 139.791C56.1875 139.572 56.2992 139.285 56.3728 138.929H57.0873C57.0235 139.499 56.8123 139.976 56.4539 140.362C56.0242 140.826 55.4448 141.058 54.7155 141.058C54.087 141.058 53.5591 140.868 53.1319 140.487C52.5696 139.984 52.2885 139.207 52.2885 138.156C52.2885 137.358 52.4996 136.703 52.922 136.193C53.3786 135.638 54.0084 135.36 54.8113 135.36ZM59.4591 140.491C59.8986 140.491 60.1994 140.325 60.3614 139.994C60.5259 139.66 60.6082 139.289 60.6082 138.881C60.6082 138.513 60.5493 138.213 60.4314 137.983C60.2448 137.619 59.9232 137.438 59.4665 137.438C59.0614 137.438 58.7667 137.592 58.5826 137.902C58.3984 138.211 58.3064 138.584 58.3064 139.021C58.3064 139.441 58.3984 139.791 58.5826 140.071C58.7667 140.351 59.0589 140.491 59.4591 140.491ZM59.4849 136.859C59.9931 136.859 60.4228 137.029 60.7739 137.368C61.125 137.706 61.3006 138.205 61.3006 138.863C61.3006 139.499 61.1459 140.024 60.8365 140.439C60.5272 140.854 60.0472 141.062 59.3965 141.062C58.8539 141.062 58.423 140.879 58.1038 140.513C57.7846 140.145 57.625 139.651 57.625 139.032C57.625 138.369 57.7932 137.842 58.1296 137.449C58.466 137.056 58.9177 136.859 59.4849 136.859ZM62.1108 135.508H62.7737V140.918H62.1108V135.508ZM65.3371 140.491C65.7766 140.491 66.0773 140.325 66.2394 139.994C66.4039 139.66 66.4861 139.289 66.4861 138.881C66.4861 138.513 66.4272 138.213 66.3093 137.983C66.1227 137.619 65.8011 137.438 65.3444 137.438C64.9393 137.438 64.6447 137.592 64.4605 137.902C64.2764 138.211 64.1843 138.584 64.1843 139.021C64.1843 139.441 64.2764 139.791 64.4605 140.071C64.6447 140.351 64.9368 140.491 65.3371 140.491ZM65.3628 136.859C65.8711 136.859 66.3008 137.029 66.6519 137.368C67.003 137.706 67.1785 138.205 67.1785 138.863C67.1785 139.499 67.0238 140.024 66.7145 140.439C66.4051 140.854 65.9251 141.062 65.2744 141.062C64.7318 141.062 64.3009 140.879 63.9817 140.513C63.6626 140.145 63.503 139.651 63.503 139.032C63.503 138.369 63.6712 137.842 64.0075 137.449C64.3439 137.056 64.7957 136.859 65.3628 136.859ZM67.9888 136.974H68.6185V137.655C68.6701 137.522 68.7965 137.362 68.9979 137.172C69.1992 136.981 69.4312 136.885 69.6939 136.885C69.7062 136.885 69.7271 136.886 69.7566 136.889C69.786 136.891 69.8364 136.896 69.9076 136.904V137.603C69.8683 137.596 69.8314 137.591 69.7971 137.589C69.7651 137.586 69.7295 137.585 69.6903 137.585C69.3563 137.585 69.0998 137.693 68.9205 137.909C68.7413 138.123 68.6517 138.369 68.6517 138.649V140.918H67.9888V136.974Z" fill="white"/>
<circle cx="95.6403" cy="80.6715" r="38.2994" stroke="white" stroke-width="1.50983"/>
<path d="M81.1491 24.6903H81.7837V25.3087H81.1491V24.6903Z" fill="white"/>
<path d="M84.0048 24.6903H84.6394V25.3087H84.0048V24.6903Z" fill="white"/>
<path d="M83.0529 24.6903H83.6875V25.3087H83.0529V24.6903Z" fill="white"/>
<path d="M82.101 24.6903H82.7356V25.3087L82.101 25.3087V24.6903Z" fill="white"/>
<path d="M51.957 24.6903H52.5916V25.3087H51.957V24.6903Z" fill="white"/>
<path d="M75.226 24.6903H75.8606V25.3087H75.226V24.6903Z" fill="white"/>
<path d="M63.0627 24.6903H63.6973V25.3087H63.0627V24.6903Z" fill="white"/>
<path d="M66.8703 24.6903H67.505V25.3087H66.8703V24.6903Z" fill="white"/>
<path d="M68.7742 24.6903H69.4088V25.3087H68.7742V24.6903Z" fill="white"/>
<path d="M73.0049 24.6903H73.6395V25.3087H73.0049V24.6903Z" fill="white"/>
<path d="M57.457 24.6903H58.0916V25.3087H57.457V24.6903Z" fill="white"/>
<path d="M51.957 23.7629H52.5916V24.3812H51.957V23.7629Z" fill="white"/>
<path d="M75.226 23.7629H75.8606V24.3812H75.226V23.7629Z" fill="white"/>
<path d="M63.0627 23.7629H63.6973V24.3812H63.0627V23.7629Z" fill="white"/>
<path d="M66.8703 23.7629H67.505V24.3812H66.8703V23.7629Z" fill="white"/>
<path d="M68.7742 23.7629H69.4088V24.3812H68.7742V23.7629Z" fill="white"/>
<path d="M73.0049 23.7629H73.6395V24.3812H73.0049V23.7629Z" fill="white"/>
<path d="M57.457 23.7629H58.0916V24.3812H57.457V23.7629Z" fill="white"/>
<path d="M51.957 22.8354H52.5916V23.4537H51.957V22.8354Z" fill="white"/>
<path d="M81.1491 22.8354H81.7837V23.4537H81.1491V22.8354Z" fill="white"/>
<path d="M75.226 22.8354H75.8606V23.4537H75.226V22.8354Z" fill="white"/>
<path d="M63.0627 22.8354L63.6973 22.8354V23.4537H63.0627V22.8354Z" fill="white"/>
<path d="M66.8703 22.8354H67.505V23.4537H66.8703V22.8354Z" fill="white"/>
<path d="M68.7742 22.8354H69.4088V23.4537H68.7742V22.8354Z" fill="white"/>
<path d="M73.0049 22.8354H73.6395V23.4537H73.0049V22.8354Z" fill="white"/>
<path d="M57.457 22.8354H58.0916V23.4537H57.457V22.8354Z" fill="white"/>
<path d="M52.9089 22.8354H53.5436V23.4537H52.9089V22.8354Z" fill="white"/>
<path d="M82.101 22.8354H82.7356V23.4537H82.101V22.8354Z" fill="white"/>
<path d="M76.1779 22.8354H76.8126V23.4537H76.1779V22.8354Z" fill="white"/>
<path d="M76.1779 24.6903H76.8126V25.3087H76.1779V24.6903Z" fill="white"/>
<path d="M64.0146 22.8354H64.6492V23.4537L64.0146 23.4537V22.8354Z" fill="white"/>
<path d="M58.4089 22.8354H59.0435V23.4537H58.4089V22.8354Z" fill="white"/>
<path d="M53.8609 22.8354H54.4955V23.4537H53.8609V22.8354Z" fill="white"/>
<path d="M83.0529 22.8354H83.6875V23.4537H83.0529V22.8354Z" fill="white"/>
<path d="M77.1299 22.8354H77.7645V23.4537H77.1299V22.8354Z" fill="white"/>
<path d="M77.1299 24.6903H77.7645V25.3087H77.1299V24.6903Z" fill="white"/>
<path d="M64.9665 22.8354H65.6011V23.4537H64.9665V22.8354Z" fill="white"/>
<path d="M59.3608 22.8354H59.9954V23.4537H59.3608V22.8354Z" fill="white"/>
<path d="M54.707 22.8354H55.3416V23.4537H54.707V22.8354Z" fill="white"/>
<path d="M55.5532 22.8354H56.1878V23.4537H55.5532V22.8354Z" fill="white"/>
<path d="M84.0048 22.8354L84.6394 22.8354V23.4537H84.0048V22.8354Z" fill="white"/>
<path d="M78.0818 22.8354H78.7164V23.4537H78.0818V22.8354Z" fill="white"/>
<path d="M79.0337 22.8354H79.6683V23.4537H79.0337V22.8354Z" fill="white"/>
<path d="M78.0818 24.6903H78.7164V25.3087H78.0818V24.6903Z" fill="white"/>
<path d="M79.0337 24.6903H79.6683V25.3087H79.0337V24.6903Z" fill="white"/>
<path d="M65.9184 22.8354H66.553V23.4537H65.9184V22.8354Z" fill="white"/>
<path d="M60.3127 22.8354H60.9473V23.4537H60.3127V22.8354Z" fill="white"/>
<path d="M61.1589 23.7629H61.7935V24.3812H61.1589V23.7629Z" fill="white"/>
<path d="M61.1589 24.6903H61.7935V25.3087H61.1589V24.6903Z" fill="white"/>
<path d="M51.957 21.9079H52.5916V22.5263H51.957V21.9079Z" fill="white"/>
<path d="M80.5144 21.9079H81.1491V22.5263H80.5144V21.9079Z" fill="white"/>
<path d="M75.226 21.9079H75.8606V22.5263H75.226V21.9079Z" fill="white"/>
<path d="M63.0627 21.9079L63.6973 21.9079V22.5263L63.0627 22.5263V21.9079Z" fill="white"/>
<path d="M66.8703 21.9079H67.505V22.5263H66.8703V21.9079Z" fill="white"/>
<path d="M68.7742 21.9079H69.4088V22.5263H68.7742V21.9079Z" fill="white"/>
<path d="M73.0049 21.9079H73.6395V22.5263H73.0049V21.9079Z" fill="white"/>
<path d="M57.457 21.9079H58.0916V22.5263H57.457V21.9079Z" fill="white"/>
<path d="M51.957 20.9805H52.5916V21.5988H51.957V20.9805Z" fill="white"/>
<path d="M81.1491 20.9805H81.7837V21.5988H81.1491V20.9805Z" fill="white"/>
<path d="M75.226 20.9805H75.8606V21.5988H75.226V20.9805Z" fill="white"/>
<path d="M68.7742 20.9805H69.4088V21.5988H68.7742V20.9805Z" fill="white"/>
<path d="M69.8319 21.3927H70.4665V22.011H69.8319V21.3927Z" fill="white"/>
<path d="M70.8895 22.011H71.5241V22.6293H70.8895V22.011Z" fill="white"/>
<path d="M71.9472 21.3927H72.5818V22.011H71.9472V21.3927Z" fill="white"/>
<path d="M73.0049 20.9805H73.6395V21.5988H73.0049V20.9805Z" fill="white"/>
<path d="M57.457 20.9805H58.0916V21.5988H57.457V20.9805Z" fill="white"/>
<path d="M52.9089 20.9805H53.5436V21.5988H52.9089V20.9805Z" fill="white"/>
<path d="M82.101 20.9805H82.7356V21.5988H82.101V20.9805Z" fill="white"/>
<path d="M76.1779 20.9805H76.8126V21.5988H76.1779V20.9805Z" fill="white"/>
<path d="M64.0146 20.9805H64.6492V21.5988H64.0146V20.9805Z" fill="white"/>
<path d="M58.4089 20.9805H59.0435V21.5988H58.4089V20.9805Z" fill="white"/>
<path d="M53.8609 20.9805H54.4955V21.5988H53.8609V20.9805Z" fill="white"/>
<path d="M83.0529 20.9805H83.6875V21.5988H83.0529V20.9805Z" fill="white"/>
<path d="M77.1299 20.9805H77.7645V21.5988H77.1299V20.9805Z" fill="white"/>
<path d="M64.9665 20.9805H65.6011V21.5988H64.9665V20.9805Z" fill="white"/>
<path d="M59.3608 20.9805H59.9954V21.5988H59.3608V20.9805Z" fill="white"/>
<path d="M54.707 20.9805H55.3416V21.5988H54.707V20.9805Z" fill="white"/>
<path d="M55.5532 20.9805H56.1878V21.5988H55.5532V20.9805Z" fill="white"/>
<path d="M84.0048 20.9805H84.6394V21.5988H84.0048V20.9805Z" fill="white"/>
<path d="M78.0818 20.9805H78.7164V21.5988H78.0818V20.9805Z" fill="white"/>
<path d="M79.0337 20.9805H79.6683V21.5988H79.0337V20.9805Z" fill="white"/>
<path d="M65.9184 20.9805H66.553V21.5988H65.9184V20.9805Z" fill="white"/>
<path d="M60.3127 20.9805H60.9473V21.5988H60.3127V20.9805Z" fill="white"/>
<path d="M61.2646 21.9079H61.8992V22.5263H61.2646V21.9079Z" fill="white"/>
<path d="M84.6394 23.7629H85.274V24.3812H84.6394V23.7629Z" fill="white"/>
<defs>
<filter id="filter0_d_2734_320" x="31.2612" y="0.262139" width="123.709" height="159.127" filterUnits="userSpaceOnUse" color-interpolation-filters="sRGB">
<feFlood flood-opacity="0" result="BackgroundImageFix"/>
<feColorMatrix in="SourceAlpha" type="matrix" values="0 0 0 0 0 0 0 0 0 0 0 0 0 0 0 0 0 0 127 0" result="hardAlpha"/>
<feOffset dx="-2.53846" dy="-0.846154"/>
<feGaussianBlur stdDeviation="3.21538"/>
<feComposite in2="hardAlpha" operator="out"/>
<feColorMatrix type="matrix" values="0 0 0 0 0 0 0 0 0 0 0 0 0 0 0 0 0 0 0.25 0"/>
<feBlend mode="normal" in2="BackgroundImageFix" result="effect1_dropShadow_2734_320"/>
<feBlend mode="normal" in="SourceGraphic" in2="effect1_dropShadow_2734_320" result="shape"/>
</filter>
<linearGradient id="paint0_linear_2734_320" x1="96.0343" y1="7.49345" x2="0.460927" y2="178.22" gradientUnits="userSpaceOnUse">
<stop stop-color="#0029BB"/>
<stop offset="1" stop-color="#046AB3"/>
</linearGradient>
<linearGradient id="paint1_linear_2734_320" x1="135.804" y1="7.49345" x2="40.2305" y2="178.22" gradientUnits="userSpaceOnUse">
<stop stop-color="#0029BB"/>
<stop offset="1" stop-color="#046AB3"/>
</linearGradient>
</defs>
</svg>
