<svg width="109" height="143" viewBox="0 0 109 143" fill="none" xmlns="http://www.w3.org/2000/svg">
<path d="M0.691406 5.38053C0.691406 2.44993 3.06712 0.0742188 5.99772 0.0742188H103.693C106.623 0.0742188 108.999 2.44994 108.999 5.38053V137.685C108.999 140.615 106.623 142.991 103.693 142.991H5.99772C3.06713 142.991 0.691406 140.615 0.691406 137.685V5.38053Z" fill="url(#paint0_linear_2734_319)"/>
<path d="M14.9373 124.128C15.6067 124.128 16.1261 124.305 16.4955 124.657C16.865 125.01 17.0701 125.411 17.1109 125.859H16.4127C16.3336 125.519 16.1752 125.249 15.9377 125.05C15.7026 124.85 15.3716 124.751 14.9445 124.751C14.4239 124.751 14.0029 124.934 13.6814 125.301C13.3624 125.666 13.2028 126.226 13.2028 126.982C13.2028 127.601 13.3468 128.104 13.6346 128.49C13.9249 128.874 14.3568 129.066 14.9301 129.066C15.4579 129.066 15.8598 128.863 16.1357 128.457C16.282 128.244 16.3912 127.963 16.4631 127.615H17.1612C17.0989 128.172 16.8926 128.639 16.5423 129.015C16.1225 129.469 15.5563 129.695 14.8438 129.695C14.2296 129.695 13.7138 129.509 13.2964 129.138C12.747 128.646 12.4723 127.886 12.4723 126.86C12.4723 126.08 12.6786 125.441 13.0913 124.942C13.5375 124.399 14.1528 124.128 14.9373 124.128ZM19.4787 129.141C19.9082 129.141 20.202 128.979 20.3604 128.655C20.5211 128.329 20.6015 127.967 20.6015 127.569C20.6015 127.209 20.5439 126.916 20.4288 126.691C20.2464 126.335 19.9321 126.158 19.4859 126.158C19.0901 126.158 18.8022 126.309 18.6223 126.611C18.4423 126.914 18.3524 127.278 18.3524 127.705C18.3524 128.116 18.4423 128.457 18.6223 128.731C18.8022 129.004 19.0877 129.141 19.4787 129.141ZM19.5039 125.593C20.0005 125.593 20.4204 125.759 20.7634 126.09C21.1065 126.421 21.278 126.908 21.278 127.551C21.278 128.172 21.1269 128.685 20.8246 129.091C20.5223 129.496 20.0533 129.699 19.4176 129.699C18.8874 129.699 18.4663 129.52 18.1545 129.163C17.8426 128.803 17.6866 128.321 17.6866 127.716C17.6866 127.068 17.851 126.553 18.1796 126.169C18.5083 125.785 18.9497 125.593 19.5039 125.593ZM22.0697 124.272H22.7174V129.559H22.0697V124.272ZM25.2221 129.141C25.6515 129.141 25.9454 128.979 26.1037 128.655C26.2644 128.329 26.3448 127.967 26.3448 127.569C26.3448 127.209 26.2872 126.916 26.1721 126.691C25.9897 126.335 25.6755 126.158 25.2292 126.158C24.8334 126.158 24.5455 126.309 24.3656 126.611C24.1857 126.914 24.0957 127.278 24.0957 127.705C24.0957 128.116 24.1857 128.457 24.3656 128.731C24.5455 129.004 24.831 129.141 25.2221 129.141ZM25.2472 125.593C25.7438 125.593 26.1637 125.759 26.5067 126.09C26.8498 126.421 27.0213 126.908 27.0213 127.551C27.0213 128.172 26.8702 128.685 26.5679 129.091C26.2656 129.496 25.7966 129.699 25.1609 129.699C24.6307 129.699 24.2097 129.52 23.8978 129.163C23.5859 128.803 23.43 128.321 23.43 127.716C23.43 127.068 23.5943 126.553 23.923 126.169C24.2516 125.785 24.6931 125.593 25.2472 125.593ZM27.813 125.705H28.4284V126.37C28.4788 126.241 28.6023 126.084 28.799 125.899C28.9958 125.712 29.2225 125.618 29.4792 125.618C29.4912 125.618 29.5115 125.619 29.5403 125.622C29.5691 125.624 29.6183 125.629 29.6879 125.636V126.32C29.6495 126.313 29.6135 126.308 29.5799 126.305C29.5487 126.303 29.5139 126.302 29.4756 126.302C29.1493 126.302 28.8986 126.407 28.7235 126.619C28.5483 126.827 28.4608 127.068 28.4608 127.342V129.559H27.813V125.705Z" fill="white"/>
<circle cx="54.8358" cy="71.5311" r="37.4224" stroke="white" stroke-width="1.47526"/>
<path d="M40.6719 16.8359H41.292V17.44H40.6719V16.8359Z" fill="white"/>
<path d="M43.4623 16.8359L44.0824 16.8359V17.44H43.4623V16.8359Z" fill="white"/>
<path d="M42.5322 16.8359H43.1522V17.44H42.5322V16.8359Z" fill="white"/>
<path d="M41.6021 16.8359H42.2221V17.44H41.6021V16.8359Z" fill="white"/>
<path d="M12.1484 16.8359H12.7685V17.44H12.1484V16.8359Z" fill="white"/>
<path d="M34.8846 16.8359H35.5046V17.44H34.8846V16.8359Z" fill="white"/>
<path d="M22.9998 16.8359H23.6198V17.44H22.9998V16.8359Z" fill="white"/>
<path d="M26.7202 16.8359H27.3403V17.44H26.7202V16.8359Z" fill="white"/>
<path d="M28.5805 16.8359H29.2005V17.44H28.5805V16.8359Z" fill="white"/>
<path d="M32.7143 16.8359H33.3344V17.44H32.7143V16.8359Z" fill="white"/>
<path d="M17.5224 16.8359H18.1425V17.44H17.5224V16.8359Z" fill="white"/>
<path d="M12.1484 15.9296H12.7685V16.5338H12.1484V15.9296Z" fill="white"/>
<path d="M34.8846 15.9296H35.5046V16.5338H34.8846V15.9296Z" fill="white"/>
<path d="M22.9998 15.9296H23.6198V16.5338H22.9998V15.9296Z" fill="white"/>
<path d="M26.7202 15.9296L27.3403 15.9296V16.5338H26.7202V15.9296Z" fill="white"/>
<path d="M28.5805 15.9296H29.2005V16.5338H28.5805V15.9296Z" fill="white"/>
<path d="M32.7143 15.9296H33.3344V16.5338H32.7143V15.9296Z" fill="white"/>
<path d="M17.5224 15.9296H18.1425V16.5338H17.5224V15.9296Z" fill="white"/>
<path d="M12.1484 15.0234H12.7685V15.6275H12.1484V15.0234Z" fill="white"/>
<path d="M40.6719 15.0234H41.292V15.6275L40.6719 15.6275V15.0234Z" fill="white"/>
<path d="M34.8846 15.0234H35.5046V15.6275H34.8846V15.0234Z" fill="white"/>
<path d="M22.9998 15.0234H23.6198V15.6275H22.9998V15.0234Z" fill="white"/>
<path d="M26.7202 15.0234H27.3403V15.6275L26.7202 15.6275V15.0234Z" fill="white"/>
<path d="M28.5805 15.0234H29.2005V15.6275H28.5805V15.0234Z" fill="white"/>
<path d="M32.7143 15.0234H33.3344V15.6275H32.7143V15.0234Z" fill="white"/>
<path d="M17.5224 15.0234H18.1425V15.6275H17.5224V15.0234Z" fill="white"/>
<path d="M13.0786 15.0234H13.6986V15.6275H13.0786V15.0234Z" fill="white"/>
<path d="M41.6021 15.0234H42.2221V15.6275H41.6021V15.0234Z" fill="white"/>
<path d="M35.8147 15.0234H36.4348V15.6275H35.8147V15.0234Z" fill="white"/>
<path d="M35.8147 16.8359H36.4348V17.44H35.8147V16.8359Z" fill="white"/>
<path d="M23.9299 15.0234H24.55V15.6275H23.9299V15.0234Z" fill="white"/>
<path d="M18.4525 15.0234H19.0726V15.6275L18.4525 15.6275V15.0234Z" fill="white"/>
<path d="M14.0087 15.0234H14.6287V15.6275H14.0087V15.0234Z" fill="white"/>
<path d="M42.5322 15.0234H43.1522V15.6275H42.5322V15.0234Z" fill="white"/>
<path d="M36.7448 15.0234H37.3649V15.6275H36.7448V15.0234Z" fill="white"/>
<path d="M36.7448 16.8359H37.3649V17.44H36.7448V16.8359Z" fill="white"/>
<path d="M24.86 15.0234H25.4801V15.6275H24.86V15.0234Z" fill="white"/>
<path d="M19.3827 15.0234H20.0027V15.6275H19.3827V15.0234Z" fill="white"/>
<path d="M14.8354 15.0234H15.4555V15.6275H14.8354V15.0234Z" fill="white"/>
<path d="M15.6622 15.0234H16.2823V15.6275H15.6622V15.0234Z" fill="white"/>
<path d="M43.4623 15.0234H44.0824V15.6275H43.4623V15.0234Z" fill="white"/>
<path d="M37.6749 15.0234H38.295V15.6275H37.6749V15.0234Z" fill="white"/>
<path d="M38.605 15.0234H39.2251V15.6275H38.605V15.0234Z" fill="white"/>
<path d="M37.6749 16.8359H38.295V17.44H37.6749V16.8359Z" fill="white"/>
<path d="M38.605 16.8359H39.2251V17.44H38.605V16.8359Z" fill="white"/>
<path d="M25.7901 15.0234H26.4102V15.6275H25.7901V15.0234Z" fill="white"/>
<path d="M20.3128 15.0234H20.9329V15.6275H20.3128V15.0234Z" fill="white"/>
<path d="M21.1395 15.9296H21.7596V16.5338H21.1395V15.9296Z" fill="white"/>
<path d="M21.1395 16.8359H21.7596V17.44H21.1395V16.8359Z" fill="white"/>
<path d="M12.1484 14.1172H12.7685V14.7213H12.1484V14.1172Z" fill="white"/>
<path d="M40.0519 14.1172L40.6719 14.1172V14.7213L40.0519 14.7213V14.1172Z" fill="white"/>
<path d="M34.8846 14.1172H35.5046V14.7213H34.8846V14.1172Z" fill="white"/>
<path d="M22.9998 14.1172H23.6198V14.7213H22.9998V14.1172Z" fill="white"/>
<path d="M26.7202 14.1172H27.3403V14.7213H26.7202V14.1172Z" fill="white"/>
<path d="M28.5805 14.1172H29.2005V14.7213H28.5805V14.1172Z" fill="white"/>
<path d="M32.7143 14.1172H33.3344V14.7213H32.7143V14.1172Z" fill="white"/>
<path d="M17.5224 14.1172L18.1425 14.1172V14.7213H17.5224V14.1172Z" fill="white"/>
<path d="M12.1484 13.2109H12.7685V13.8151H12.1484V13.2109Z" fill="white"/>
<path d="M40.6719 13.2109H41.292V13.8151H40.6719V13.2109Z" fill="white"/>
<path d="M34.8846 13.2109H35.5046V13.8151H34.8846V13.2109Z" fill="white"/>
<path d="M28.5805 13.2109L29.2005 13.2109V13.8151H28.5805V13.2109Z" fill="white"/>
<path d="M29.6139 13.6137H30.234V14.2179H29.6139V13.6137Z" fill="white"/>
<path d="M30.6474 14.2179H31.2675V14.822H30.6474V14.2179Z" fill="white"/>
<path d="M31.6808 13.6137H32.3009V14.2179H31.6808V13.6137Z" fill="white"/>
<path d="M32.7143 13.2109H33.3344V13.8151H32.7143V13.2109Z" fill="white"/>
<path d="M17.5224 13.2109L18.1425 13.2109V13.8151L17.5224 13.8151V13.2109Z" fill="white"/>
<path d="M13.0786 13.2109H13.6986V13.8151H13.0786V13.2109Z" fill="white"/>
<path d="M41.6021 13.2109H42.2221V13.8151H41.6021V13.2109Z" fill="white"/>
<path d="M35.8147 13.2109H36.4348V13.8151H35.8147V13.2109Z" fill="white"/>
<path d="M23.9299 13.2109H24.55V13.8151H23.9299V13.2109Z" fill="white"/>
<path d="M18.4525 13.2109H19.0726V13.8151H18.4525V13.2109Z" fill="white"/>
<path d="M14.0087 13.2109H14.6287V13.8151H14.0087V13.2109Z" fill="white"/>
<path d="M42.5322 13.2109H43.1522V13.8151H42.5322V13.2109Z" fill="white"/>
<path d="M36.7448 13.2109H37.3649V13.8151H36.7448V13.2109Z" fill="white"/>
<path d="M24.86 13.2109H25.4801V13.8151H24.86V13.2109Z" fill="white"/>
<path d="M19.3827 13.2109H20.0027V13.8151H19.3827V13.2109Z" fill="white"/>
<path d="M14.8354 13.2109H15.4555V13.8151H14.8354V13.2109Z" fill="white"/>
<path d="M15.6622 13.2109H16.2823V13.8151H15.6622V13.2109Z" fill="white"/>
<path d="M43.4623 13.2109H44.0824V13.8151H43.4623V13.2109Z" fill="white"/>
<path d="M37.6749 13.2109H38.295V13.8151H37.6749V13.2109Z" fill="white"/>
<path d="M38.605 13.2109H39.2251V13.8151H38.605V13.2109Z" fill="white"/>
<path d="M25.7901 13.2109H26.4102V13.8151H25.7901V13.2109Z" fill="white"/>
<path d="M20.3128 13.2109H20.9329V13.8151H20.3128V13.2109Z" fill="white"/>
<path d="M21.2429 14.1172H21.863V14.7213H21.2429V14.1172Z" fill="white"/>
<path d="M44.0824 15.9296H44.7024V16.5338H44.0824V15.9296Z" fill="white"/>
<defs>
<linearGradient id="paint0_linear_2734_319" x1="94.076" y1="0.0296549" x2="0.691414" y2="166.846" gradientUnits="userSpaceOnUse">
<stop stop-color="#0029BB"/>
<stop offset="1" stop-color="#046AB3"/>
</linearGradient>
</defs>
</svg>
