<svg width="422" height="556" viewBox="0 0 422 556" fill="none" xmlns="http://www.w3.org/2000/svg">
<path d="M0.519531 21.0493C0.519531 9.66574 9.74775 0.4375 21.1313 0.4375H400.618C412.001 0.4375 421.229 9.66572 421.229 21.0493V534.97C421.229 546.354 412.001 555.582 400.618 555.582H21.1313C9.74776 555.582 0.519531 546.354 0.519531 534.97V21.0493Z" fill="url(#paint0_linear_3262_1902)"/>
<path d="M54.6165 482.426C56.9169 482.426 58.7021 483.033 59.9718 484.245C61.2416 485.457 61.9466 486.834 62.0868 488.376H59.6874C59.4153 487.205 58.8711 486.277 58.0548 485.593C57.2467 484.908 56.1089 484.566 54.6412 484.566C52.852 484.566 51.4049 485.197 50.3 486.458C49.2034 487.712 48.6551 489.637 48.6551 492.234C48.6551 494.362 49.1498 496.089 50.1392 497.417C51.1369 498.736 52.6211 499.395 54.5917 499.395C56.4057 499.395 57.7868 498.699 58.735 497.305C59.238 496.571 59.6132 495.607 59.8605 494.411H62.2599C62.0455 496.324 61.3364 497.928 60.1326 499.222C58.6897 500.781 56.7438 501.56 54.2949 501.56C52.1841 501.56 50.4113 500.921 48.9767 499.643C47.0885 497.952 46.1444 495.343 46.1444 491.814C46.1444 489.134 46.8535 486.937 48.2717 485.222C49.8053 483.358 51.9202 482.426 54.6165 482.426ZM70.2249 499.655C71.7009 499.655 72.7109 499.099 73.2551 497.985C73.8075 496.864 74.0838 495.619 74.0838 494.25C74.0838 493.014 73.8859 492.008 73.4901 491.233C72.8635 490.012 71.7833 489.402 70.2497 489.402C68.8892 489.402 67.8997 489.922 67.2813 490.96C66.6629 491.999 66.3537 493.253 66.3537 494.72C66.3537 496.13 66.6629 497.305 67.2813 498.245C67.8997 499.185 68.8809 499.655 70.2249 499.655ZM70.3115 487.46C72.0183 487.46 73.4612 488.029 74.6403 489.167C75.8194 490.305 76.409 491.979 76.409 494.188C76.409 496.324 75.8895 498.089 74.8506 499.482C73.8117 500.875 72.1997 501.572 70.0147 501.572C68.1925 501.572 66.7454 500.958 65.6735 499.729C64.6016 498.493 64.0657 496.835 64.0657 494.757C64.0657 492.531 64.6305 490.758 65.7601 489.439C66.8897 488.12 68.4068 487.46 70.3115 487.46ZM79.1299 482.921H81.3562V501.09H79.1299V482.921ZM89.9643 499.655C91.4402 499.655 92.4503 499.099 92.9945 497.985C93.5469 496.864 93.8232 495.619 93.8232 494.25C93.8232 493.014 93.6253 492.008 93.2295 491.233C92.6028 490.012 91.5227 489.402 89.9891 489.402C88.6286 489.402 87.6391 489.922 87.0207 490.96C86.4023 491.999 86.0931 493.253 86.0931 494.72C86.0931 496.13 86.4023 497.305 87.0207 498.245C87.6391 499.185 88.6203 499.655 89.9643 499.655ZM90.0509 487.46C91.7577 487.46 93.2006 488.029 94.3797 489.167C95.5588 490.305 96.1483 491.979 96.1483 494.188C96.1483 496.324 95.6289 498.089 94.59 499.482C93.5511 500.875 91.9391 501.572 89.7541 501.572C87.9318 501.572 86.4848 500.958 85.4129 499.729C84.341 498.493 83.805 496.835 83.805 494.757C83.805 492.531 84.3698 490.758 85.4995 489.439C86.6291 488.12 88.1462 487.46 90.0509 487.46ZM98.8693 487.844H100.984V490.132C101.157 489.687 101.582 489.146 102.258 488.512C102.934 487.868 103.713 487.547 104.596 487.547C104.637 487.547 104.707 487.551 104.806 487.559C104.905 487.567 105.074 487.584 105.313 487.609V489.959C105.181 489.934 105.057 489.917 104.942 489.909C104.835 489.901 104.715 489.897 104.583 489.897C103.462 489.897 102.6 490.26 101.998 490.985C101.397 491.703 101.096 492.531 101.096 493.471V501.09H98.8693V487.844Z" fill="white"/>
<circle cx="210.834" cy="277.998" r="145.363" stroke="white" stroke-width="5.73048"/>
<path d="M41.3252 56.7891V40.4552H51.5922V43.2553H44.4053V47.1988H51.0322V49.9989H44.4053V56.7891H41.3252ZM53.7898 56.7891V40.4552H60.8833C61.91 40.4552 62.8045 40.6341 63.5668 40.9919C64.329 41.3497 64.9201 41.8553 65.3401 42.5086C65.7602 43.162 65.9702 43.932 65.9702 44.8187V45.0987C65.9702 46.0787 65.7368 46.8721 65.2701 47.4788C64.8035 48.0855 64.2279 48.5288 63.5434 48.8088V49.2288C64.1657 49.2599 64.6479 49.4777 64.9901 49.8822C65.3324 50.2711 65.5035 50.7922 65.5035 51.4456V56.7891H62.4234V51.8889C62.4234 51.5156 62.3223 51.2122 62.12 50.9789C61.9334 50.7455 61.6145 50.6289 61.1634 50.6289H56.8699V56.7891H53.7898ZM56.8699 47.8288H60.5567C61.2878 47.8288 61.8556 47.6343 62.2601 47.2454C62.6801 46.841 62.8901 46.3121 62.8901 45.6587V45.4254C62.8901 44.772 62.6878 44.2509 62.2834 43.862C61.8789 43.4575 61.3034 43.2553 60.5567 43.2553H56.8699V47.8288ZM67.4131 56.7891L71.7065 40.4552H77.0734L81.3668 56.7891H78.1934L77.3067 53.1956H71.4732L70.5865 56.7891H67.4131ZM72.1965 50.3489H76.5833L74.5999 42.3919H74.1799L72.1965 50.3489ZM83.322 56.7891V40.4552H89.0388L91.8622 54.689H92.2822L95.1057 40.4552H100.823V56.7891H97.8357V42.7186H97.4157L94.6156 56.7891H89.5288L86.7287 42.7186H86.3087V56.7891H83.322ZM103.899 56.7891V40.4552H114.399V43.2553H106.979V47.1521H113.746V49.9522H106.979V53.989H114.539V56.7891H103.899ZM122.489 57.1157C121.229 57.1157 120.117 56.8902 119.153 56.4391C118.188 55.9879 117.434 55.3424 116.889 54.5023C116.345 53.6623 116.072 52.6512 116.072 51.4689V50.8155H119.106V51.4689C119.106 52.4489 119.409 53.1878 120.016 53.6856C120.623 54.1679 121.447 54.409 122.489 54.409C123.547 54.409 124.333 54.199 124.846 53.779C125.375 53.359 125.639 52.8223 125.639 52.1689C125.639 51.7178 125.507 51.3522 125.243 51.0722C124.994 50.7922 124.62 50.5666 124.123 50.3955C123.64 50.2089 123.049 50.0377 122.349 49.8822L121.813 49.7655C120.693 49.5166 119.728 49.2055 118.919 48.8321C118.126 48.4432 117.511 47.9377 117.076 47.3154C116.656 46.6932 116.446 45.8843 116.446 44.8887C116.446 43.8931 116.679 43.0453 117.146 42.3453C117.628 41.6297 118.297 41.0852 119.153 40.7119C120.024 40.323 121.043 40.1285 122.209 40.1285C123.376 40.1285 124.41 40.3308 125.313 40.7352C126.231 41.1241 126.946 41.7153 127.459 42.5086C127.988 43.2864 128.253 44.2664 128.253 45.4487V46.1487H125.219V45.4487C125.219 44.8265 125.095 44.3287 124.846 43.9553C124.613 43.5664 124.27 43.2864 123.819 43.1153C123.368 42.9286 122.832 42.8353 122.209 42.8353C121.276 42.8353 120.584 43.0142 120.133 43.372C119.697 43.7142 119.479 44.1887 119.479 44.7954C119.479 45.1998 119.58 45.542 119.783 45.8221C120 46.1021 120.319 46.3354 120.739 46.5221C121.159 46.7087 121.696 46.8721 122.349 47.0121L122.886 47.1288C124.053 47.3777 125.064 47.6966 125.919 48.0855C126.791 48.4744 127.467 48.9877 127.949 49.6255C128.432 50.2633 128.673 51.08 128.673 52.0756C128.673 53.0712 128.416 53.9501 127.903 54.7123C127.405 55.459 126.689 56.0502 125.756 56.4857C124.838 56.9057 123.749 57.1157 122.489 57.1157Z" fill="white"/>
<defs>
<linearGradient id="paint0_linear_3262_1902" x1="104.371" y1="7.86327" x2="363.368" y2="743.692" gradientUnits="userSpaceOnUse">
<stop stop-color="#0229B5"/>
<stop offset="1" stop-color="#0DA1F4"/>
</linearGradient>
</defs>
</svg>
