<svg width="155" height="25" viewBox="0 0 155 25" fill="none" xmlns="http://www.w3.org/2000/svg">
<path d="M16.2294 0.727701V4.75171H5.04619V10.3756H14.9204V14.3835H5.04619V23.9991H0.117188V0.727701H16.2294Z" fill="black"/>
<path d="M34.4536 0.727701C35.9188 0.727701 37.2332 0.991658 38.3968 1.51957C39.5603 2.04749 40.4761 2.83398 41.1441 3.87903C41.8228 4.92409 42.1622 6.18462 42.1622 7.66063C42.1622 9.12586 41.8498 10.3756 41.2249 11.4099C40.6 12.4442 39.7489 13.2307 38.6715 13.7694C37.6049 14.2973 36.409 14.5612 35.0838 14.5612H34.0819L42.3238 23.5142V23.9991H36.7969L28.264 14.4804H27.9408V23.9991H23.0603V0.727701H34.4536ZM33.6778 10.8443C34.7983 10.8443 35.6872 10.5857 36.3444 10.0686C37.0123 9.54065 37.3463 8.7811 37.3463 7.78991C37.3463 6.79873 37.0123 6.04456 36.3444 5.52742C35.6872 5.01028 34.7983 4.75171 33.6778 4.75171H27.9408V10.8443H33.6778Z" fill="black"/>
<path d="M61.7527 0.727701L69.7038 23.5142V23.9991H64.7101L62.9001 18.5044H54.1734L52.3795 23.9991H47.499V23.5142L55.4501 0.727701H61.7527ZM61.6234 14.3835L58.666 5.36581H58.4075L55.4662 14.3835H61.6234Z" fill="black"/>
<path d="M82.054 0.727701L89.7142 18.7145H89.9728L97.6329 0.727701H103.289V23.9991H98.7965V8.82419H98.5379L92.0737 23.9991H87.5163L81.0521 8.82419H80.7935V23.9991H76.3008V0.727701H82.054Z" fill="black"/>
<path d="M128.219 0.727701V4.75171H116.325V10.2625H126.603V14.2865H116.325V19.9751H128.446V23.9991H111.396V0.727701H128.219Z" fill="black"/>
<path d="M134.958 7.095C134.958 5.74828 135.308 4.56855 136.009 3.55582C136.72 2.54308 137.765 1.7566 139.144 1.19636C140.534 0.625349 142.214 0.339844 144.186 0.339844C146.168 0.339844 147.871 0.630736 149.293 1.21252C150.715 1.7943 151.808 2.62927 152.573 3.71742C153.349 4.80558 153.785 6.09843 153.882 7.59598V8.0808H149.26C149.196 6.69099 148.711 5.68903 147.806 5.07492C146.912 4.46082 145.721 4.15376 144.234 4.15376C142.834 4.15376 141.74 4.39617 140.954 4.88099C140.167 5.36581 139.774 6.05533 139.774 6.94956C139.774 7.81146 140.103 8.46327 140.76 8.905C141.428 9.34672 142.446 9.68071 143.814 9.90696L146.465 10.3595C148.167 10.6504 149.573 11.0705 150.683 11.62C151.803 12.1587 152.654 12.8859 153.236 13.8017C153.818 14.7175 154.109 15.8649 154.109 17.2439C154.109 18.666 153.748 19.9158 153.026 20.9932C152.304 22.0706 151.232 22.9055 149.81 23.4981C148.388 24.0906 146.664 24.3869 144.639 24.3869C142.591 24.3869 140.808 24.0853 139.289 23.4819C137.77 22.8678 136.59 22.0059 135.75 20.8962C134.921 19.7757 134.473 18.4667 134.409 16.9692V16.4844H139.031C139.149 17.8957 139.699 18.93 140.679 19.5872C141.67 20.2444 142.963 20.573 144.558 20.573C146.066 20.573 147.23 20.3037 148.048 19.765C148.878 19.2263 149.293 18.4667 149.293 17.4863C149.293 16.8507 149.137 16.3389 148.824 15.951C148.512 15.5632 148.059 15.2561 147.467 15.0299C146.874 14.8036 146.093 14.6097 145.123 14.4481L142.473 14.0118C139.995 13.5916 138.12 12.8213 136.849 11.7008C135.589 10.5695 134.958 9.03428 134.958 7.095Z" fill="black"/>
</svg>
