<svg width="148" height="164" viewBox="0 0 148 164" fill="none" xmlns="http://www.w3.org/2000/svg">
<path d="M0 5.81713C0 2.60441 2.60443 0 5.81715 0H112.917C116.13 0 118.734 2.60443 118.734 5.81715V150.858C118.734 154.071 116.13 156.675 112.917 156.675H5.81715C2.60443 156.675 0 154.071 0 150.858V5.81713Z" fill="url(#paint0_linear_3746_393)"/>
<path d="M15.6199 136.422C16.3536 136.422 16.923 136.615 17.3281 137.002C17.7331 137.389 17.958 137.828 18.0027 138.32H17.2373C17.1505 137.946 16.977 137.65 16.7166 137.432C16.4588 137.214 16.0959 137.104 15.6278 137.104C15.0571 137.104 14.5955 137.306 14.2431 137.708C13.8933 138.108 13.7184 138.722 13.7184 139.55C13.7184 140.229 13.8762 140.78 14.1918 141.203C14.51 141.624 14.9834 141.835 15.612 141.835C16.1906 141.835 16.6311 141.612 16.9336 141.168C17.094 140.934 17.2137 140.626 17.2926 140.245H18.0579C17.9895 140.855 17.7633 141.366 17.3794 141.779C16.9191 142.276 16.2984 142.525 15.5173 142.525C14.844 142.525 14.2786 142.321 13.821 141.913C13.2187 141.374 12.9176 140.542 12.9176 139.416C12.9176 138.561 13.1437 137.861 13.5961 137.314C14.0853 136.719 14.7599 136.422 15.6199 136.422ZM20.5985 141.917C21.0692 141.917 21.3914 141.74 21.565 141.385C21.7412 141.027 21.8293 140.63 21.8293 140.193C21.8293 139.799 21.7662 139.478 21.64 139.231C21.4401 138.842 21.0955 138.647 20.6064 138.647C20.1724 138.647 19.8568 138.813 19.6596 139.144C19.4623 139.475 19.3637 139.875 19.3637 140.343C19.3637 140.793 19.4623 141.168 19.6596 141.468C19.8568 141.767 20.1698 141.917 20.5985 141.917ZM20.6261 138.028C21.1705 138.028 21.6308 138.209 22.0068 138.572C22.3829 138.935 22.571 139.469 22.571 140.174C22.571 140.855 22.4053 141.418 22.0739 141.862C21.7425 142.307 21.2284 142.529 20.5314 142.529C19.9502 142.529 19.4886 142.333 19.1467 141.941C18.8048 141.547 18.6339 141.018 18.6339 140.355C18.6339 139.645 18.814 139.08 19.1743 138.659C19.5346 138.238 20.0186 138.028 20.6261 138.028ZM23.4389 136.58H24.149V142.375H23.4389V136.58ZM26.8947 141.917C27.3655 141.917 27.6876 141.74 27.8612 141.385C28.0374 141.027 28.1255 140.63 28.1255 140.193C28.1255 139.799 28.0624 139.478 27.9362 139.231C27.7363 138.842 27.3918 138.647 26.9026 138.647C26.4686 138.647 26.153 138.813 25.9558 139.144C25.7585 139.475 25.6599 139.875 25.6599 140.343C25.6599 140.793 25.7585 141.168 25.9558 141.468C26.153 141.767 26.466 141.917 26.8947 141.917ZM26.9223 138.028C27.4667 138.028 27.927 138.209 28.3031 138.572C28.6792 138.935 28.8672 139.469 28.8672 140.174C28.8672 140.855 28.7015 141.418 28.3701 141.862C28.0388 142.307 27.5246 142.529 26.8276 142.529C26.2464 142.529 25.7848 142.333 25.4429 141.941C25.101 141.547 24.9301 141.018 24.9301 140.355C24.9301 139.645 25.1102 139.08 25.4706 138.659C25.8309 138.238 26.3148 138.028 26.9223 138.028ZM29.7351 138.15H30.4097V138.88C30.4649 138.738 30.6004 138.565 30.816 138.363C31.0317 138.158 31.2802 138.055 31.5616 138.055C31.5748 138.055 31.5971 138.057 31.6287 138.059C31.6603 138.062 31.7142 138.067 31.7905 138.075V138.824C31.7484 138.817 31.7089 138.811 31.6721 138.809C31.6379 138.806 31.5998 138.805 31.5577 138.805C31.2 138.805 30.9252 138.92 30.7332 139.152C30.5412 139.381 30.4452 139.645 30.4452 139.945V142.375H29.7351V138.15Z" fill="white"/>
<circle cx="59.3571" cy="78.3414" r="41.025" stroke="white" stroke-width="1.61728"/>
<path d="M43.832 18.3762L44.5117 18.3762V19.0385H43.832V18.3762Z" fill="white"/>
<path d="M46.8909 18.3762H47.5707V19.0385H46.8909V18.3762Z" fill="white"/>
<path d="M45.8713 18.3762H46.551V19.0385H45.8713V18.3762Z" fill="white"/>
<path d="M44.8516 18.3762H45.5314V19.0385H44.8516V18.3762Z" fill="white"/>
<path d="M12.5625 18.3762H13.2423V19.0385H12.5625V18.3762Z" fill="white"/>
<path d="M37.4874 18.3762H38.1672V19.0385H37.4874V18.3762Z" fill="white"/>
<path d="M24.4585 18.3762L25.1383 18.3762V19.0385H24.4585V18.3762Z" fill="white"/>
<path d="M28.5371 18.3762H29.2169V19.0385H28.5371V18.3762Z" fill="white"/>
<path d="M30.5764 18.3762H31.2562V19.0385H30.5764V18.3762Z" fill="white"/>
<path d="M35.1082 18.3762H35.788V19.0385H35.1082V18.3762Z" fill="white"/>
<path d="M18.4538 18.3762H19.1336V19.0385H18.4538V18.3762Z" fill="white"/>
<path d="M12.5625 17.3828H13.2423V18.0451H12.5625V17.3828Z" fill="white"/>
<path d="M37.4874 17.3828H38.1672V18.0451H37.4874V17.3828Z" fill="white"/>
<path d="M24.4585 17.3828L25.1383 17.3828V18.0451L24.4585 18.0451V17.3828Z" fill="white"/>
<path d="M28.5371 17.3828H29.2169V18.0451H28.5371V17.3828Z" fill="white"/>
<path d="M30.5764 17.3828H31.2562V18.0451H30.5764V17.3828Z" fill="white"/>
<path d="M35.1082 17.3828H35.788V18.0451H35.1082V17.3828Z" fill="white"/>
<path d="M18.4538 17.3828H19.1336V18.0451H18.4538V17.3828Z" fill="white"/>
<path d="M12.5625 16.3893H13.2423V17.0516H12.5625V16.3893Z" fill="white"/>
<path d="M43.832 16.3893H44.5117V17.0516L43.832 17.0516V16.3893Z" fill="white"/>
<path d="M37.4874 16.3893H38.1672V17.0516H37.4874V16.3893Z" fill="white"/>
<path d="M24.4585 16.3893H25.1383V17.0516L24.4585 17.0516V16.3893Z" fill="white"/>
<path d="M28.5371 16.3893H29.2169V17.0516H28.5371V16.3893Z" fill="white"/>
<path d="M30.5764 16.3893H31.2562V17.0516H30.5764V16.3893Z" fill="white"/>
<path d="M35.1082 16.3893H35.788V17.0516H35.1082V16.3893Z" fill="white"/>
<path d="M18.4538 16.3893H19.1336V17.0516H18.4538V16.3893Z" fill="white"/>
<path d="M13.5822 16.3893H14.2619V17.0516H13.5822V16.3893Z" fill="white"/>
<path d="M44.8516 16.3893L45.5314 16.3893V17.0516H44.8516V16.3893Z" fill="white"/>
<path d="M38.5071 16.3893H39.1869V17.0516H38.5071V16.3893Z" fill="white"/>
<path d="M38.5071 18.3762H39.1869V19.0385H38.5071V18.3762Z" fill="white"/>
<path d="M25.4781 16.3893H26.1579V17.0516H25.4781V16.3893Z" fill="white"/>
<path d="M19.4735 16.3893H20.1533V17.0516H19.4735V16.3893Z" fill="white"/>
<path d="M14.6018 16.3893H15.2816V17.0516H14.6018V16.3893Z" fill="white"/>
<path d="M45.8713 16.3893H46.551V17.0516H45.8713V16.3893Z" fill="white"/>
<path d="M39.5267 16.3893H40.2065V17.0516H39.5267V16.3893Z" fill="white"/>
<path d="M39.5267 18.3762H40.2065V19.0385H39.5267V18.3762Z" fill="white"/>
<path d="M26.4978 16.3893H27.1776V17.0516H26.4978V16.3893Z" fill="white"/>
<path d="M20.4932 16.3893H21.1729V17.0516H20.4932V16.3893Z" fill="white"/>
<path d="M15.5082 16.3893H16.1879V17.0516H15.5082V16.3893Z" fill="white"/>
<path d="M16.4145 16.3893H17.0943V17.0516H16.4145V16.3893Z" fill="white"/>
<path d="M46.8909 16.3893H47.5707V17.0516H46.8909V16.3893Z" fill="white"/>
<path d="M40.5464 16.3893H41.2262V17.0516H40.5464V16.3893Z" fill="white"/>
<path d="M41.566 16.3893H42.2458V17.0516H41.566V16.3893Z" fill="white"/>
<path d="M40.5464 18.3762H41.2262V19.0385H40.5464V18.3762Z" fill="white"/>
<path d="M41.566 18.3762H42.2458V19.0385H41.566V18.3762Z" fill="white"/>
<path d="M27.5175 16.3893H28.1972V17.0516H27.5175V16.3893Z" fill="white"/>
<path d="M21.5128 16.3893H22.1926V17.0516H21.5128V16.3893Z" fill="white"/>
<path d="M22.4192 17.3828H23.0989V18.0451H22.4192V17.3828Z" fill="white"/>
<path d="M22.4192 18.3762H23.0989V19.0385H22.4192V18.3762Z" fill="white"/>
<path d="M12.5625 15.3958H13.2423V16.0581H12.5625V15.3958Z" fill="white"/>
<path d="M43.1522 15.3958H43.832V16.0581H43.1522V15.3958Z" fill="white"/>
<path d="M37.4874 15.3958H38.1672V16.0581H37.4874V15.3958Z" fill="white"/>
<path d="M24.4585 15.3958H25.1383V16.0581H24.4585V15.3958Z" fill="white"/>
<path d="M28.5371 15.3958L29.2169 15.3958V16.0581H28.5371V15.3958Z" fill="white"/>
<path d="M30.5764 15.3958H31.2562V16.0581H30.5764V15.3958Z" fill="white"/>
<path d="M35.1082 15.3958H35.788V16.0581H35.1082V15.3958Z" fill="white"/>
<path d="M18.4538 15.3958H19.1336V16.0581H18.4538V15.3958Z" fill="white"/>
<path d="M12.5625 14.4023H13.2423V15.0647H12.5625V14.4023Z" fill="white"/>
<path d="M43.832 14.4023H44.5117V15.0647H43.832V14.4023Z" fill="white"/>
<path d="M37.4874 14.4023H38.1672V15.0647H37.4874V14.4023Z" fill="white"/>
<path d="M30.5764 14.4023H31.2562V15.0647H30.5764V14.4023Z" fill="white"/>
<path d="M31.7094 14.8439H32.3891V15.5062H31.7094V14.8439Z" fill="white"/>
<path d="M32.8423 15.5062H33.5221V16.1685H32.8423V15.5062Z" fill="white"/>
<path d="M33.9753 14.8439H34.655V15.5062H33.9753V14.8439Z" fill="white"/>
<path d="M35.1082 14.4023H35.788V15.0647H35.1082V14.4023Z" fill="white"/>
<path d="M18.4538 14.4023H19.1336V15.0647H18.4538V14.4023Z" fill="white"/>
<path d="M13.5822 14.4023H14.2619V15.0647H13.5822V14.4023Z" fill="white"/>
<path d="M44.8516 14.4023H45.5314V15.0647H44.8516V14.4023Z" fill="white"/>
<path d="M38.5071 14.4023H39.1869V15.0647H38.5071V14.4023Z" fill="white"/>
<path d="M25.4781 14.4023H26.1579V15.0647H25.4781V14.4023Z" fill="white"/>
<path d="M19.4735 14.4023H20.1533V15.0647H19.4735V14.4023Z" fill="white"/>
<path d="M14.6018 14.4023H15.2816V15.0647H14.6018V14.4023Z" fill="white"/>
<path d="M45.8713 14.4023H46.551V15.0647H45.8713V14.4023Z" fill="white"/>
<path d="M39.5267 14.4023L40.2065 14.4023V15.0647H39.5267V14.4023Z" fill="white"/>
<path d="M26.4978 14.4023H27.1776V15.0647H26.4978V14.4023Z" fill="white"/>
<path d="M20.4932 14.4023H21.1729V15.0647H20.4932V14.4023Z" fill="white"/>
<path d="M15.5082 14.4023H16.1879V15.0647H15.5082V14.4023Z" fill="white"/>
<path d="M16.4145 14.4023H17.0943V15.0647H16.4145V14.4023Z" fill="white"/>
<path d="M46.8909 14.4023H47.5707V15.0647H46.8909V14.4023Z" fill="white"/>
<path d="M40.5464 14.4023H41.2262V15.0647H40.5464V14.4023Z" fill="white"/>
<path d="M41.566 14.4023H42.2458V15.0647H41.566V14.4023Z" fill="white"/>
<path d="M27.5175 14.4023H28.1972V15.0647H27.5175V14.4023Z" fill="white"/>
<path d="M21.5128 14.4023H22.1926V15.0647H21.5128V14.4023Z" fill="white"/>
<path d="M22.5325 15.3958H23.2122V16.0581H22.5325V15.3958Z" fill="white"/>
<path d="M47.5707 17.3828H48.2505V18.0451H47.5707V17.3828Z" fill="white"/>
<g filter="url(#filter0_d_3746_393)">
<path d="M27 6.7191C27 3.56053 29.5605 1 32.7191 1H138.014C141.173 1 143.733 3.56053 143.733 6.7191V149.315C143.733 152.474 141.173 155.035 138.014 155.035H32.7191C29.5605 155.035 27 152.474 27 149.315V6.7191Z" fill="url(#paint1_linear_3746_393)"/>
</g>
<path d="M42.3574 135.241C43.0788 135.241 43.6386 135.431 44.0368 135.811C44.435 136.191 44.6561 136.623 44.7 137.107H43.9476C43.8623 136.739 43.6916 136.449 43.4356 136.234C43.1822 136.019 42.8254 135.912 42.3652 135.912C41.8041 135.912 41.3503 136.11 41.0038 136.505C40.6599 136.898 40.488 137.502 40.488 138.317C40.488 138.984 40.6431 139.526 40.9534 139.942C41.2663 140.356 41.7317 140.562 42.3497 140.562C42.9185 140.562 43.3516 140.344 43.649 139.907C43.8067 139.677 43.9243 139.374 44.0019 138.999H44.7543C44.6871 139.599 44.4647 140.102 44.0872 140.508C43.6347 140.997 43.0245 141.241 42.2566 141.241C41.5946 141.241 41.0387 141.041 40.5888 140.64C39.9967 140.11 39.7006 139.292 39.7006 138.185C39.7006 137.345 39.923 136.655 40.3677 136.118C40.8487 135.533 41.5119 135.241 42.3574 135.241ZM47.2521 140.644C47.7149 140.644 48.0317 140.469 48.2023 140.12C48.3756 139.769 48.4622 139.378 48.4622 138.949C48.4622 138.561 48.4001 138.246 48.276 138.003C48.0795 137.62 47.7408 137.429 47.2599 137.429C46.8332 137.429 46.5229 137.591 46.329 137.917C46.1351 138.243 46.0381 138.636 46.0381 139.096C46.0381 139.538 46.1351 139.907 46.329 140.202C46.5229 140.496 46.8306 140.644 47.2521 140.644ZM47.2792 136.82C47.8145 136.82 48.267 136.998 48.6367 137.355C49.0065 137.712 49.1914 138.237 49.1914 138.93C49.1914 139.599 49.0285 140.153 48.7027 140.59C48.3769 141.027 47.8714 141.245 47.1862 141.245C46.6147 141.245 46.1609 141.052 45.8248 140.667C45.4887 140.279 45.3206 139.76 45.3206 139.108C45.3206 138.41 45.4977 137.854 45.852 137.44C46.2062 137.026 46.682 136.82 47.2792 136.82ZM50.0446 135.396H50.7428V141.094H50.0446V135.396ZM53.4422 140.644C53.905 140.644 54.2218 140.469 54.3924 140.12C54.5657 139.769 54.6523 139.378 54.6523 138.949C54.6523 138.561 54.5902 138.246 54.4661 138.003C54.2696 137.62 53.9309 137.429 53.45 137.429C53.0233 137.429 52.713 137.591 52.5191 137.917C52.3252 138.243 52.2282 138.636 52.2282 139.096C52.2282 139.538 52.3252 139.907 52.5191 140.202C52.713 140.496 53.0207 140.644 53.4422 140.644ZM53.4694 136.82C54.0046 136.82 54.4571 136.998 54.8268 137.355C55.1966 137.712 55.3815 138.237 55.3815 138.93C55.3815 139.599 55.2186 140.153 54.8928 140.59C54.567 141.027 54.0615 141.245 53.3763 141.245C52.8048 141.245 52.351 141.052 52.0149 140.667C51.6788 140.279 51.5107 139.76 51.5107 139.108C51.5107 138.41 51.6878 137.854 52.0421 137.44C52.3963 137.026 52.8721 136.82 53.4694 136.82ZM56.2347 136.94H56.898V137.657C56.9523 137.518 57.0854 137.348 57.2974 137.149C57.5095 136.948 57.7538 136.847 58.0305 136.847C58.0434 136.847 58.0654 136.848 58.0964 136.851C58.1275 136.853 58.1805 136.858 58.2554 136.866V137.603C58.2141 137.595 58.1753 137.59 58.1391 137.588C58.1055 137.585 58.068 137.584 58.0266 137.584C57.675 137.584 57.4048 137.697 57.216 137.925C57.0272 138.15 56.9329 138.41 56.9329 138.705V141.094H56.2347V136.94Z" fill="white"/>
<circle cx="85.359" cy="78.0192" r="40.3335" stroke="white" stroke-width="1.59002"/>
<path d="M70.094 19.0671H70.7623V19.7182H70.094V19.0671Z" fill="white"/>
<path d="M73.1014 19.0671H73.7697V19.7182H73.1014V19.0671Z" fill="white"/>
<path d="M72.0989 19.0671H72.7672V19.7182H72.0989V19.0671Z" fill="white"/>
<path d="M71.0965 19.0671L71.7648 19.0671V19.7182H71.0965V19.0671Z" fill="white"/>
<path d="M39.3516 19.0671H40.0199V19.7182H39.3516V19.0671Z" fill="white"/>
<path d="M63.8564 19.0671H64.5247V19.7182H63.8564V19.0671Z" fill="white"/>
<path d="M51.047 19.0671H51.7154V19.7182H51.047V19.0671Z" fill="white"/>
<path d="M55.0569 19.0671H55.7252V19.7182H55.0569V19.0671Z" fill="white"/>
<path d="M57.0619 19.0671H57.7302V19.7182H57.0619V19.0671Z" fill="white"/>
<path d="M61.5173 19.0671H62.1856V19.7182H61.5173V19.0671Z" fill="white"/>
<path d="M45.1436 19.0671H45.8119V19.7182H45.1436V19.0671Z" fill="white"/>
<path d="M39.3516 18.0903H40.0199V18.7415H39.3516V18.0903Z" fill="white"/>
<path d="M63.8564 18.0903H64.5247V18.7415H63.8564V18.0903Z" fill="white"/>
<path d="M51.047 18.0903H51.7154V18.7415H51.047V18.0903Z" fill="white"/>
<path d="M55.0569 18.0903H55.7252V18.7415H55.0569V18.0903Z" fill="white"/>
<path d="M57.0619 18.0903H57.7302V18.7415H57.0619V18.0903Z" fill="white"/>
<path d="M61.5173 18.0903H62.1856V18.7415H61.5173V18.0903Z" fill="white"/>
<path d="M45.1436 18.0903H45.8119V18.7415H45.1436V18.0903Z" fill="white"/>
<path d="M39.3516 17.1136H40.0199V17.7648H39.3516V17.1136Z" fill="white"/>
<path d="M70.094 17.1136H70.7623V17.7648H70.094V17.1136Z" fill="white"/>
<path d="M63.8564 17.1136H64.5247V17.7648H63.8564V17.1136Z" fill="white"/>
<path d="M51.047 17.1136L51.7154 17.1136V17.7648H51.047V17.1136Z" fill="white"/>
<path d="M55.0569 17.1136H55.7252V17.7648H55.0569V17.1136Z" fill="white"/>
<path d="M57.0619 17.1136H57.7302V17.7648H57.0619V17.1136Z" fill="white"/>
<path d="M61.5173 17.1136H62.1856V17.7648H61.5173V17.1136Z" fill="white"/>
<path d="M45.1436 17.1136H45.8119V17.7648H45.1436V17.1136Z" fill="white"/>
<path d="M40.354 17.1136H41.0223V17.7648H40.354V17.1136Z" fill="white"/>
<path d="M71.0965 17.1136H71.7648V17.7648L71.0965 17.7648V17.1136Z" fill="white"/>
<path d="M64.8589 17.1136H65.5272V17.7648H64.8589V17.1136Z" fill="white"/>
<path d="M64.8589 19.0671H65.5272V19.7182H64.8589V19.0671Z" fill="white"/>
<path d="M52.0495 17.1136H52.7178V17.7648H52.0495V17.1136Z" fill="white"/>
<path d="M46.1461 17.1136H46.8144V17.7648H46.1461V17.1136Z" fill="white"/>
<path d="M41.3565 17.1136H42.0248V17.7648H41.3565V17.1136Z" fill="white"/>
<path d="M72.0989 17.1136H72.7672V17.7648H72.0989V17.1136Z" fill="white"/>
<path d="M65.8613 17.1136H66.5296V17.7648H65.8613V17.1136Z" fill="white"/>
<path d="M65.8613 19.0671H66.5296V19.7182H65.8613V19.0671Z" fill="white"/>
<path d="M53.052 17.1136H53.7203V17.7648H53.052V17.1136Z" fill="white"/>
<path d="M47.1486 17.1136H47.8169V17.7648H47.1486V17.1136Z" fill="white"/>
<path d="M42.2476 17.1136H42.9159V17.7648H42.2476V17.1136Z" fill="white"/>
<path d="M43.1387 17.1136H43.807V17.7648H43.1387V17.1136Z" fill="white"/>
<path d="M73.1014 17.1136H73.7697V17.7648H73.1014V17.1136Z" fill="white"/>
<path d="M66.8638 17.1136H67.5321V17.7648H66.8638V17.1136Z" fill="white"/>
<path d="M67.8663 17.1136H68.5346V17.7648H67.8663V17.1136Z" fill="white"/>
<path d="M66.8638 19.0671H67.5321V19.7182H66.8638V19.0671Z" fill="white"/>
<path d="M67.8663 19.0671H68.5346V19.7182H67.8663V19.0671Z" fill="white"/>
<path d="M54.0545 17.1136H54.7228V17.7648H54.0545V17.1136Z" fill="white"/>
<path d="M48.151 17.1136H48.8193V17.7648H48.151V17.1136Z" fill="white"/>
<path d="M49.0421 18.0903H49.7104V18.7415H49.0421V18.0903Z" fill="white"/>
<path d="M49.0421 19.0671H49.7104V19.7182H49.0421V19.0671Z" fill="white"/>
<path d="M39.3516 16.1369H40.0199V16.788H39.3516V16.1369Z" fill="white"/>
<path d="M69.4257 16.1369H70.094V16.788H69.4257V16.1369Z" fill="white"/>
<path d="M63.8564 16.1369H64.5247V16.788H63.8564V16.1369Z" fill="white"/>
<path d="M51.047 16.1369H51.7154V16.788L51.047 16.788V16.1369Z" fill="white"/>
<path d="M55.0569 16.1369H55.7252V16.788H55.0569V16.1369Z" fill="white"/>
<path d="M57.0619 16.1369H57.7302V16.788H57.0619V16.1369Z" fill="white"/>
<path d="M61.5173 16.1369H62.1856V16.788H61.5173V16.1369Z" fill="white"/>
<path d="M45.1436 16.1369H45.8119V16.788H45.1436V16.1369Z" fill="white"/>
<path d="M39.3516 15.1602H40.0199V15.8113H39.3516V15.1602Z" fill="white"/>
<path d="M70.094 15.1602H70.7623V15.8113H70.094V15.1602Z" fill="white"/>
<path d="M63.8564 15.1602H64.5247V15.8113H63.8564V15.1602Z" fill="white"/>
<path d="M57.0619 15.1602H57.7302V15.8113H57.0619V15.1602Z" fill="white"/>
<path d="M58.1757 15.5943H58.844V16.2454H58.1757V15.5943Z" fill="white"/>
<path d="M59.2896 16.2454H59.9579V16.8966H59.2896V16.2454Z" fill="white"/>
<path d="M60.4034 15.5943H61.0718V16.2454H60.4034V15.5943Z" fill="white"/>
<path d="M61.5173 15.1602H62.1856V15.8113H61.5173V15.1602Z" fill="white"/>
<path d="M45.1436 15.1602H45.8119V15.8113L45.1436 15.8113V15.1602Z" fill="white"/>
<path d="M40.354 15.1602H41.0223V15.8113H40.354V15.1602Z" fill="white"/>
<path d="M71.0965 15.1602H71.7648V15.8113H71.0965V15.1602Z" fill="white"/>
<path d="M64.8589 15.1602H65.5272V15.8113H64.8589V15.1602Z" fill="white"/>
<path d="M52.0495 15.1602H52.7178V15.8113H52.0495V15.1602Z" fill="white"/>
<path d="M46.1461 15.1602H46.8144V15.8113H46.1461V15.1602Z" fill="white"/>
<path d="M41.3565 15.1602H42.0248V15.8113H41.3565V15.1602Z" fill="white"/>
<path d="M72.0989 15.1602H72.7672V15.8113H72.0989V15.1602Z" fill="white"/>
<path d="M65.8613 15.1602H66.5296V15.8113H65.8613V15.1602Z" fill="white"/>
<path d="M53.052 15.1602H53.7203V15.8113H53.052V15.1602Z" fill="white"/>
<path d="M47.1486 15.1602H47.8169V15.8113H47.1486V15.1602Z" fill="white"/>
<path d="M42.2476 15.1602H42.9159V15.8113H42.2476V15.1602Z" fill="white"/>
<path d="M43.1387 15.1602H43.807V15.8113H43.1387V15.1602Z" fill="white"/>
<path d="M73.1014 15.1602H73.7697V15.8113H73.1014V15.1602Z" fill="white"/>
<path d="M66.8638 15.1602L67.5321 15.1602V15.8113L66.8638 15.8113V15.1602Z" fill="white"/>
<path d="M67.8663 15.1602H68.5346V15.8113H67.8663V15.1602Z" fill="white"/>
<path d="M54.0545 15.1602H54.7228V15.8113H54.0545V15.1602Z" fill="white"/>
<path d="M48.151 15.1602H48.8193V15.8113H48.151V15.1602Z" fill="white"/>
<path d="M49.1535 16.1369H49.8218V16.788H49.1535V16.1369Z" fill="white"/>
<path d="M73.7697 18.0903H74.438V18.7415H73.7697V18.0903Z" fill="white"/>
<defs>
<filter id="filter0_d_3746_393" x="23" y="1" width="124.734" height="162.035" filterUnits="userSpaceOnUse" color-interpolation-filters="sRGB">
<feFlood flood-opacity="0" result="BackgroundImageFix"/>
<feColorMatrix in="SourceAlpha" type="matrix" values="0 0 0 0 0 0 0 0 0 0 0 0 0 0 0 0 0 0 127 0" result="hardAlpha"/>
<feOffset dy="4"/>
<feGaussianBlur stdDeviation="2"/>
<feComposite in2="hardAlpha" operator="out"/>
<feColorMatrix type="matrix" values="0 0 0 0 0 0 0 0 0 0 0 0 0 0 0 0 0 0 0.25 0"/>
<feBlend mode="normal" in2="BackgroundImageFix" result="effect1_dropShadow_3746_393"/>
<feBlend mode="normal" in="SourceGraphic" in2="effect1_dropShadow_3746_393" result="shape"/>
</filter>
<linearGradient id="paint0_linear_3746_393" x1="102.375" y1="-0.048854" x2="1.17922e-05" y2="182.827" gradientUnits="userSpaceOnUse">
<stop stop-color="#E69718"/>
<stop offset="1" stop-color="#F0D355"/>
</linearGradient>
<linearGradient id="paint1_linear_3746_393" x1="127.649" y1="0.951969" x2="27" y2="180.746" gradientUnits="userSpaceOnUse">
<stop stop-color="#E69718"/>
<stop offset="1" stop-color="#F0D355"/>
</linearGradient>
</defs>
</svg>
