<svg width="426" height="563" viewBox="0 0 426 563" fill="none" xmlns="http://www.w3.org/2000/svg">
<rect x="0.105469" y="0.824219" width="425.562" height="561.548" rx="20.8496" fill="url(#paint0_linear_3458_4463)"/>
<path d="M49.6347 492.723H62.3831V494.975H52.1243V500.555H61.1445V502.744H52.1243V511.102H49.6347V492.723ZM67.012 497.703V506.598C67.012 507.282 67.1205 507.84 67.3373 508.274C67.7377 509.075 68.4841 509.475 69.5767 509.475C71.1447 509.475 72.2123 508.775 72.7795 507.373C73.0881 506.623 73.2424 505.593 73.2424 504.283V497.703H75.4943V511.102H73.3675L73.3925 509.125C73.1006 509.634 72.7378 510.063 72.3041 510.413C71.445 511.114 70.4024 511.464 69.1764 511.464C67.2664 511.464 65.9653 510.826 65.273 509.55C64.8977 508.866 64.7101 507.953 64.7101 506.81V497.703H67.012ZM79.0223 497.703H81.1616V499.604C81.7955 498.82 82.4669 498.257 83.1758 497.915C83.8848 497.573 84.673 497.402 85.5404 497.402C87.442 497.402 88.7264 498.065 89.3937 499.392C89.7606 500.117 89.9441 501.156 89.9441 502.507V511.102H87.6547V502.657C87.6547 501.839 87.5337 501.181 87.2919 500.68C86.8915 499.846 86.1659 499.429 85.115 499.429C84.5812 499.429 84.1433 499.483 83.8014 499.592C83.1842 499.775 82.6421 500.142 82.175 500.693C81.7997 501.135 81.5536 501.593 81.4369 502.069C81.3284 502.536 81.2742 503.207 81.2742 504.083V511.102H79.0223V497.703ZM108.46 492.223C110.787 492.223 112.593 492.836 113.877 494.062C115.162 495.288 115.875 496.681 116.016 498.241H113.589C113.314 497.056 112.764 496.118 111.938 495.426C111.121 494.733 109.97 494.387 108.485 494.387C106.675 494.387 105.211 495.025 104.094 496.301C102.984 497.569 102.43 499.517 102.43 502.144C102.43 504.296 102.93 506.043 103.931 507.386C104.94 508.72 106.442 509.388 108.435 509.388C110.27 509.388 111.667 508.683 112.626 507.273C113.135 506.531 113.514 505.555 113.764 504.346H116.192C115.975 506.281 115.257 507.903 114.04 509.212C112.58 510.789 110.612 511.577 108.135 511.577C106 511.577 104.206 510.931 102.755 509.638C100.845 507.928 99.8901 505.288 99.8901 501.719C99.8901 499.008 100.607 496.785 102.042 495.05C103.593 493.165 105.733 492.223 108.46 492.223ZM124.248 509.65C125.741 509.65 126.763 509.087 127.314 507.961C127.872 506.827 128.152 505.568 128.152 504.183C128.152 502.932 127.952 501.915 127.551 501.131C126.917 499.896 125.825 499.279 124.273 499.279C122.897 499.279 121.896 499.804 121.271 500.855C120.645 501.906 120.333 503.174 120.333 504.659C120.333 506.085 120.645 507.273 121.271 508.224C121.896 509.175 122.889 509.65 124.248 509.65ZM124.336 497.315C126.062 497.315 127.522 497.89 128.715 499.041C129.907 500.192 130.504 501.885 130.504 504.121C130.504 506.281 129.978 508.066 128.927 509.475C127.877 510.885 126.246 511.589 124.036 511.589C122.193 511.589 120.729 510.968 119.645 509.725C118.56 508.474 118.018 506.798 118.018 504.696C118.018 502.444 118.589 500.651 119.732 499.316C120.875 497.982 122.409 497.315 124.336 497.315ZM133.256 492.723H135.508V511.102H133.256V492.723ZM144.216 509.65C145.708 509.65 146.73 509.087 147.281 507.961C147.839 506.827 148.119 505.568 148.119 504.183C148.119 502.932 147.919 501.915 147.518 501.131C146.884 499.896 145.792 499.279 144.241 499.279C142.864 499.279 141.863 499.804 141.238 500.855C140.612 501.906 140.3 503.174 140.3 504.659C140.3 506.085 140.612 507.273 141.238 508.224C141.863 509.175 142.856 509.65 144.216 509.65ZM144.303 497.315C146.03 497.315 147.489 497.89 148.682 499.041C149.875 500.192 150.471 501.885 150.471 504.121C150.471 506.281 149.945 508.066 148.895 509.475C147.844 510.885 146.213 511.589 144.003 511.589C142.16 511.589 140.696 510.968 139.612 509.725C138.527 508.474 137.985 506.798 137.985 504.696C137.985 502.444 138.557 500.651 139.699 499.316C140.842 497.982 142.376 497.315 144.303 497.315ZM153.223 497.703H155.363V500.017C155.538 499.567 155.967 499.02 156.651 498.378C157.335 497.728 158.123 497.402 159.016 497.402C159.057 497.402 159.128 497.407 159.228 497.415C159.328 497.423 159.499 497.44 159.741 497.465V499.842C159.608 499.817 159.483 499.8 159.366 499.792C159.258 499.784 159.137 499.779 159.003 499.779C157.869 499.779 156.997 500.146 156.388 500.88C155.78 501.606 155.475 502.444 155.475 503.395V511.102H153.223V497.703Z" fill="white"/>
<circle cx="212.84" cy="299.36" r="147.04" stroke="white" stroke-width="5.79658"/>
<path d="M39.3469 57.8203V41.2981H49.7323V44.1305H42.4625V48.1194H49.1658V50.9518H42.4625V57.8203H39.3469ZM51.9552 57.8203V41.2981H59.1306C60.1691 41.2981 61.0739 41.479 61.845 41.8409C62.616 42.2029 63.214 42.7143 63.6388 43.3752C64.0637 44.036 64.2761 44.8149 64.2761 45.7119V45.9951C64.2761 46.9864 64.0401 47.789 63.568 48.4026C63.0959 49.0163 62.5137 49.4648 61.8214 49.748V50.1729C62.4508 50.2043 62.9386 50.4246 63.2848 50.8338C63.6309 51.2272 63.804 51.7543 63.804 52.4152V57.8203H60.6884V52.8636C60.6884 52.486 60.5861 52.1791 60.3816 51.9431C60.1927 51.7071 59.8702 51.5891 59.4138 51.5891H55.0708V57.8203H51.9552ZM55.0708 48.7567H58.8002C59.5397 48.7567 60.1141 48.56 60.5232 48.1666C60.948 47.7575 61.1605 47.2225 61.1605 46.5616V46.3256C61.1605 45.6647 60.9559 45.1375 60.5468 44.7441C60.1377 44.335 59.5555 44.1305 58.8002 44.1305H55.0708V48.7567ZM65.7356 57.8203L70.0786 41.2981H75.5073L79.8503 57.8203H76.6403L75.7434 54.1854H69.8426L68.9457 57.8203H65.7356ZM70.5743 51.3058H75.0117L73.0054 43.2571H72.5806L70.5743 51.3058ZM81.828 57.8203V41.2981H87.6108L90.4668 55.696H90.8917L93.7476 41.2981H99.5304V57.8203H96.5092V43.5876H96.0844L93.252 57.8203H88.1065L85.2741 43.5876H84.8492V57.8203H81.828ZM102.642 57.8203V41.2981H113.264V44.1305H105.758V48.0722H112.603V50.9046H105.758V54.9879H113.405V57.8203H102.642ZM121.447 58.1508C120.173 58.1508 119.047 57.9226 118.072 57.4663C117.096 57.0099 116.333 56.3569 115.782 55.5072C115.232 54.6575 114.956 53.6347 114.956 52.4388V51.7779H118.025V52.4388C118.025 53.4301 118.331 54.1776 118.945 54.6811C119.559 55.1689 120.393 55.4128 121.447 55.4128C122.517 55.4128 123.312 55.2004 123.831 54.7755C124.366 54.3506 124.634 53.8078 124.634 53.1469C124.634 52.6905 124.5 52.3208 124.232 52.0375C123.981 51.7543 123.603 51.5261 123.099 51.353C122.612 51.1642 122.014 50.9911 121.305 50.8338L120.763 50.7157C119.63 50.464 118.654 50.1493 117.836 49.7716C117.033 49.3782 116.412 48.8668 115.971 48.2374C115.546 47.608 115.334 46.7897 115.334 45.7827C115.334 44.7756 115.57 43.918 116.042 43.2099C116.53 42.4861 117.206 41.9354 118.072 41.5577C118.953 41.1643 119.984 40.9676 121.164 40.9676C122.344 40.9676 123.39 41.1722 124.303 41.5813C125.231 41.9747 125.955 42.5726 126.475 43.3752C127.01 44.1619 127.277 45.1533 127.277 46.3492V47.0573H124.209V46.3492C124.209 45.7197 124.083 45.2162 123.831 44.8386C123.595 44.4452 123.249 44.1619 122.792 43.9888C122.336 43.8 121.793 43.7056 121.164 43.7056C120.22 43.7056 119.52 43.8866 119.063 44.2485C118.623 44.5947 118.402 45.0746 118.402 45.6883C118.402 46.0974 118.505 46.4436 118.709 46.7268C118.929 47.01 119.252 47.2461 119.677 47.4349C120.102 47.6237 120.645 47.789 121.305 47.9306L121.848 48.0486C123.029 48.3004 124.051 48.6229 124.917 49.0163C125.798 49.4097 126.482 49.929 126.97 50.5741C127.458 51.2193 127.702 52.0454 127.702 53.0525C127.702 54.0595 127.442 54.9486 126.923 55.7196C126.42 56.4749 125.696 57.0729 124.752 57.5135C123.823 57.9383 122.722 58.1508 121.447 58.1508Z" fill="white"/>
<defs>
<linearGradient id="paint0_linear_3458_4463" x1="212.887" y1="0.824219" x2="212.887" y2="562.372" gradientUnits="userSpaceOnUse">
<stop stop-color="#FF8A00"/>
<stop offset="1" stop-color="#E2CD0F"/>
</linearGradient>
</defs>
</svg>
