<svg width="122" height="157" viewBox="0 0 122 157" fill="none" xmlns="http://www.w3.org/2000/svg">
<g filter="url(#filter0_d_2784_194)">
<rect x="8.30859" y="5.38281" width="108.666" height="143.389" rx="5.32385" fill="url(#paint0_linear_2784_194)"/>
</g>
<path opacity="0.72" d="M20.881 134.33H21.7991L23.1586 138.331L24.5084 134.33H25.4168V139.062H24.808V136.269C24.808 136.173 24.8101 136.013 24.8144 135.789C24.8187 135.566 24.8209 135.327 24.8209 135.071L23.4711 139.062H22.8364L21.477 135.071V135.216C21.477 135.332 21.4791 135.509 21.4834 135.748C21.4898 135.984 21.4931 136.158 21.4931 136.269V139.062H20.881V134.33ZM26.7602 138.144C26.7602 138.312 26.8214 138.444 26.9438 138.541C27.0662 138.637 27.2112 138.686 27.3787 138.686C27.5828 138.686 27.7803 138.638 27.9715 138.544C28.2936 138.387 28.4547 138.13 28.4547 137.774V137.307C28.3838 137.352 28.2926 137.389 28.1809 137.42C28.0692 137.45 27.9597 137.471 27.8523 137.484L27.5012 137.529C27.2907 137.557 27.1328 137.601 27.0276 137.661C26.8493 137.762 26.7602 137.923 26.7602 138.144ZM28.1648 136.972C28.2979 136.955 28.3871 136.899 28.4322 136.804C28.4579 136.753 28.4708 136.679 28.4708 136.582C28.4708 136.384 28.3999 136.242 28.2582 136.153C28.1186 136.063 27.9178 136.018 27.6558 136.018C27.353 136.018 27.1382 136.1 27.0115 136.263C26.9406 136.353 26.8944 136.487 26.873 136.666H26.3317C26.3425 136.24 26.4799 135.945 26.7441 135.78C27.0104 135.612 27.3186 135.529 27.6687 135.529C28.0746 135.529 28.4042 135.606 28.6577 135.76C28.9089 135.915 29.0346 136.156 29.0346 136.482V138.47C29.0346 138.53 29.0464 138.578 29.07 138.615C29.0958 138.651 29.1484 138.669 29.2279 138.669C29.2536 138.669 29.2826 138.668 29.3149 138.666C29.3471 138.662 29.3814 138.657 29.4179 138.65V139.079C29.3277 139.104 29.259 139.12 29.2118 139.127C29.1645 139.133 29.1001 139.137 29.0185 139.137C28.8187 139.137 28.6738 139.066 28.5836 138.924C28.5363 138.849 28.503 138.742 28.4837 138.605C28.3656 138.76 28.1959 138.894 27.9747 139.008C27.7535 139.122 27.5097 139.178 27.2434 139.178C26.9234 139.178 26.6614 139.082 26.4574 138.889C26.2555 138.693 26.1546 138.449 26.1546 138.157C26.1546 137.837 26.2544 137.589 26.4542 137.413C26.6539 137.237 26.9159 137.129 27.2402 137.088L28.1648 136.972ZM31.2059 135.551C31.4765 135.551 31.7127 135.618 31.9146 135.751C32.0241 135.826 32.1358 135.936 32.2496 136.079V135.644H32.7844V138.782C32.7844 139.22 32.72 139.566 32.5911 139.82C32.3506 140.288 31.8963 140.522 31.2284 140.522C30.8569 140.522 30.5444 140.438 30.291 140.271C30.0375 140.105 29.8958 139.845 29.8657 139.491H30.4553C30.4832 139.646 30.539 139.765 30.6228 139.849C30.7538 139.977 30.96 140.042 31.2413 140.042C31.6859 140.042 31.9769 139.885 32.1143 139.571C32.1959 139.387 32.2335 139.057 32.2271 138.582C32.1111 138.759 31.9715 138.89 31.8083 138.976C31.6451 139.061 31.4292 139.104 31.1608 139.104C30.7871 139.104 30.4596 138.972 30.1782 138.708C29.899 138.442 29.7594 138.003 29.7594 137.391C29.7594 136.813 29.9001 136.362 30.1814 136.038C30.4649 135.713 30.8064 135.551 31.2059 135.551ZM32.2496 137.323C32.2496 136.896 32.1616 136.579 31.9855 136.373C31.8094 136.166 31.5849 136.063 31.3122 136.063C30.9041 136.063 30.6249 136.254 30.4746 136.637C30.3951 136.841 30.3554 137.108 30.3554 137.439C30.3554 137.828 30.4338 138.124 30.5906 138.328C30.7495 138.53 30.9621 138.631 31.2284 138.631C31.6451 138.631 31.9382 138.443 32.1079 138.067C32.2024 137.854 32.2496 137.606 32.2496 137.323ZM33.6607 135.628H34.2502V139.062H33.6607V135.628ZM33.6607 134.33H34.2502V134.987H33.6607V134.33ZM36.4601 135.512C36.8489 135.512 37.1646 135.607 37.4073 135.796C37.6521 135.985 37.7992 136.31 37.8486 136.772H37.2848C37.2505 136.559 37.1721 136.383 37.0497 136.244C36.9272 136.102 36.7307 136.031 36.4601 136.031C36.0907 136.031 35.8266 136.211 35.6676 136.572C35.5646 136.806 35.513 137.095 35.513 137.439C35.513 137.785 35.586 138.076 35.7321 138.312C35.8781 138.548 36.1079 138.666 36.4215 138.666C36.662 138.666 36.8521 138.593 36.9917 138.447C37.1334 138.299 37.2311 138.097 37.2848 137.842H37.8486C37.7842 138.299 37.6231 138.634 37.3654 138.847C37.1077 139.057 36.778 139.162 36.3764 139.162C35.9254 139.162 35.5656 138.998 35.2972 138.669C35.0287 138.339 34.8945 137.926 34.8945 137.432C34.8945 136.827 35.0416 136.355 35.3358 136.018C35.6301 135.681 36.0048 135.512 36.4601 135.512ZM42.3361 134.201C42.9353 134.201 43.4003 134.359 43.731 134.675C44.0618 134.991 44.2454 135.349 44.2819 135.751H43.657C43.5861 135.446 43.4443 135.204 43.2317 135.026C43.0212 134.848 42.7249 134.759 42.3426 134.759C41.8765 134.759 41.4996 134.923 41.2118 135.251C40.9262 135.578 40.7834 136.079 40.7834 136.756C40.7834 137.31 40.9122 137.76 41.17 138.106C41.4298 138.449 41.8164 138.621 42.3297 138.621C42.8022 138.621 43.1619 138.44 43.4089 138.077C43.5399 137.886 43.6376 137.634 43.7021 137.323H44.327C44.2712 137.821 44.0865 138.239 43.7729 138.576C43.3971 138.982 42.8902 139.185 42.2524 139.185C41.7026 139.185 41.2408 139.018 40.8671 138.686C40.3753 138.245 40.1294 137.566 40.1294 136.646C40.1294 135.948 40.3141 135.376 40.6835 134.929C41.083 134.444 41.6339 134.201 42.3361 134.201ZM46.4017 138.689C46.7861 138.689 47.0492 138.544 47.1909 138.254C47.3348 137.962 47.4068 137.638 47.4068 137.281C47.4068 136.959 47.3552 136.697 47.2521 136.495C47.0889 136.177 46.8076 136.018 46.4081 136.018C46.0537 136.018 45.796 136.153 45.635 136.424C45.4739 136.695 45.3933 137.021 45.3933 137.403C45.3933 137.771 45.4739 138.077 45.635 138.322C45.796 138.566 46.0516 138.689 46.4017 138.689ZM46.4242 135.512C46.8688 135.512 47.2446 135.661 47.5517 135.957C47.8589 136.253 48.0124 136.689 48.0124 137.265C48.0124 137.821 47.8771 138.281 47.6065 138.644C47.3359 139.007 46.916 139.188 46.3469 139.188C45.8723 139.188 45.4954 139.028 45.2162 138.708C44.937 138.386 44.7974 137.954 44.7974 137.413C44.7974 136.833 44.9445 136.371 45.2387 136.028C45.5329 135.684 45.9281 135.512 46.4242 135.512ZM48.7211 134.33H49.301V139.062H48.7211V134.33ZM51.5432 138.689C51.9276 138.689 52.1907 138.544 52.3324 138.254C52.4763 137.962 52.5483 137.638 52.5483 137.281C52.5483 136.959 52.4967 136.697 52.3937 136.495C52.2304 136.177 51.9491 136.018 51.5496 136.018C51.1953 136.018 50.9375 136.153 50.7765 136.424C50.6154 136.695 50.5348 137.021 50.5348 137.403C50.5348 137.771 50.6154 138.077 50.7765 138.322C50.9375 138.566 51.1931 138.689 51.5432 138.689ZM51.5657 135.512C52.0103 135.512 52.3861 135.661 52.6933 135.957C53.0004 136.253 53.1539 136.689 53.1539 137.265C53.1539 137.821 53.0186 138.281 52.748 138.644C52.4774 139.007 52.0575 139.188 51.4884 139.188C51.0138 139.188 50.6369 139.028 50.3577 138.708C50.0785 138.386 49.9389 137.954 49.9389 137.413C49.9389 136.833 50.086 136.371 50.3802 136.028C50.6744 135.684 51.0696 135.512 51.5657 135.512ZM53.8627 135.612H54.4135V136.208C54.4586 136.092 54.5692 135.952 54.7453 135.786C54.9215 135.619 55.1244 135.535 55.3542 135.535C55.3649 135.535 55.3832 135.536 55.409 135.538C55.4347 135.54 55.4788 135.545 55.5411 135.551V136.163C55.5067 136.157 55.4745 136.152 55.4444 136.15C55.4165 136.148 55.3853 136.147 55.351 136.147C55.0589 136.147 54.8345 136.242 54.6777 136.431C54.5209 136.617 54.4425 136.833 54.4425 137.078V139.062H53.8627V135.612Z" fill="white"/>
<circle cx="62.6299" cy="81.6143" r="37.5461" stroke="white" stroke-width="1.48013"/>
<g opacity="0.5">
<path d="M21.0699 16.6802H18.9348V17.6609H20.8041V18.4015H18.9348V20.1892H18.0508V15.931H21.0699V16.6802Z" fill="white"/>
<path d="M24.0681 18.5172H23.1494V20.1892H22.2798V15.9252H24.3686C24.6671 15.931 24.8963 15.9676 25.0562 16.0351C25.218 16.1026 25.3547 16.2019 25.4665 16.3331C25.5589 16.4411 25.6321 16.5606 25.686 16.6918C25.74 16.8229 25.7669 16.9724 25.7669 17.1402C25.7669 17.3427 25.7159 17.5423 25.6138 17.739C25.5117 17.9338 25.3432 18.0717 25.1082 18.1527C25.3047 18.2317 25.4433 18.3446 25.5242 18.4911C25.6071 18.6358 25.6485 18.8576 25.6485 19.1565V19.4429L25.6433 19.8392V20.0822V20.1892H24.7586V19.9665C24.7586 19.9665 24.7606 19.7187 24.7586 19.5933L24.7529 19.197C24.749 18.9251 24.6989 18.7438 24.6026 18.6531C24.5082 18.5625 24.3301 18.5172 24.0681 18.5172ZM24.6084 17.7419C24.7856 17.6609 24.8742 17.5008 24.8742 17.2617C24.8742 17.0032 24.7885 16.8297 24.6171 16.741C24.5208 16.6908 24.3763 16.6657 24.1837 16.6657H23.1494V17.8113H24.1577C24.358 17.8113 24.5082 17.7882 24.6084 17.7419Z" fill="white"/>
<path d="M29.6204 19.3127H28.0516L27.7569 20.1892H26.8266L28.3463 15.9252H29.3517L30.8598 20.1892H29.8948L29.6204 19.3127ZM29.3719 18.5779L28.8403 16.9001L28.2914 18.5779H29.3719Z" fill="white"/>
<path d="M32.8093 20.1892H31.9802V15.9252H33.2745L34.0487 19.278L34.8172 15.9252H36.0971V20.1892H35.2679V17.3051C35.2679 17.2221 35.2689 17.1064 35.2708 16.9579C35.2727 16.8075 35.2737 16.6918 35.2737 16.6108L34.4676 20.1892H33.6038L32.8035 16.6108C32.8035 16.6918 32.8045 16.8075 32.8064 16.9579C32.8084 17.1064 32.8093 17.2221 32.8093 17.3051V20.1892Z" fill="white"/>
<path d="M40.4792 18.3262H38.4107V19.4226H40.7681V20.1892H37.541V15.9252H40.6641V16.6802H38.4107V17.5857H40.4792V18.3262Z" fill="white"/>
<path d="M43.5988 19.5731C43.8088 19.5731 43.9792 19.5499 44.1102 19.5036C44.3587 19.4149 44.4829 19.25 44.4829 19.009C44.4829 18.8682 44.4213 18.7592 44.298 18.6821C44.1747 18.6068 43.9812 18.5403 43.7173 18.4825L43.2666 18.3812C42.8236 18.2809 42.5174 18.172 42.3479 18.0543C42.0609 17.8576 41.9174 17.55 41.9174 17.1315C41.9174 16.7496 42.0561 16.4324 42.3334 16.1797C42.6108 15.9271 43.0181 15.8008 43.5555 15.8008C44.0043 15.8008 44.3866 15.9204 44.7025 16.1595C45.0203 16.3967 45.1869 16.7419 45.2023 17.1951H44.3471C44.3317 16.9386 44.22 16.7564 44.012 16.6484C43.8733 16.577 43.7009 16.5414 43.4948 16.5414C43.2656 16.5414 43.0827 16.5876 42.9459 16.6802C42.8092 16.7728 42.7408 16.902 42.7408 17.0678C42.7408 17.2202 42.8082 17.334 42.943 17.4092C43.0297 17.4593 43.2146 17.5182 43.4977 17.5857L44.2316 17.7621C44.5532 17.8393 44.7959 17.9425 44.9596 18.0717C45.2138 18.2722 45.341 18.5625 45.341 18.9424C45.341 19.332 45.1917 19.656 44.8932 19.9144C44.5965 20.1709 44.1767 20.2992 43.6335 20.2992C43.0788 20.2992 42.6426 20.1728 42.3248 19.9202C42.007 19.6656 41.8481 19.3166 41.8481 18.873H42.6975C42.7244 19.0678 42.7774 19.2134 42.8564 19.3098C43.0008 19.4853 43.2483 19.5731 43.5988 19.5731Z" fill="white"/>
</g>
<defs>
<filter id="filter0_d_2784_194" x="0.817487" y="0.508686" width="121.029" height="155.756" filterUnits="userSpaceOnUse" color-interpolation-filters="sRGB">
<feFlood flood-opacity="0" result="BackgroundImageFix"/>
<feColorMatrix in="SourceAlpha" type="matrix" values="0 0 0 0 0 0 0 0 0 0 0 0 0 0 0 0 0 0 127 0" result="hardAlpha"/>
<feOffset dx="-1.30849" dy="1.30849"/>
<feGaussianBlur stdDeviation="3.09131"/>
<feComposite in2="hardAlpha" operator="out"/>
<feColorMatrix type="matrix" values="0 0 0 0 0 0 0 0 0 0 0 0 0 0 0 0 0 0 0.25 0"/>
<feBlend mode="normal" in2="BackgroundImageFix" result="effect1_dropShadow_2784_194"/>
<feBlend mode="normal" in="SourceGraphic" in2="effect1_dropShadow_2784_194" result="shape"/>
</filter>
<linearGradient id="paint0_linear_2784_194" x1="70.2304" y1="156.751" x2="39.3416" y2="10.5536" gradientUnits="userSpaceOnUse">
<stop stop-color="#F0D85A"/>
<stop offset="1" stop-color="#E48F10"/>
</linearGradient>
</defs>
</svg>
