<svg width="446" height="589" viewBox="0 0 446 589" fill="none" xmlns="http://www.w3.org/2000/svg">
<rect x="0.105469" y="0.5625" width="445.762" height="588.203" rx="21.8392" fill="url(#paint0_linear_3948_2)"/>
<path d="M51.6702 515.765H55.405L60.9351 532.041L66.4259 515.765H70.1214V535.016H67.6446V523.654C67.6446 523.261 67.6534 522.61 67.6708 521.701C67.6883 520.793 67.697 519.819 67.697 518.779L62.2062 535.016H59.6246L54.0945 518.779V519.369C54.0945 519.841 54.1033 520.561 54.1207 521.531C54.1469 522.492 54.1601 523.2 54.1601 523.654V535.016H51.6702V515.765ZM79.347 533.495C80.9108 533.495 81.981 532.906 82.5576 531.726C83.1429 530.538 83.4356 529.219 83.4356 527.769C83.4356 526.458 83.2259 525.393 82.8066 524.571C82.1426 523.278 80.9981 522.632 79.3732 522.632C77.9317 522.632 76.8833 523.182 76.2281 524.283C75.5729 525.384 75.2452 526.712 75.2452 528.267C75.2452 529.761 75.5729 531.006 76.2281 532.002C76.8833 532.998 77.9229 533.495 79.347 533.495ZM79.4387 520.574C81.2471 520.574 82.776 521.177 84.0253 522.383C85.2746 523.588 85.8992 525.362 85.8992 527.703C85.8992 529.966 85.3488 531.836 84.2481 533.312C83.1473 534.788 81.4393 535.527 79.1242 535.527C77.1934 535.527 75.6602 534.876 74.5245 533.574C73.3888 532.264 72.8209 530.508 72.8209 528.306C72.8209 525.947 73.4193 524.069 74.6162 522.671C75.8131 521.273 77.4206 520.574 79.4387 520.574ZM88.7167 520.981H90.9576V522.973C91.6215 522.151 92.3248 521.562 93.0674 521.203C93.81 520.845 94.6356 520.666 95.5442 520.666C97.536 520.666 98.8814 521.361 99.5804 522.75C99.9648 523.51 100.157 524.598 100.157 526.013V535.016H97.7588V526.17C97.7588 525.314 97.6321 524.624 97.3788 524.1C96.9594 523.226 96.1994 522.789 95.0986 522.789C94.5395 522.789 94.0808 522.846 93.7226 522.959C93.0761 523.152 92.5083 523.536 92.019 524.113C91.6259 524.576 91.3682 525.056 91.2459 525.554C91.1323 526.043 91.0755 526.747 91.0755 527.664V535.016H88.7167V520.981ZM109.225 533.495C110.789 533.495 111.859 532.906 112.436 531.726C113.021 530.538 113.314 529.219 113.314 527.769C113.314 526.458 113.104 525.393 112.685 524.571C112.021 523.278 110.876 522.632 109.251 522.632C107.81 522.632 106.762 523.182 106.106 524.283C105.451 525.384 105.124 526.712 105.124 528.267C105.124 529.761 105.451 531.006 106.106 532.002C106.762 532.998 107.801 533.495 109.225 533.495ZM109.317 520.574C111.125 520.574 112.654 521.177 113.904 522.383C115.153 523.588 115.778 525.362 115.778 527.703C115.778 529.966 115.227 531.836 114.126 533.312C113.026 534.788 111.318 535.527 109.003 535.527C107.072 535.527 105.539 534.876 104.403 533.574C103.267 532.264 102.699 530.508 102.699 528.306C102.699 525.947 103.298 524.069 104.495 522.671C105.691 521.273 107.299 520.574 109.317 520.574ZM124.007 520.574C125.588 520.574 126.873 520.959 127.86 521.728C128.856 522.496 129.454 523.82 129.655 525.698H127.362C127.222 524.833 126.903 524.117 126.405 523.549C125.907 522.973 125.108 522.684 124.007 522.684C122.505 522.684 121.43 523.418 120.783 524.886C120.364 525.838 120.154 527.013 120.154 528.411C120.154 529.817 120.452 531.001 121.046 531.962C121.64 532.923 122.574 533.404 123.85 533.404C124.828 533.404 125.602 533.107 126.169 532.513C126.746 531.91 127.144 531.089 127.362 530.049H129.655C129.393 531.91 128.738 533.273 127.69 534.138C126.641 534.994 125.3 535.422 123.666 535.422C121.832 535.422 120.369 534.754 119.276 533.417C118.184 532.071 117.638 530.394 117.638 528.385C117.638 525.921 118.237 524.003 119.434 522.632C120.631 521.26 122.155 520.574 124.007 520.574ZM132.014 515.7H134.373V522.881C134.932 522.173 135.434 521.675 135.88 521.387C136.64 520.889 137.588 520.64 138.724 520.64C140.759 520.64 142.14 521.352 142.865 522.776C143.258 523.554 143.454 524.632 143.454 526.013V535.016H141.03V526.17C141.03 525.139 140.899 524.383 140.637 523.903C140.209 523.134 139.405 522.75 138.226 522.75C137.247 522.75 136.36 523.086 135.565 523.759C134.77 524.432 134.373 525.703 134.373 527.572V535.016H132.014V515.7ZM147.019 520.981H149.26V523.405C149.443 522.933 149.893 522.361 150.609 521.688C151.326 521.007 152.151 520.666 153.086 520.666C153.13 520.666 153.204 520.671 153.309 520.679C153.414 520.688 153.593 520.705 153.846 520.732V523.222C153.706 523.195 153.575 523.178 153.453 523.169C153.34 523.16 153.213 523.156 153.073 523.156C151.885 523.156 150.972 523.54 150.334 524.309C149.696 525.069 149.378 525.947 149.378 526.943V535.016H147.019V520.981ZM161.46 533.495C163.024 533.495 164.094 532.906 164.671 531.726C165.256 530.538 165.549 529.219 165.549 527.769C165.549 526.458 165.339 525.393 164.92 524.571C164.256 523.278 163.111 522.632 161.486 522.632C160.045 522.632 158.996 523.182 158.341 524.283C157.686 525.384 157.358 526.712 157.358 528.267C157.358 529.761 157.686 531.006 158.341 532.002C158.996 532.998 160.036 533.495 161.46 533.495ZM161.552 520.574C163.36 520.574 164.889 521.177 166.138 522.383C167.388 523.588 168.012 525.362 168.012 527.703C168.012 529.966 167.462 531.836 166.361 533.312C165.26 534.788 163.552 535.527 161.237 535.527C159.306 535.527 157.773 534.876 156.637 533.574C155.502 532.264 154.934 530.508 154.934 528.306C154.934 525.947 155.532 524.069 156.729 522.671C157.926 521.273 159.534 520.574 161.552 520.574ZM170.83 520.981H173.162V522.973C173.721 522.282 174.228 521.78 174.682 521.466C175.46 520.933 176.342 520.666 177.33 520.666C178.448 520.666 179.348 520.941 180.029 521.492C180.413 521.806 180.763 522.269 181.077 522.881C181.602 522.13 182.218 521.575 182.925 521.217C183.633 520.85 184.428 520.666 185.31 520.666C187.197 520.666 188.481 521.348 189.163 522.71C189.53 523.444 189.713 524.432 189.713 525.672V535.016H187.263V525.266C187.263 524.331 187.027 523.689 186.555 523.339C186.092 522.99 185.524 522.815 184.852 522.815C183.925 522.815 183.126 523.125 182.453 523.746C181.789 524.366 181.457 525.401 181.457 526.852V535.016H179.059V525.856C179.059 524.903 178.946 524.209 178.719 523.772C178.36 523.117 177.692 522.789 176.714 522.789C175.823 522.789 175.01 523.134 174.276 523.824C173.551 524.515 173.189 525.764 173.189 527.572V535.016H170.83V520.981Z" fill="black"/>
<circle cx="222.938" cy="313.266" r="154.019" stroke="black" stroke-width="6.07172"/>
<path d="M53.6435 60.5V43.1935H64.5218V46.1603H56.907V50.3386H63.9285V53.3054H56.907V60.5H53.6435ZM66.8503 60.5V43.1935H74.3663C75.4541 43.1935 76.4018 43.3831 77.2095 43.7621C78.0171 44.1412 78.6434 44.6769 79.0885 45.3692C79.5335 46.0614 79.756 46.8773 79.756 47.8168V48.1135C79.756 49.1519 79.5088 49.9925 79.0143 50.6353C78.5198 51.2781 77.91 51.7479 77.1848 52.0445V52.4896C77.844 52.5225 78.355 52.7533 78.7176 53.1818C79.0802 53.5939 79.2615 54.146 79.2615 54.8383V60.5H75.998V55.3081C75.998 54.9125 75.8909 54.5911 75.6766 54.3438C75.4788 54.0966 75.1409 53.973 74.6629 53.973H70.1138V60.5H66.8503ZM70.1138 51.0062H74.0201C74.7948 51.0062 75.3964 50.8001 75.825 50.3881C76.27 49.9595 76.4925 49.3991 76.4925 48.7069V48.4596C76.4925 47.7674 76.2782 47.2152 75.8497 46.8031C75.4211 46.3746 74.8113 46.1603 74.0201 46.1603H70.1138V51.0062ZM81.2848 60.5L85.8339 43.1935L91.5204 43.1935L96.0695 60.5H92.7071L91.7676 56.6926H85.5867L84.6472 60.5H81.2848ZM86.3531 53.6763H91.0012L88.8997 45.2456H88.4546L86.3531 53.6763ZM98.1411 60.5V43.1935H104.198L107.19 58.2749H107.635L110.626 43.1935H116.684V60.5H113.519V45.5917H113.074L110.107 60.5L104.718 60.5L101.751 45.5917H101.306V60.5H98.1411ZM119.943 60.5V43.1935H131.069V46.1603H123.207V50.2892H130.377V53.256H123.207V57.5332H131.217V60.5H119.943ZM139.641 60.8461C138.306 60.8461 137.127 60.6071 136.105 60.1291C135.083 59.6512 134.284 58.9671 133.707 58.0771C133.13 57.187 132.842 56.1157 132.842 54.863V54.1708H136.056V54.863C136.056 55.9014 136.377 56.6843 137.02 57.2118C137.663 57.7227 138.536 57.9782 139.641 57.9782C140.762 57.9782 141.594 57.7557 142.138 57.3107C142.698 56.8656 142.978 56.297 142.978 55.6047C142.978 55.1267 142.838 54.7394 142.558 54.4427C142.294 54.146 141.899 53.907 141.371 53.7257C140.86 53.528 140.234 53.3466 139.492 53.1818L138.924 53.0582C137.737 52.7945 136.715 52.4648 135.858 52.0693C135.017 51.6572 134.366 51.1215 133.905 50.4622C133.46 49.8029 133.237 48.9459 133.237 47.891C133.237 46.8361 133.485 45.9378 133.979 45.1961C134.49 44.4379 135.199 43.861 136.105 43.4655C137.028 43.0534 138.108 42.8474 139.344 42.8474C140.58 42.8474 141.676 43.0616 142.632 43.4902C143.605 43.9022 144.363 44.5286 144.907 45.3692C145.467 46.1933 145.747 47.2317 145.747 48.4843V49.2261H142.533V48.4843C142.533 47.8251 142.402 47.2976 142.138 46.902C141.891 46.49 141.528 46.1933 141.05 46.012C140.572 45.8142 140.003 45.7153 139.344 45.7153C138.355 45.7153 137.622 45.9049 137.144 46.2839C136.682 46.6466 136.451 47.1493 136.451 47.7921C136.451 48.2206 136.559 48.5832 136.773 48.8799C137.004 49.1766 137.341 49.4238 137.786 49.6216C138.231 49.8194 138.8 49.9925 139.492 50.1408L140.061 50.2644C141.297 50.5282 142.369 50.8661 143.275 51.2781C144.198 51.6902 144.915 52.2341 145.426 52.9099C145.937 53.5856 146.192 54.451 146.192 55.5058C146.192 56.5607 145.921 57.492 145.377 58.2996C144.849 59.0908 144.091 59.7171 143.102 60.1786C142.13 60.6236 140.976 60.8461 139.641 60.8461Z" fill="black"/>
<defs>
<linearGradient id="paint0_linear_3948_2" x1="222.987" y1="0.5625" x2="222.987" y2="588.765" gradientUnits="userSpaceOnUse">
<stop stop-color="#C8C8C8"/>
<stop offset="1" stop-color="#E6E6E6"/>
</linearGradient>
</defs>
</svg>
