<svg width="153" height="153" viewBox="0 0 153 153" fill="none" xmlns="http://www.w3.org/2000/svg">
<g filter="url(#filter0_d_3480_5626)">
<rect x="6.92188" y="4.46484" width="107.462" height="141.8" rx="5.26486" fill="url(#paint0_linear_3480_5626)"/>
</g>
<g filter="url(#filter1_d_3480_5626)">
<rect x="6.92188" y="4.46484" width="107.462" height="141.8" rx="5.26486" fill="url(#paint1_linear_3480_5626)"/>
</g>
<circle cx="60.6392" cy="79.8501" r="37.13" stroke="black" stroke-width="1.46373"/>
<g opacity="0.5">
<path d="M21.7278 14.9087H19.6164V15.8786H21.465V16.6109H19.6164V18.3789H18.7422V14.1678H21.7278V14.9087Z" fill="black"/>
<path d="M24.6929 16.7253H23.7843V18.3789H22.9243V14.1621H24.99C25.2852 14.1678 25.5119 14.204 25.67 14.2708C25.83 14.3375 25.9652 14.4358 26.0757 14.5654C26.1671 14.6723 26.2395 14.7905 26.2928 14.9202C26.3461 15.0499 26.3728 15.1977 26.3728 15.3636C26.3728 15.5639 26.3223 15.7613 26.2214 15.9558C26.1204 16.1484 25.9538 16.2848 25.7214 16.3649C25.9157 16.4431 26.0528 16.5547 26.1328 16.6996C26.2147 16.8426 26.2557 17.062 26.2557 17.3576V17.6408L26.2505 18.0327V18.273V18.3789H25.3757V18.1586C25.3757 18.1586 25.3776 17.9135 25.3757 17.7896L25.37 17.3976C25.3662 17.1287 25.3167 16.9494 25.2214 16.8598C25.1281 16.7702 24.9519 16.7253 24.6929 16.7253ZM25.2271 15.9587C25.4024 15.8786 25.49 15.7203 25.49 15.4838C25.49 15.2282 25.4052 15.0566 25.2357 14.9688C25.1405 14.9192 24.9976 14.8944 24.8071 14.8944H23.7843V16.0273H24.7814C24.9795 16.0273 25.1281 16.0044 25.2271 15.9587Z" fill="black"/>
<path d="M30.1836 17.5121H28.6322L28.3408 18.3789H27.4208L28.9236 14.1621H29.9179L31.4092 18.3789H30.455L30.1836 17.5121ZM29.9378 16.7854L29.4122 15.1262L28.8693 16.7854H29.9378Z" fill="black"/>
<path d="M33.3372 18.3789H32.5172V14.1621H33.7972L34.5629 17.4777L35.3228 14.1621H36.5885V18.3789H35.7685V15.5267C35.7685 15.4447 35.7695 15.3302 35.7714 15.1834C35.7733 15.0346 35.7742 14.9202 35.7742 14.8401L34.9771 18.3789H34.1229L33.3315 14.8401C33.3315 14.9202 33.3324 15.0346 33.3343 15.1834C33.3362 15.3302 33.3372 15.4447 33.3372 15.5267V18.3789Z" fill="black"/>
<path d="M40.9221 16.5365H38.8764V17.6208H41.2078V18.3789H38.0165V14.1621H41.1049V14.9087H38.8764V15.8042H40.9221V16.5365Z" fill="black"/>
<path d="M44.0071 17.7695C44.2148 17.7695 44.3833 17.7466 44.5128 17.7009C44.7585 17.6131 44.8814 17.4501 44.8814 17.2117C44.8814 17.0725 44.8204 16.9647 44.6985 16.8884C44.5766 16.814 44.3852 16.7482 44.1243 16.691L43.6786 16.5909C43.2405 16.4917 42.9376 16.384 42.77 16.2676C42.4862 16.0731 42.3443 15.7689 42.3443 15.355C42.3443 14.9774 42.4815 14.6637 42.7557 14.4138C43.03 14.164 43.4329 14.0391 43.9643 14.0391C44.4081 14.0391 44.7862 14.1573 45.0985 14.3938C45.4128 14.6284 45.5776 14.9698 45.5928 15.418H44.7471C44.7319 15.1643 44.6214 14.9841 44.4157 14.8773C44.2786 14.8067 44.1081 14.7714 43.9043 14.7714C43.6776 14.7714 43.4967 14.8172 43.3614 14.9087C43.2262 15.0003 43.1586 15.1281 43.1586 15.2921C43.1586 15.4428 43.2253 15.5553 43.3586 15.6297C43.4443 15.6792 43.6272 15.7374 43.9071 15.8042L44.6328 15.9787C44.9509 16.055 45.1909 16.157 45.3528 16.2848C45.6042 16.4831 45.7299 16.7702 45.7299 17.1459C45.7299 17.5311 45.5823 17.8515 45.2871 18.1071C44.9938 18.3608 44.5786 18.4876 44.0414 18.4876C43.4929 18.4876 43.0615 18.3627 42.7472 18.1128C42.4329 17.8611 42.2758 17.5159 42.2758 17.0772H43.1157C43.1424 17.2699 43.1948 17.4138 43.2729 17.5092C43.4157 17.6828 43.6605 17.7695 44.0071 17.7695Z" fill="black"/>
</g>
<path opacity="0.72" d="M19.3561 132.047H20.264L21.6084 136.003L22.9433 132.047H23.8417V136.727H23.2395V133.964C23.2395 133.869 23.2417 133.711 23.2459 133.49C23.2502 133.269 23.2523 133.032 23.2523 132.779L21.9174 136.727H21.2898L19.9454 132.779V132.923C19.9454 133.037 19.9476 133.213 19.9518 133.448C19.9582 133.682 19.9614 133.854 19.9614 133.964V136.727H19.3561V132.047ZM26.0845 136.357C26.4646 136.357 26.7248 136.214 26.865 135.927C27.0073 135.638 27.0784 135.317 27.0784 134.965C27.0784 134.646 27.0275 134.387 26.9255 134.187C26.7641 133.873 26.4859 133.716 26.0908 133.716C25.7404 133.716 25.4855 133.85 25.3262 134.117C25.1669 134.385 25.0873 134.708 25.0873 135.086C25.0873 135.449 25.1669 135.752 25.3262 135.994C25.4855 136.236 25.7383 136.357 26.0845 136.357ZM26.1068 133.216C26.5464 133.216 26.9181 133.362 27.2218 133.655C27.5255 133.949 27.6774 134.38 27.6774 134.949C27.6774 135.499 27.5436 135.953 27.2759 136.312C27.0083 136.671 26.5931 136.851 26.0303 136.851C25.5609 136.851 25.1882 136.693 24.9121 136.376C24.636 136.058 24.4979 135.631 24.4979 135.095C24.4979 134.522 24.6434 134.065 24.9344 133.726C25.2254 133.386 25.6161 133.216 26.1068 133.216ZM28.3623 133.315H28.9071V133.799C29.0685 133.599 29.2395 133.456 29.42 133.369C29.6005 133.282 29.8012 133.238 30.0221 133.238C30.5063 133.238 30.8334 133.407 31.0033 133.745C31.0968 133.929 31.1435 134.194 31.1435 134.538V136.727H30.5605V134.576C30.5605 134.368 30.5297 134.2 30.4681 134.073C30.3662 133.86 30.1814 133.754 29.9138 133.754C29.7779 133.754 29.6664 133.768 29.5793 133.796C29.4221 133.842 29.2841 133.936 29.1651 134.076C29.0696 134.189 29.0069 134.305 28.9772 134.426C28.9496 134.545 28.9357 134.716 28.9357 134.939V136.727H28.3623V133.315ZM33.3481 136.357C33.7283 136.357 33.9884 136.214 34.1286 135.927C34.2709 135.638 34.342 135.317 34.342 134.965C34.342 134.646 34.2911 134.387 34.1891 134.187C34.0277 133.873 33.7495 133.716 33.3545 133.716C33.004 133.716 32.7491 133.85 32.5899 134.117C32.4306 134.385 32.3509 134.708 32.3509 135.086C32.3509 135.449 32.4306 135.752 32.5899 135.994C32.7491 136.236 33.0019 136.357 33.3481 136.357ZM33.3704 133.216C33.81 133.216 34.1817 133.362 34.4854 133.655C34.7891 133.949 34.941 134.38 34.941 134.949C34.941 135.499 34.8072 135.953 34.5396 136.312C34.272 136.671 33.8567 136.851 33.2939 136.851C32.8245 136.851 32.4518 136.693 32.1757 136.376C31.8996 136.058 31.7616 135.631 31.7616 135.095C31.7616 134.522 31.907 134.065 32.198 133.726C32.489 133.386 32.8798 133.216 33.3704 133.216ZM36.9417 133.216C37.3261 133.216 37.6383 133.309 37.8783 133.496C38.1204 133.683 38.2659 134.005 38.3147 134.461H37.7572C37.7232 134.251 37.6457 134.077 37.5247 133.939C37.4036 133.799 37.2093 133.729 36.9417 133.729C36.5764 133.729 36.3151 133.907 36.158 134.264C36.056 134.495 36.005 134.781 36.005 135.121C36.005 135.463 36.0772 135.751 36.2217 135.984C36.3661 136.218 36.5933 136.335 36.9034 136.335C37.1413 136.335 37.3293 136.262 37.4673 136.118C37.6075 135.972 37.7041 135.772 37.7572 135.519H38.3147C38.251 135.972 38.0917 136.303 37.8369 136.513C37.582 136.721 37.256 136.825 36.8588 136.825C36.4128 136.825 36.0571 136.663 35.7916 136.338C35.5261 136.011 35.3934 135.603 35.3934 135.115C35.3934 134.516 35.5388 134.049 35.8298 133.716C36.1208 133.383 36.4914 133.216 36.9417 133.216ZM38.8882 132.031H39.4616V133.777C39.5976 133.604 39.7197 133.483 39.828 133.413C40.0128 133.292 40.2432 133.232 40.5193 133.232C41.0142 133.232 41.3497 133.405 41.526 133.751C41.6216 133.94 41.6694 134.202 41.6694 134.538V136.727H41.08V134.576C41.08 134.326 41.0482 134.142 40.9844 134.025C40.8804 133.838 40.685 133.745 40.3982 133.745C40.1604 133.745 39.9448 133.826 39.7515 133.99C39.5583 134.154 39.4616 134.463 39.4616 134.917V136.727H38.8882V132.031ZM42.5359 133.315H43.0807V133.904C43.1253 133.789 43.2347 133.65 43.4088 133.487C43.583 133.321 43.7837 133.238 44.0109 133.238C44.0216 133.238 44.0396 133.239 44.0651 133.241C44.0906 133.243 44.1341 133.248 44.1957 133.254V133.859C44.1617 133.853 44.1299 133.849 44.1001 133.847C44.0725 133.844 44.0417 133.843 44.0078 133.843C43.7189 133.843 43.497 133.937 43.3419 134.124C43.1869 134.309 43.1094 134.522 43.1094 134.764V136.727H42.5359V133.315ZM46.0467 136.357C46.4268 136.357 46.687 136.214 46.8272 135.927C46.9695 135.638 47.0406 135.317 47.0406 134.965C47.0406 134.646 46.9897 134.387 46.8877 134.187C46.7263 133.873 46.4481 133.716 46.053 133.716C45.7026 133.716 45.4477 133.85 45.2884 134.117C45.1292 134.385 45.0495 134.708 45.0495 135.086C45.0495 135.449 45.1292 135.752 45.2884 135.994C45.4477 136.236 45.7005 136.357 46.0467 136.357ZM46.069 133.216C46.5086 133.216 46.8803 133.362 47.184 133.655C47.4877 133.949 47.6396 134.38 47.6396 134.949C47.6396 135.499 47.5058 135.953 47.2382 136.312C46.9705 136.671 46.5553 136.851 45.9925 136.851C45.5231 136.851 45.1504 136.693 44.8743 136.376C44.5982 136.058 44.4601 135.631 44.4601 135.095C44.4601 134.522 44.6056 134.065 44.8966 133.726C45.1876 133.386 45.5784 133.216 46.069 133.216ZM48.3245 133.315H48.8916V133.799C49.0275 133.631 49.1507 133.509 49.2611 133.432C49.4502 133.303 49.6647 133.238 49.9047 133.238C50.1765 133.238 50.3953 133.305 50.5609 133.439C50.6544 133.515 50.7393 133.628 50.8158 133.777C50.9432 133.594 51.093 133.459 51.265 133.372C51.437 133.283 51.6303 133.238 51.8448 133.238C52.3036 133.238 52.6158 133.404 52.7814 133.735C52.8706 133.914 52.9152 134.154 52.9152 134.455V136.727H52.3195V134.356C52.3195 134.129 52.2622 133.973 52.1475 133.888C52.0349 133.803 51.8969 133.761 51.7333 133.761C51.5082 133.761 51.3139 133.836 51.1503 133.987C50.9889 134.138 50.9082 134.389 50.9082 134.742V136.727H50.3252V134.5C50.3252 134.268 50.2976 134.099 50.2424 133.993C50.1553 133.834 49.9928 133.754 49.7549 133.754C49.5383 133.754 49.3408 133.838 49.1624 134.006C48.9861 134.174 48.898 134.477 48.898 134.917V136.727H48.3245V133.315Z" fill="black"/>
<g filter="url(#filter2_d_3480_5626)">
<rect x="40.7695" y="4.46484" width="107.462" height="141.8" rx="5.26486" fill="url(#paint2_linear_3480_5626)"/>
</g>
<g filter="url(#filter3_d_3480_5626)">
<rect x="40.7695" y="4.46484" width="107.462" height="141.8" rx="5.26486" fill="url(#paint3_linear_3480_5626)"/>
</g>
<circle cx="94.4869" cy="79.8501" r="37.13" stroke="black" stroke-width="1.46373"/>
<g opacity="0.5">
<path d="M55.5755 14.9087H53.4641V15.8786H55.3126V16.6109H53.4641V18.3789H52.5898V14.1678H55.5755V14.9087Z" fill="black"/>
<path d="M58.5405 16.7253H57.632V18.3789H56.772V14.1621H58.8377C59.1329 14.1678 59.3595 14.204 59.5176 14.2708C59.6776 14.3375 59.8129 14.4358 59.9233 14.5654C60.0148 14.6723 60.0871 14.7905 60.1405 14.9202C60.1938 15.0499 60.2205 15.1977 60.2205 15.3636C60.2205 15.5639 60.17 15.7613 60.069 15.9558C59.9681 16.1484 59.8014 16.2848 59.5691 16.3649C59.7633 16.4431 59.9005 16.5547 59.9805 16.6996C60.0624 16.8426 60.1033 17.062 60.1033 17.3576V17.6408L60.0982 18.0327V18.273V18.3789H59.2234V18.1586C59.2234 18.1586 59.2253 17.9135 59.2234 17.7896L59.2176 17.3976C59.2138 17.1287 59.1643 16.9494 59.0691 16.8598C58.9757 16.7702 58.7996 16.7253 58.5405 16.7253ZM59.0748 15.9587C59.25 15.8786 59.3376 15.7203 59.3376 15.4838C59.3376 15.2282 59.2529 15.0566 59.0834 14.9688C58.9881 14.9192 58.8453 14.8944 58.6548 14.8944H57.632V16.0273H58.6291C58.8272 16.0273 58.9757 16.0044 59.0748 15.9587Z" fill="black"/>
<path d="M64.0312 17.5121H62.4798L62.1884 18.3789H61.2684L62.7713 14.1621H63.7655L65.2569 18.3789H64.3026L64.0312 17.5121ZM63.7855 16.7854L63.2598 15.1262L62.717 16.7854H63.7855Z" fill="black"/>
<path d="M67.1848 18.3789H66.3649V14.1621H67.6448L68.4105 17.4777L69.1705 14.1621H70.4362V18.3789H69.6162V15.5267C69.6162 15.4447 69.6171 15.3302 69.619 15.1834C69.6209 15.0346 69.6219 14.9202 69.6219 14.8401L68.8248 18.3789H67.9705L67.1791 14.8401C67.1791 14.9202 67.1801 15.0346 67.182 15.1834C67.1839 15.3302 67.1848 15.4447 67.1848 15.5267V18.3789Z" fill="black"/>
<path d="M74.7697 16.5365H72.7241V17.6208H75.0555V18.3789H71.8641V14.1621H74.9526V14.9087H72.7241V15.8042H74.7697V16.5365Z" fill="black"/>
<path d="M77.8548 17.7695C78.0624 17.7695 78.231 17.7466 78.3605 17.7009C78.6062 17.6131 78.7291 17.4501 78.7291 17.2117C78.7291 17.0725 78.6681 16.9647 78.5462 16.8884C78.4243 16.814 78.2329 16.7482 77.9719 16.691L77.5262 16.5909C77.0882 16.4917 76.7853 16.384 76.6177 16.2676C76.3339 16.0731 76.192 15.7689 76.192 15.355C76.192 14.9774 76.3291 14.6637 76.6034 14.4138C76.8777 14.164 77.2805 14.0391 77.8119 14.0391C78.2557 14.0391 78.6338 14.1573 78.9462 14.3938C79.2605 14.6284 79.4252 14.9698 79.4405 15.418H78.5948C78.5795 15.1643 78.4691 14.9841 78.2634 14.8773C78.1262 14.8067 77.9557 14.7714 77.7519 14.7714C77.5253 14.7714 77.3443 14.8172 77.2091 14.9087C77.0739 15.0003 77.0063 15.1281 77.0063 15.2921C77.0063 15.4428 77.0729 15.5553 77.2062 15.6297C77.292 15.6792 77.4748 15.7374 77.7548 15.8042L78.4805 15.9787C78.7986 16.055 79.0386 16.157 79.2005 16.2848C79.4519 16.4831 79.5776 16.7702 79.5776 17.1459C79.5776 17.5311 79.43 17.8515 79.1348 18.1071C78.8414 18.3608 78.4262 18.4876 77.8891 18.4876C77.3405 18.4876 76.9091 18.3627 76.5948 18.1128C76.2806 17.8611 76.1234 17.5159 76.1234 17.0772H76.9634C76.9901 17.2699 77.0424 17.4138 77.1205 17.5092C77.2634 17.6828 77.5081 17.7695 77.8548 17.7695Z" fill="black"/>
</g>
<path opacity="0.72" d="M53.2037 132.047H54.1117L55.4561 136.003L56.7909 132.047H57.6893V136.727H57.0872V133.964C57.0872 133.869 57.0893 133.711 57.0936 133.49C57.0978 133.269 57.0999 133.032 57.0999 132.779L55.7651 136.727H55.1375L53.7931 132.779V132.923C53.7931 133.037 53.7952 133.213 53.7995 133.448C53.8058 133.682 53.809 133.854 53.809 133.964V136.727H53.2037V132.047ZM59.9321 136.357C60.3123 136.357 60.5725 136.214 60.7126 135.927C60.8549 135.638 60.9261 135.317 60.9261 134.965C60.9261 134.646 60.8751 134.387 60.7732 134.187C60.6118 133.873 60.3335 133.716 59.9385 133.716C59.588 133.716 59.3332 133.85 59.1739 134.117C59.0146 134.385 58.935 134.708 58.935 135.086C58.935 135.449 59.0146 135.752 59.1739 135.994C59.3332 136.236 59.5859 136.357 59.9321 136.357ZM59.9544 133.216C60.3941 133.216 60.7657 133.362 61.0694 133.655C61.3732 133.949 61.525 134.38 61.525 134.949C61.525 135.499 61.3912 135.953 61.1236 136.312C60.856 136.671 60.4408 136.851 59.878 136.851C59.4086 136.851 59.0358 136.693 58.7597 136.376C58.4836 136.058 58.3456 135.631 58.3456 135.095C58.3456 134.522 58.4911 134.065 58.782 133.726C59.073 133.386 59.4638 133.216 59.9544 133.216ZM62.21 133.315H62.7547V133.799C62.9161 133.599 63.0871 133.456 63.2676 133.369C63.4482 133.282 63.6489 133.238 63.8698 133.238C64.354 133.238 64.6811 133.407 64.851 133.745C64.9444 133.929 64.9912 134.194 64.9912 134.538V136.727H64.4082V134.576C64.4082 134.368 64.3774 134.2 64.3158 134.073C64.2138 133.86 64.0291 133.754 63.7614 133.754C63.6255 133.754 63.514 133.768 63.4269 133.796C63.2698 133.842 63.1317 133.936 63.0128 134.076C62.9172 134.189 62.8546 134.305 62.8248 134.426C62.7972 134.545 62.7834 134.716 62.7834 134.939V136.727H62.21V133.315ZM67.1957 136.357C67.5759 136.357 67.8361 136.214 67.9763 135.927C68.1186 135.638 68.1897 135.317 68.1897 134.965C68.1897 134.646 68.1387 134.387 68.0368 134.187C67.8754 133.873 67.5971 133.716 67.2021 133.716C66.8517 133.716 66.5968 133.85 66.4375 134.117C66.2782 134.385 66.1986 134.708 66.1986 135.086C66.1986 135.449 66.2782 135.752 66.4375 135.994C66.5968 136.236 66.8495 136.357 67.1957 136.357ZM67.218 133.216C67.6577 133.216 68.0294 133.362 68.3331 133.655C68.6368 133.949 68.7886 134.38 68.7886 134.949C68.7886 135.499 68.6548 135.953 68.3872 136.312C68.1196 136.671 67.7044 136.851 67.1416 136.851C66.6722 136.851 66.2995 136.693 66.0234 136.376C65.7473 136.058 65.6092 135.631 65.6092 135.095C65.6092 134.522 65.7547 134.065 66.0457 133.726C66.3366 133.386 66.7274 133.216 67.218 133.216ZM70.7893 133.216C71.1737 133.216 71.4859 133.309 71.7259 133.496C71.9681 133.683 72.1135 134.005 72.1624 134.461H71.6049C71.5709 134.251 71.4934 134.077 71.3723 133.939C71.2513 133.799 71.0569 133.729 70.7893 133.729C70.424 133.729 70.1628 133.907 70.0056 134.264C69.9037 134.495 69.8527 134.781 69.8527 135.121C69.8527 135.463 69.9249 135.751 70.0693 135.984C70.2137 136.218 70.441 136.335 70.7511 136.335C70.989 136.335 71.1769 136.262 71.315 136.118C71.4551 135.972 71.5518 135.772 71.6049 135.519H72.1624C72.0987 135.972 71.9394 136.303 71.6845 136.513C71.4297 136.721 71.1036 136.825 70.7065 136.825C70.2605 136.825 69.9047 136.663 69.6392 136.338C69.3738 136.011 69.241 135.603 69.241 135.115C69.241 134.516 69.3865 134.049 69.6775 133.716C69.9684 133.383 70.3391 133.216 70.7893 133.216ZM72.7358 132.031H73.3093V133.777C73.4452 133.604 73.5673 133.483 73.6756 133.413C73.8604 133.292 74.0909 133.232 74.367 133.232C74.8618 133.232 75.1974 133.405 75.3737 133.751C75.4693 133.94 75.517 134.202 75.517 134.538V136.727H74.9277V134.576C74.9277 134.326 74.8958 134.142 74.8321 134.025C74.728 133.838 74.5326 133.745 74.2459 133.745C74.008 133.745 73.7925 133.826 73.5992 133.99C73.4059 134.154 73.3093 134.463 73.3093 134.917V136.727H72.7358V132.031ZM76.3836 133.315H76.9283V133.904C76.9729 133.789 77.0823 133.65 77.2565 133.487C77.4306 133.321 77.6313 133.238 77.8586 133.238C77.8692 133.238 77.8873 133.239 77.9128 133.241C77.9382 133.243 77.9818 133.248 78.0434 133.254V133.859C78.0094 133.853 77.9775 133.849 77.9478 133.847C77.9202 133.844 77.8894 133.843 77.8554 133.843C77.5666 133.843 77.3446 133.937 77.1896 134.124C77.0345 134.309 76.957 134.522 76.957 134.764V136.727H76.3836V133.315ZM79.8943 136.357C80.2745 136.357 80.5347 136.214 80.6748 135.927C80.8171 135.638 80.8883 135.317 80.8883 134.965C80.8883 134.646 80.8373 134.387 80.7354 134.187C80.574 133.873 80.2957 133.716 79.9007 133.716C79.5503 133.716 79.2954 133.85 79.1361 134.117C78.9768 134.385 78.8972 134.708 78.8972 135.086C78.8972 135.449 78.9768 135.752 79.1361 135.994C79.2954 136.236 79.5481 136.357 79.8943 136.357ZM79.9166 133.216C80.3563 133.216 80.7279 133.362 81.0317 133.655C81.3354 133.949 81.4872 134.38 81.4872 134.949C81.4872 135.499 81.3534 135.953 81.0858 136.312C80.8182 136.671 80.403 136.851 79.8402 136.851C79.3708 136.851 78.9981 136.693 78.722 136.376C78.4458 136.058 78.3078 135.631 78.3078 135.095C78.3078 134.522 78.4533 134.065 78.7443 133.726C79.0352 133.386 79.426 133.216 79.9166 133.216ZM82.1722 133.315H82.7392V133.799C82.8752 133.631 82.9984 133.509 83.1088 133.432C83.2978 133.303 83.5123 133.238 83.7523 133.238C84.0242 133.238 84.2429 133.305 84.4086 133.439C84.502 133.515 84.587 133.628 84.6635 133.777C84.7909 133.594 84.9406 133.459 85.1127 133.372C85.2847 133.283 85.478 133.238 85.6925 133.238C86.1512 133.238 86.4634 133.404 86.6291 133.735C86.7183 133.914 86.7629 134.154 86.7629 134.455V136.727H86.1672V134.356C86.1672 134.129 86.1098 133.973 85.9951 133.888C85.8826 133.803 85.7445 133.761 85.581 133.761C85.3558 133.761 85.1615 133.836 84.998 133.987C84.8366 134.138 84.7559 134.389 84.7559 134.742V136.727H84.1729V134.5C84.1729 134.268 84.1452 134.099 84.09 133.993C84.0029 133.834 83.8405 133.754 83.6026 133.754C83.386 133.754 83.1884 133.838 83.01 134.006C82.8338 134.174 82.7456 134.477 82.7456 134.917V136.727H82.1722V133.315Z" fill="black"/>
<defs>
<filter id="filter0_d_3480_5626" x="0.516623" y="0.647573" width="117.683" height="152.023" filterUnits="userSpaceOnUse" color-interpolation-filters="sRGB">
<feFlood flood-opacity="0" result="BackgroundImageFix"/>
<feColorMatrix in="SourceAlpha" type="matrix" values="0 0 0 0 0 0 0 0 0 0 0 0 0 0 0 0 0 0 127 0" result="hardAlpha"/>
<feOffset dx="-1.29399" dy="1.29399"/>
<feGaussianBlur stdDeviation="2.55563"/>
<feComposite in2="hardAlpha" operator="out"/>
<feColorMatrix type="matrix" values="0 0 0 0 0 0 0 0 0 0 0 0 0 0 0 0 0 0 0.25 0"/>
<feBlend mode="normal" in2="BackgroundImageFix" result="effect1_dropShadow_3480_5626"/>
<feBlend mode="normal" in="SourceGraphic" in2="effect1_dropShadow_3480_5626" result="shape"/>
</filter>
<filter id="filter1_d_3480_5626" x="0.516623" y="0.647573" width="117.683" height="152.023" filterUnits="userSpaceOnUse" color-interpolation-filters="sRGB">
<feFlood flood-opacity="0" result="BackgroundImageFix"/>
<feColorMatrix in="SourceAlpha" type="matrix" values="0 0 0 0 0 0 0 0 0 0 0 0 0 0 0 0 0 0 127 0" result="hardAlpha"/>
<feOffset dx="-1.29399" dy="1.29399"/>
<feGaussianBlur stdDeviation="2.55563"/>
<feComposite in2="hardAlpha" operator="out"/>
<feColorMatrix type="matrix" values="0 0 0 0 0 0 0 0 0 0 0 0 0 0 0 0 0 0 0.25 0"/>
<feBlend mode="normal" in2="BackgroundImageFix" result="effect1_dropShadow_3480_5626"/>
<feBlend mode="normal" in="SourceGraphic" in2="effect1_dropShadow_3480_5626" result="shape"/>
</filter>
<filter id="filter2_d_3480_5626" x="34.3643" y="0.647573" width="117.683" height="152.023" filterUnits="userSpaceOnUse" color-interpolation-filters="sRGB">
<feFlood flood-opacity="0" result="BackgroundImageFix"/>
<feColorMatrix in="SourceAlpha" type="matrix" values="0 0 0 0 0 0 0 0 0 0 0 0 0 0 0 0 0 0 127 0" result="hardAlpha"/>
<feOffset dx="-1.29399" dy="1.29399"/>
<feGaussianBlur stdDeviation="2.55563"/>
<feComposite in2="hardAlpha" operator="out"/>
<feColorMatrix type="matrix" values="0 0 0 0 0 0 0 0 0 0 0 0 0 0 0 0 0 0 0.25 0"/>
<feBlend mode="normal" in2="BackgroundImageFix" result="effect1_dropShadow_3480_5626"/>
<feBlend mode="normal" in="SourceGraphic" in2="effect1_dropShadow_3480_5626" result="shape"/>
</filter>
<filter id="filter3_d_3480_5626" x="34.3643" y="0.647573" width="117.683" height="152.023" filterUnits="userSpaceOnUse" color-interpolation-filters="sRGB">
<feFlood flood-opacity="0" result="BackgroundImageFix"/>
<feColorMatrix in="SourceAlpha" type="matrix" values="0 0 0 0 0 0 0 0 0 0 0 0 0 0 0 0 0 0 127 0" result="hardAlpha"/>
<feOffset dx="-1.29399" dy="1.29399"/>
<feGaussianBlur stdDeviation="2.55563"/>
<feComposite in2="hardAlpha" operator="out"/>
<feColorMatrix type="matrix" values="0 0 0 0 0 0 0 0 0 0 0 0 0 0 0 0 0 0 0.25 0"/>
<feBlend mode="normal" in2="BackgroundImageFix" result="effect1_dropShadow_3480_5626"/>
<feBlend mode="normal" in="SourceGraphic" in2="effect1_dropShadow_3480_5626" result="shape"/>
</filter>
<linearGradient id="paint0_linear_3480_5626" x1="58.928" y1="6.47827" x2="110.086" y2="157.58" gradientUnits="userSpaceOnUse">
<stop stop-color="#B2B2B2"/>
<stop offset="1" stop-color="#E1E1E1"/>
</linearGradient>
<linearGradient id="paint1_linear_3480_5626" x1="58.928" y1="6.47827" x2="110.086" y2="157.58" gradientUnits="userSpaceOnUse">
<stop stop-color="#B2B2B2"/>
<stop offset="1" stop-color="#E1E1E1"/>
</linearGradient>
<linearGradient id="paint2_linear_3480_5626" x1="92.7756" y1="6.47827" x2="143.934" y2="157.58" gradientUnits="userSpaceOnUse">
<stop stop-color="#B2B2B2"/>
<stop offset="1" stop-color="#E1E1E1"/>
</linearGradient>
<linearGradient id="paint3_linear_3480_5626" x1="92.7756" y1="6.47827" x2="143.934" y2="157.58" gradientUnits="userSpaceOnUse">
<stop stop-color="#B2B2B2"/>
<stop offset="1" stop-color="#E1E1E1"/>
</linearGradient>
</defs>
</svg>
