<svg width="159" height="178" viewBox="0 0 159 178" fill="none" xmlns="http://www.w3.org/2000/svg">
<path d="M0 6.41143C0 2.94384 2.81103 0.132812 6.27862 0.132812H121.875C125.343 0.132812 128.154 2.94385 128.154 6.41143V162.958C128.154 166.426 125.343 169.237 121.875 169.237H6.27863C2.81104 169.237 0 166.426 0 162.958V6.41143Z" fill="url(#paint0_linear_3746_407)"/>
<path d="M16.8585 147.821C17.6505 147.821 18.2651 148.029 18.7022 148.447C19.1394 148.864 19.3821 149.338 19.4303 149.869H18.6043C18.5106 149.466 18.3233 149.146 18.0422 148.911C17.764 148.675 17.3723 148.557 16.867 148.557C16.251 148.557 15.7529 148.775 15.3725 149.209C14.9949 149.64 14.8062 150.303 14.8062 151.197C14.8062 151.93 14.9765 152.524 15.3171 152.981C15.6606 153.436 16.1716 153.663 16.85 153.663C17.4745 153.663 17.95 153.423 18.2764 152.943C18.4496 152.691 18.5787 152.358 18.6639 151.947H19.4899C19.4161 152.605 19.172 153.157 18.7576 153.603C18.2608 154.14 17.5909 154.408 16.7478 154.408C16.0211 154.408 15.4108 154.188 14.9169 153.748C14.2668 153.166 13.9418 152.268 13.9418 151.053C13.9418 150.13 14.1859 149.374 14.6742 148.783C15.2022 148.142 15.9303 147.821 16.8585 147.821ZM22.2321 153.752C22.7402 153.752 23.0879 153.561 23.2753 153.177C23.4654 152.791 23.5605 152.363 23.5605 151.891C23.5605 151.466 23.4924 151.119 23.3562 150.852C23.1404 150.432 22.7686 150.222 22.2406 150.222C21.7722 150.222 21.4316 150.401 21.2187 150.759C21.0058 151.116 20.8993 151.548 20.8993 152.053C20.8993 152.539 21.0058 152.943 21.2187 153.267C21.4316 153.59 21.7694 153.752 22.2321 153.752ZM22.2619 149.554C22.8495 149.554 23.3462 149.75 23.7521 150.141C24.1581 150.533 24.361 151.109 24.361 151.87C24.361 152.605 24.1822 153.213 23.8245 153.693C23.4669 154.172 22.9119 154.412 22.1597 154.412C21.5323 154.412 21.0342 154.201 20.6651 153.778C20.2961 153.352 20.1116 152.781 20.1116 152.066C20.1116 151.3 20.306 150.689 20.6949 150.235C21.0838 149.781 21.6061 149.554 22.2619 149.554ZM25.2978 147.991H26.0642V154.246H25.2978V147.991ZM29.0278 153.752C29.5359 153.752 29.8836 153.561 30.071 153.177C30.2612 152.791 30.3562 152.363 30.3562 151.891C30.3562 151.466 30.2881 151.119 30.1519 150.852C29.9361 150.432 29.5643 150.222 29.0363 150.222C28.5679 150.222 28.2273 150.401 28.0144 150.759C27.8015 151.116 27.695 151.548 27.695 152.053C27.695 152.539 27.8015 152.943 28.0144 153.267C28.2273 153.59 28.5651 153.752 29.0278 153.752ZM29.0576 149.554C29.6452 149.554 30.1419 149.75 30.5479 150.141C30.9538 150.533 31.1567 151.109 31.1567 151.87C31.1567 152.605 30.9779 153.213 30.6202 153.693C30.2626 154.172 29.7076 154.412 28.9554 154.412C28.328 154.412 27.8299 154.201 27.4608 153.778C27.0918 153.352 26.9073 152.781 26.9073 152.066C26.9073 151.3 27.1017 150.689 27.4906 150.235C27.8795 149.781 28.4018 149.554 29.0576 149.554ZM32.0935 149.686H32.8216V150.474C32.8812 150.32 33.0274 150.134 33.2602 149.916C33.4929 149.694 33.7612 149.584 34.0649 149.584C34.0791 149.584 34.1033 149.585 34.1373 149.588C34.1714 149.591 34.2296 149.596 34.3119 149.605V150.414C34.2665 150.405 34.2239 150.4 34.1842 150.397C34.1472 150.394 34.1061 150.393 34.0607 150.393C33.6746 150.393 33.378 150.518 33.1708 150.767C32.9635 151.014 32.8599 151.3 32.8599 151.623V154.246H32.0935V149.686Z" fill="black"/>
<circle cx="64.0663" cy="84.6874" r="44.2795" stroke="black" stroke-width="1.74558"/>
<path d="M47.3086 19.9649H48.0423V20.6798H47.3086V19.9649Z" fill="black"/>
<path d="M50.6103 19.9649H51.344V20.6798H50.6103V19.9649Z" fill="black"/>
<path d="M49.5097 19.9649H50.2434V20.6798H49.5097V19.9649Z" fill="black"/>
<path d="M48.4092 19.9649H49.1429V20.6798H48.4092V19.9649Z" fill="black"/>
<path d="M13.5586 19.9649H14.2923V20.6798H13.5586V19.9649Z" fill="black"/>
<path d="M40.4608 19.9649H41.1945V20.6798H40.4608V19.9649Z" fill="black"/>
<path d="M26.3983 19.9649H27.132V20.6798H26.3983V19.9649Z" fill="black"/>
<path d="M30.8005 19.9649H31.5342V20.6798H30.8005V19.9649Z" fill="black"/>
<path d="M33.0015 19.9649H33.7352V20.6798H33.0015V19.9649Z" fill="black"/>
<path d="M37.8929 19.9649H38.6266V20.6798H37.8929V19.9649Z" fill="black"/>
<path d="M19.9173 19.9649H20.651V20.6798H19.9173V19.9649Z" fill="black"/>
<path d="M13.5586 18.8926H14.2923V19.6075H13.5586V18.8926Z" fill="black"/>
<path d="M40.4608 18.8926H41.1945V19.6075H40.4608V18.8926Z" fill="black"/>
<path d="M26.3983 18.8926H27.132V19.6075H26.3983V18.8926Z" fill="black"/>
<path d="M30.8005 18.8926H31.5342V19.6075H30.8005V18.8926Z" fill="black"/>
<path d="M33.0015 18.8926H33.7352V19.6075H33.0015V18.8926Z" fill="black"/>
<path d="M37.8929 18.8926H38.6266V19.6075H37.8929V18.8926Z" fill="black"/>
<path d="M19.9173 18.8926H20.651V19.6075H19.9173V18.8926Z" fill="black"/>
<path d="M13.5586 17.8203H14.2923V18.5352H13.5586V17.8203Z" fill="black"/>
<path d="M47.3086 17.8203H48.0423V18.5352H47.3086V17.8203Z" fill="black"/>
<path d="M40.4608 17.8203H41.1945V18.5352H40.4608V17.8203Z" fill="black"/>
<path d="M26.3983 17.8203H27.132V18.5352H26.3983V17.8203Z" fill="black"/>
<path d="M30.8005 17.8203H31.5342V18.5352H30.8005V17.8203Z" fill="black"/>
<path d="M33.0015 17.8203H33.7352V18.5352H33.0015V17.8203Z" fill="black"/>
<path d="M37.8929 17.8203H38.6266V18.5352H37.8929V17.8203Z" fill="black"/>
<path d="M19.9173 17.8203H20.651V18.5352H19.9173V17.8203Z" fill="black"/>
<path d="M14.6591 17.8203H15.3928V18.5352H14.6591V17.8203Z" fill="black"/>
<path d="M48.4092 17.8203H49.1429V18.5352H48.4092V17.8203Z" fill="black"/>
<path d="M41.5613 17.8203H42.295V18.5352H41.5613V17.8203Z" fill="black"/>
<path d="M41.5613 19.9649H42.295V20.6798H41.5613V19.9649Z" fill="black"/>
<path d="M27.4988 17.8203H28.2325V18.5352H27.4988V17.8203Z" fill="black"/>
<path d="M21.0178 17.8203H21.7515V18.5352H21.0178V17.8203Z" fill="black"/>
<path d="M15.7597 17.8203H16.4934V18.5352H15.7597V17.8203Z" fill="black"/>
<path d="M49.5097 17.8203H50.2434V18.5352H49.5097V17.8203Z" fill="black"/>
<path d="M42.6619 17.8203H43.3956V18.5352H42.6619V17.8203Z" fill="black"/>
<path d="M42.6619 19.9649H43.3956V20.6798H42.6619V19.9649Z" fill="black"/>
<path d="M28.5994 17.8203H29.3331V18.5352H28.5994V17.8203Z" fill="black"/>
<path d="M22.1184 17.8203H22.8521V18.5352H22.1184V17.8203Z" fill="black"/>
<path d="M16.7379 17.8203H17.4716V18.5352H16.7379V17.8203Z" fill="black"/>
<path d="M17.7162 17.8203H18.4499V18.5352H17.7162V17.8203Z" fill="black"/>
<path d="M50.6103 17.8203H51.344V18.5352H50.6103V17.8203Z" fill="black"/>
<path d="M43.7624 17.8203H44.4961V18.5352H43.7624V17.8203Z" fill="black"/>
<path d="M44.863 17.8203L45.5967 17.8203V18.5352L44.863 18.5352V17.8203Z" fill="black"/>
<path d="M43.7624 19.9649L44.4961 19.9649V20.6798L43.7624 20.6798V19.9649Z" fill="black"/>
<path d="M44.863 19.9649H45.5967V20.6798H44.863V19.9649Z" fill="black"/>
<path d="M29.6999 17.8203H30.4336V18.5352H29.6999V17.8203Z" fill="black"/>
<path d="M23.2189 17.8203H23.9526V18.5352H23.2189V17.8203Z" fill="black"/>
<path d="M24.1972 18.8926H24.9309V19.6075H24.1972V18.8926Z" fill="black"/>
<path d="M24.1972 19.9649H24.9309V20.6798H24.1972V19.9649Z" fill="black"/>
<path d="M13.5586 16.7481H14.2923V17.4629H13.5586V16.7481Z" fill="black"/>
<path d="M46.5749 16.7481H47.3086V17.4629H46.5749V16.7481Z" fill="black"/>
<path d="M40.4608 16.7481H41.1945V17.4629H40.4608V16.7481Z" fill="black"/>
<path d="M26.3983 16.7481H27.132V17.4629H26.3983V16.7481Z" fill="black"/>
<path d="M30.8005 16.7481H31.5342V17.4629H30.8005V16.7481Z" fill="black"/>
<path d="M33.0015 16.7481H33.7352V17.4629H33.0015V16.7481Z" fill="black"/>
<path d="M37.8929 16.7481H38.6266V17.4629H37.8929V16.7481Z" fill="black"/>
<path d="M19.9173 16.7481H20.651V17.4629H19.9173V16.7481Z" fill="black"/>
<path d="M13.5586 15.6758H14.2923V16.3906H13.5586V15.6758Z" fill="black"/>
<path d="M47.3086 15.6758H48.0423V16.3906H47.3086V15.6758Z" fill="black"/>
<path d="M40.4608 15.6758L41.1945 15.6758V16.3906H40.4608V15.6758Z" fill="black"/>
<path d="M33.0015 15.6758H33.7352V16.3906H33.0015V15.6758Z" fill="black"/>
<path d="M34.2244 16.1524H34.9581V16.8672H34.2244V16.1524Z" fill="black"/>
<path d="M35.4472 16.8672H36.1809V17.5821H35.4472V16.8672Z" fill="black"/>
<path d="M36.67 16.1524H37.4037V16.8672H36.67V16.1524Z" fill="black"/>
<path d="M37.8929 15.6758H38.6266V16.3906H37.8929V15.6758Z" fill="black"/>
<path d="M19.9173 15.6758H20.651V16.3906H19.9173V15.6758Z" fill="black"/>
<path d="M14.6591 15.6758H15.3928V16.3906H14.6591V15.6758Z" fill="black"/>
<path d="M48.4092 15.6758H49.1429V16.3906H48.4092V15.6758Z" fill="black"/>
<path d="M41.5613 15.6758H42.295V16.3906H41.5613V15.6758Z" fill="black"/>
<path d="M27.4988 15.6758H28.2325V16.3906H27.4988V15.6758Z" fill="black"/>
<path d="M21.0178 15.6758H21.7515V16.3906H21.0178V15.6758Z" fill="black"/>
<path d="M15.7597 15.6758H16.4934V16.3906H15.7597V15.6758Z" fill="black"/>
<path d="M49.5097 15.6758H50.2434V16.3906H49.5097V15.6758Z" fill="black"/>
<path d="M42.6619 15.6758H43.3956V16.3906H42.6619V15.6758Z" fill="black"/>
<path d="M28.5994 15.6758H29.3331V16.3906H28.5994V15.6758Z" fill="black"/>
<path d="M22.1184 15.6758H22.8521V16.3906H22.1184V15.6758Z" fill="black"/>
<path d="M16.7379 15.6758H17.4716V16.3906H16.7379V15.6758Z" fill="black"/>
<path d="M17.7162 15.6758H18.4499V16.3906H17.7162V15.6758Z" fill="black"/>
<path d="M50.6103 15.6758H51.344V16.3906H50.6103V15.6758Z" fill="black"/>
<path d="M43.7624 15.6758H44.4961V16.3906H43.7624V15.6758Z" fill="black"/>
<path d="M44.863 15.6758H45.5967V16.3906H44.863V15.6758Z" fill="black"/>
<path d="M29.6999 15.6758L30.4336 15.6758V16.3906H29.6999V15.6758Z" fill="black"/>
<path d="M23.2189 15.6758H23.9526V16.3906H23.2189V15.6758Z" fill="black"/>
<path d="M24.3195 16.7481H25.0532V17.4629H24.3195V16.7481Z" fill="black"/>
<path d="M51.344 18.8926H52.0777V19.6075H51.344V18.8926Z" fill="black"/>
<g filter="url(#filter0_d_3746_407)">
<path d="M26.6914 6.27861C26.6914 2.81103 29.5024 0 32.97 0H148.566C152.034 0 154.845 2.81103 154.845 6.27862V162.825C154.845 166.293 152.034 169.104 148.566 169.104H32.97C29.5024 169.104 26.6914 166.293 26.6914 162.825V6.27861Z" fill="url(#paint1_linear_3746_407)"/>
</g>
<path d="M43.5499 147.688C44.3419 147.688 44.9565 147.897 45.3936 148.314C45.8308 148.731 46.0735 149.205 46.1217 149.736H45.2957C45.202 149.333 45.0147 149.014 44.7336 148.778C44.4554 148.542 44.0637 148.425 43.5584 148.425C42.9424 148.425 42.4443 148.642 42.0639 149.076C41.6864 149.508 41.4976 150.17 41.4976 151.065C41.4976 151.797 41.6679 152.392 42.0085 152.849C42.352 153.303 42.863 153.53 43.5414 153.53C44.1659 153.53 44.6414 153.29 44.9678 152.81C45.141 152.558 45.2701 152.226 45.3553 151.814H46.1813C46.1075 152.473 45.8634 153.025 45.449 153.47C44.9522 154.007 44.2823 154.275 43.4392 154.275C42.7125 154.275 42.1022 154.055 41.6083 153.615C40.9582 153.033 40.6332 152.135 40.6332 150.92C40.6332 149.997 40.8773 149.241 41.3656 148.65C41.8936 148.009 42.6217 147.688 43.5499 147.688ZM48.9235 153.619C49.4316 153.619 49.7793 153.428 49.9667 153.045C50.1569 152.658 50.2519 152.23 50.2519 151.759C50.2519 151.333 50.1838 150.987 50.0476 150.72C49.8318 150.3 49.46 150.09 48.932 150.09C48.4636 150.09 48.123 150.268 47.9101 150.626C47.6972 150.984 47.5907 151.415 47.5907 151.92C47.5907 152.406 47.6972 152.81 47.9101 153.134C48.123 153.458 48.4608 153.619 48.9235 153.619ZM48.9533 149.421C49.5409 149.421 50.0376 149.617 50.4436 150.009C50.8495 150.4 51.0524 150.977 51.0524 151.737C51.0524 152.473 50.8736 153.08 50.5159 153.56C50.1583 154.039 49.6033 154.279 48.8511 154.279C48.2237 154.279 47.7256 154.068 47.3565 153.645C46.9875 153.219 46.803 152.649 46.803 151.933C46.803 151.167 46.9974 150.556 47.3863 150.102C47.7752 149.648 48.2975 149.421 48.9533 149.421ZM51.9892 147.858H52.7556V154.113H51.9892V147.858ZM55.7192 153.619C56.2273 153.619 56.575 153.428 56.7624 153.045C56.9526 152.658 57.0477 152.23 57.0477 151.759C57.0477 151.333 56.9795 150.987 56.8433 150.72C56.6275 150.3 56.2557 150.09 55.7277 150.09C55.2593 150.09 54.9187 150.268 54.7058 150.626C54.4929 150.984 54.3864 151.415 54.3864 151.92C54.3864 152.406 54.4929 152.81 54.7058 153.134C54.9187 153.458 55.2565 153.619 55.7192 153.619ZM55.749 149.421C56.3366 149.421 56.8333 149.617 57.2393 150.009C57.6452 150.4 57.8481 150.977 57.8481 151.737C57.8481 152.473 57.6693 153.08 57.3116 153.56C56.954 154.039 56.399 154.279 55.6468 154.279C55.0194 154.279 54.5213 154.068 54.1522 153.645C53.7832 153.219 53.5987 152.649 53.5987 151.933C53.5987 151.167 53.7932 150.556 54.182 150.102C54.5709 149.648 55.0932 149.421 55.749 149.421ZM58.7849 149.553H59.513V150.341C59.5726 150.187 59.7188 150.002 59.9516 149.783C60.1843 149.562 60.4526 149.451 60.7563 149.451C60.7705 149.451 60.7947 149.452 60.8287 149.455C60.8628 149.458 60.921 149.464 61.0033 149.472V150.281C60.9579 150.273 60.9153 150.267 60.8756 150.264C60.8387 150.261 60.7975 150.26 60.7521 150.26C60.366 150.26 60.0694 150.385 59.8622 150.635C59.6549 150.881 59.5513 151.167 59.5513 151.49V154.113H58.7849V149.553Z" fill="black"/>
<circle cx="90.7577" cy="84.5546" r="44.2795" stroke="black" stroke-width="1.74558"/>
<path d="M74 19.8321H74.7337V20.547H74V19.8321Z" fill="black"/>
<path d="M77.3017 19.8321H78.0354V20.547H77.3017V19.8321Z" fill="black"/>
<path d="M76.2011 19.8321H76.9348V20.547H76.2011V19.8321Z" fill="black"/>
<path d="M75.1006 19.8321H75.8343V20.547H75.1006V19.8321Z" fill="black"/>
<path d="M40.25 19.8321H40.9837V20.547H40.25V19.8321Z" fill="black"/>
<path d="M67.1522 19.8321H67.8859V20.547H67.1522V19.8321Z" fill="black"/>
<path d="M53.0897 19.8321H53.8234V20.547H53.0897V19.8321Z" fill="black"/>
<path d="M57.4919 19.8321H58.2256V20.547H57.4919V19.8321Z" fill="black"/>
<path d="M59.693 19.8321H60.4266V20.547H59.693V19.8321Z" fill="black"/>
<path d="M64.5843 19.8321H65.318V20.547H64.5843V19.8321Z" fill="black"/>
<path d="M46.6087 19.8321H47.3424V20.547H46.6087V19.8321Z" fill="black"/>
<path d="M40.25 18.7598H40.9837V19.4747H40.25V18.7598Z" fill="black"/>
<path d="M67.1522 18.7598H67.8859V19.4747H67.1522V18.7598Z" fill="black"/>
<path d="M53.0897 18.7598H53.8234V19.4747H53.0897V18.7598Z" fill="black"/>
<path d="M57.4919 18.7598H58.2256V19.4747H57.4919V18.7598Z" fill="black"/>
<path d="M59.693 18.7598H60.4266V19.4747H59.693V18.7598Z" fill="black"/>
<path d="M64.5843 18.7598H65.318V19.4747H64.5843V18.7598Z" fill="black"/>
<path d="M46.6087 18.7598H47.3424V19.4747H46.6087V18.7598Z" fill="black"/>
<path d="M40.25 17.6875H40.9837V18.4024H40.25V17.6875Z" fill="black"/>
<path d="M74 17.6875H74.7337V18.4024H74V17.6875Z" fill="black"/>
<path d="M67.1522 17.6875H67.8859V18.4024H67.1522V17.6875Z" fill="black"/>
<path d="M53.0897 17.6875H53.8234V18.4024H53.0897V17.6875Z" fill="black"/>
<path d="M57.4919 17.6875H58.2256V18.4024H57.4919V17.6875Z" fill="black"/>
<path d="M59.693 17.6875H60.4266V18.4024H59.693V17.6875Z" fill="black"/>
<path d="M64.5843 17.6875H65.318V18.4024H64.5843V17.6875Z" fill="black"/>
<path d="M46.6087 17.6875H47.3424V18.4024H46.6087V17.6875Z" fill="black"/>
<path d="M41.3505 17.6875H42.0842V18.4024H41.3505V17.6875Z" fill="black"/>
<path d="M75.1006 17.6875H75.8343V18.4024H75.1006V17.6875Z" fill="black"/>
<path d="M68.2527 17.6875H68.9864V18.4024H68.2527V17.6875Z" fill="black"/>
<path d="M68.2527 19.8321H68.9864V20.547H68.2527V19.8321Z" fill="black"/>
<path d="M54.1902 17.6875H54.9239V18.4024H54.1902V17.6875Z" fill="black"/>
<path d="M47.7092 17.6875H48.4429V18.4024H47.7092V17.6875Z" fill="black"/>
<path d="M42.4511 17.6875H43.1848V18.4024H42.4511V17.6875Z" fill="black"/>
<path d="M76.2011 17.6875H76.9348V18.4024H76.2011V17.6875Z" fill="black"/>
<path d="M69.3533 17.6875H70.087V18.4024H69.3533V17.6875Z" fill="black"/>
<path d="M69.3533 19.8321H70.087V20.547H69.3533V19.8321Z" fill="black"/>
<path d="M55.2908 17.6875H56.0245V18.4024H55.2908V17.6875Z" fill="black"/>
<path d="M48.8098 17.6875H49.5435V18.4024H48.8098V17.6875Z" fill="black"/>
<path d="M43.4294 17.6875H44.163V18.4024H43.4294V17.6875Z" fill="black"/>
<path d="M44.4076 17.6875H45.1413V18.4024H44.4076V17.6875Z" fill="black"/>
<path d="M77.3017 17.6875H78.0354V18.4024H77.3017V17.6875Z" fill="black"/>
<path d="M70.4538 17.6875H71.1875V18.4024H70.4538V17.6875Z" fill="black"/>
<path d="M71.5544 17.6875L72.2881 17.6875V18.4024L71.5544 18.4024V17.6875Z" fill="black"/>
<path d="M70.4538 19.8321L71.1875 19.8321V20.547L70.4538 20.547V19.8321Z" fill="black"/>
<path d="M71.5544 19.8321H72.2881V20.547H71.5544V19.8321Z" fill="black"/>
<path d="M56.3913 17.6875H57.125V18.4024H56.3913V17.6875Z" fill="black"/>
<path d="M49.9103 17.6875H50.644V18.4024H49.9103V17.6875Z" fill="black"/>
<path d="M50.8886 18.7598H51.6223V19.4747H50.8886V18.7598Z" fill="black"/>
<path d="M50.8886 19.8321H51.6223V20.547H50.8886V19.8321Z" fill="black"/>
<path d="M40.25 16.6153H40.9837V17.3301H40.25V16.6153Z" fill="black"/>
<path d="M73.2663 16.6153H74V17.3301H73.2663V16.6153Z" fill="black"/>
<path d="M67.1522 16.6153H67.8859V17.3301H67.1522V16.6153Z" fill="black"/>
<path d="M53.0897 16.6153H53.8234V17.3301H53.0897V16.6153Z" fill="black"/>
<path d="M57.4919 16.6153H58.2256V17.3301H57.4919V16.6153Z" fill="black"/>
<path d="M59.693 16.6153H60.4266V17.3301H59.693V16.6153Z" fill="black"/>
<path d="M64.5843 16.6153H65.318V17.3301H64.5843V16.6153Z" fill="black"/>
<path d="M46.6087 16.6153H47.3424V17.3301H46.6087V16.6153Z" fill="black"/>
<path d="M40.25 15.543H40.9837V16.2578H40.25V15.543Z" fill="black"/>
<path d="M74 15.543H74.7337V16.2578H74V15.543Z" fill="black"/>
<path d="M67.1522 15.543L67.8859 15.543V16.2578H67.1522V15.543Z" fill="black"/>
<path d="M59.693 15.543H60.4266V16.2578H59.693V15.543Z" fill="black"/>
<path d="M60.9158 16.0195H61.6495V16.7344H60.9158V16.0195Z" fill="black"/>
<path d="M62.1386 16.7344H62.8723V17.4492H62.1386V16.7344Z" fill="black"/>
<path d="M63.3614 16.0195H64.0951V16.7344H63.3614V16.0195Z" fill="black"/>
<path d="M64.5843 15.543H65.318V16.2578H64.5843V15.543Z" fill="black"/>
<path d="M46.6087 15.543H47.3424V16.2578H46.6087V15.543Z" fill="black"/>
<path d="M41.3505 15.543H42.0842V16.2578H41.3505V15.543Z" fill="black"/>
<path d="M75.1006 15.543H75.8343V16.2578H75.1006V15.543Z" fill="black"/>
<path d="M68.2527 15.543H68.9864V16.2578H68.2527V15.543Z" fill="black"/>
<path d="M54.1902 15.543H54.9239V16.2578H54.1902V15.543Z" fill="black"/>
<path d="M47.7092 15.543H48.4429V16.2578H47.7092V15.543Z" fill="black"/>
<path d="M42.4511 15.543H43.1848V16.2578H42.4511V15.543Z" fill="black"/>
<path d="M76.2011 15.543H76.9348V16.2578H76.2011V15.543Z" fill="black"/>
<path d="M69.3533 15.543H70.087V16.2578H69.3533V15.543Z" fill="black"/>
<path d="M55.2908 15.543H56.0245V16.2578H55.2908V15.543Z" fill="black"/>
<path d="M48.8098 15.543H49.5435V16.2578H48.8098V15.543Z" fill="black"/>
<path d="M43.4294 15.543H44.163V16.2578H43.4294V15.543Z" fill="black"/>
<path d="M44.4076 15.543H45.1413V16.2578H44.4076V15.543Z" fill="black"/>
<path d="M77.3017 15.543H78.0354V16.2578H77.3017V15.543Z" fill="black"/>
<path d="M70.4538 15.543H71.1875V16.2578H70.4538V15.543Z" fill="black"/>
<path d="M71.5544 15.543H72.2881V16.2578H71.5544V15.543Z" fill="black"/>
<path d="M56.3913 15.543L57.125 15.543V16.2578H56.3913V15.543Z" fill="black"/>
<path d="M49.9103 15.543H50.644V16.2578H49.9103V15.543Z" fill="black"/>
<path d="M51.0109 16.6153H51.7446V17.3301H51.0109V16.6153Z" fill="black"/>
<path d="M78.0354 18.7598H78.7691V19.4747H78.0354V18.7598Z" fill="black"/>
<defs>
<filter id="filter0_d_3746_407" x="22.6914" y="0" width="136.152" height="177.105" filterUnits="userSpaceOnUse" color-interpolation-filters="sRGB">
<feFlood flood-opacity="0" result="BackgroundImageFix"/>
<feColorMatrix in="SourceAlpha" type="matrix" values="0 0 0 0 0 0 0 0 0 0 0 0 0 0 0 0 0 0 127 0" result="hardAlpha"/>
<feOffset dy="4"/>
<feGaussianBlur stdDeviation="2"/>
<feComposite in2="hardAlpha" operator="out"/>
<feColorMatrix type="matrix" values="0 0 0 0 0 0 0 0 0 0 0 0 0 0 0 0 0 0 0.25 0"/>
<feBlend mode="normal" in2="BackgroundImageFix" result="effect1_dropShadow_3746_407"/>
<feBlend mode="normal" in="SourceGraphic" in2="effect1_dropShadow_3746_407" result="shape"/>
</filter>
<linearGradient id="paint0_linear_3746_407" x1="110.496" y1="0.0800829" x2="1.11832e-05" y2="197.463" gradientUnits="userSpaceOnUse">
<stop stop-color="#B9B9B9"/>
<stop offset="1" stop-color="#DADADA"/>
</linearGradient>
<linearGradient id="paint1_linear_3746_407" x1="137.187" y1="-0.0527296" x2="26.6914" y2="197.331" gradientUnits="userSpaceOnUse">
<stop stop-color="#B9B9B9"/>
<stop offset="1" stop-color="#DADADA"/>
</linearGradient>
</defs>
</svg>
