<svg width="119" height="153" viewBox="0 0 119 153" fill="none" xmlns="http://www.w3.org/2000/svg">
<g filter="url(#filter0_d_3480_5620)">
<rect x="7.00391" y="4.07422" width="107.462" height="141.8" rx="5.26486" fill="url(#paint0_linear_3480_5620)"/>
</g>
<g filter="url(#filter1_d_3480_5620)">
<rect x="7.00391" y="4.07422" width="107.462" height="141.8" rx="5.26486" fill="url(#paint1_linear_3480_5620)"/>
</g>
<circle cx="60.7212" cy="79.4595" r="37.13" stroke="black" stroke-width="1.46373"/>
<g opacity="0.5">
<path d="M21.8098 14.5181H19.6985V15.4879H21.547V16.2203H19.6985V17.9883H18.8242V13.7772H21.8098V14.5181Z" fill="black"/>
<path d="M24.7749 16.3347H23.8664V17.9883H23.0064V13.7715H25.072C25.3673 13.7772 25.5939 13.8134 25.752 13.8802C25.912 13.9469 26.0472 14.0451 26.1577 14.1748C26.2491 14.2816 26.3215 14.3999 26.3748 14.5296C26.4282 14.6593 26.4548 14.8071 26.4548 14.973C26.4548 15.1732 26.4044 15.3706 26.3034 15.5652C26.2025 15.7578 26.0358 15.8942 25.8034 15.9743C25.9977 16.0525 26.1349 16.164 26.2149 16.309C26.2968 16.452 26.3377 16.6713 26.3377 16.967V17.2502L26.3326 17.6421V17.8824V17.9883H25.4577V17.768C25.4577 17.768 25.4596 17.5229 25.4577 17.3989L25.452 17.007C25.4482 16.7381 25.3987 16.5588 25.3035 16.4692C25.2101 16.3795 25.0339 16.3347 24.7749 16.3347ZM25.3092 15.568C25.4844 15.4879 25.572 15.3296 25.572 15.0931C25.572 14.8376 25.4873 14.6659 25.3177 14.5782C25.2225 14.5286 25.0796 14.5038 24.8892 14.5038H23.8664V15.6367H24.8635C25.0616 15.6367 25.2101 15.6138 25.3092 15.568Z" fill="black"/>
<path d="M30.2656 17.1214H28.7142L28.4228 17.9883H27.5028L29.0056 13.7715H29.9999L31.4913 17.9883H30.537L30.2656 17.1214ZM30.0199 16.3948L29.4942 14.7355L28.9513 16.3948H30.0199Z" fill="black"/>
<path d="M33.4192 17.9883H32.5992V13.7715H33.8792L34.6449 17.0871L35.4049 13.7715H36.6705V17.9883H35.8506V15.136C35.8506 15.054 35.8515 14.9396 35.8534 14.7928C35.8553 14.644 35.8563 14.5296 35.8563 14.4495L35.0592 17.9883H34.2049L33.4135 14.4495C33.4135 14.5296 33.4144 14.644 33.4163 14.7928C33.4183 14.9396 33.4192 15.054 33.4192 15.136V17.9883Z" fill="black"/>
<path d="M41.0041 16.1459H38.9585V17.2301H41.2898V17.9883H38.0985V13.7715H41.187V14.5181H38.9585V15.4135H41.0041V16.1459Z" fill="black"/>
<path d="M44.0892 17.3789C44.2968 17.3789 44.4653 17.356 44.5949 17.3103C44.8406 17.2225 44.9634 17.0595 44.9634 16.8211C44.9634 16.6818 44.9025 16.5741 44.7806 16.4978C44.6587 16.4234 44.4673 16.3576 44.2063 16.3004L43.7606 16.2003C43.3225 16.1011 43.0197 15.9933 42.8521 15.877C42.5683 15.6825 42.4264 15.3783 42.4264 14.9644C42.4264 14.5868 42.5635 14.273 42.8378 14.0232C43.1121 13.7734 43.5149 13.6484 44.0463 13.6484C44.4901 13.6484 44.8682 13.7667 45.1806 14.0032C45.4948 14.2378 45.6596 14.5791 45.6748 15.0273H44.8291C44.8139 14.7737 44.7034 14.5935 44.4977 14.4866C44.3606 14.4161 44.1901 14.3808 43.9863 14.3808C43.7597 14.3808 43.5787 14.4266 43.4435 14.5181C43.3082 14.6097 43.2406 14.7374 43.2406 14.9015C43.2406 15.0521 43.3073 15.1647 43.4406 15.239C43.5263 15.2886 43.7092 15.3468 43.9892 15.4135L44.7149 15.5881C45.033 15.6643 45.2729 15.7664 45.4348 15.8942C45.6863 16.0925 45.812 16.3795 45.812 16.7553C45.812 17.1405 45.6644 17.4609 45.3691 17.7165C45.0758 17.9701 44.6606 18.097 44.1235 18.097C43.5749 18.097 43.1435 17.972 42.8292 17.7222C42.5149 17.4705 42.3578 17.1253 42.3578 16.6866H43.1978C43.2244 16.8792 43.2768 17.0232 43.3549 17.1186C43.4978 17.2921 43.7425 17.3789 44.0892 17.3789Z" fill="black"/>
</g>
<path opacity="0.72" d="M19.4381 131.656H20.346L21.6904 135.613L23.0253 131.656H23.9237V136.336H23.3216V133.574C23.3216 133.478 23.3237 133.32 23.3279 133.099C23.3322 132.878 23.3343 132.641 23.3343 132.389L21.9995 136.336H21.3719L20.0275 132.389V132.532C20.0275 132.647 20.0296 132.822 20.0338 133.058C20.0402 133.291 20.0434 133.463 20.0434 133.574V136.336H19.4381V131.656ZM26.1665 135.966C26.5467 135.966 26.8068 135.823 26.947 135.536C27.0893 135.247 27.1605 134.927 27.1605 134.574C27.1605 134.256 27.1095 133.997 27.0075 133.797C26.8461 133.483 26.5679 133.325 26.1729 133.325C25.8224 133.325 25.5676 133.459 25.4083 133.727C25.249 133.994 25.1693 134.317 25.1693 134.695C25.1693 135.058 25.249 135.361 25.4083 135.603C25.5676 135.845 25.8203 135.966 26.1665 135.966ZM26.1888 132.825C26.6284 132.825 27.0001 132.972 27.3038 133.265C27.6075 133.558 27.7594 133.989 27.7594 134.558C27.7594 135.108 27.6256 135.563 27.358 135.922C27.0904 136.281 26.6752 136.46 26.1123 136.46C25.643 136.46 25.2702 136.302 24.9941 135.985C24.718 135.667 24.58 135.24 24.58 134.705C24.58 134.131 24.7254 133.675 25.0164 133.335C25.3074 132.995 25.6982 132.825 26.1888 132.825ZM28.4443 132.924H28.9891V133.408C29.1505 133.209 29.3215 133.065 29.502 132.978C29.6825 132.891 29.8833 132.847 30.1041 132.847C30.5884 132.847 30.9155 133.016 31.0854 133.354C31.1788 133.539 31.2255 133.803 31.2255 134.147V136.336H30.6425V134.186C30.6425 133.977 30.6117 133.81 30.5501 133.682C30.4482 133.47 30.2634 133.364 29.9958 133.364C29.8599 133.364 29.7484 133.377 29.6613 133.405C29.5041 133.452 29.3661 133.545 29.2472 133.685C29.1516 133.798 29.0889 133.915 29.0592 134.036C29.0316 134.155 29.0178 134.326 29.0178 134.549V136.336H28.4443V132.924ZM33.4301 135.966C33.8103 135.966 34.0705 135.823 34.2106 135.536C34.3529 135.247 34.4241 134.927 34.4241 134.574C34.4241 134.256 34.3731 133.997 34.2712 133.797C34.1097 133.483 33.8315 133.325 33.4365 133.325C33.086 133.325 32.8312 133.459 32.6719 133.727C32.5126 133.994 32.433 134.317 32.433 134.695C32.433 135.058 32.5126 135.361 32.6719 135.603C32.8312 135.845 33.0839 135.966 33.4301 135.966ZM33.4524 132.825C33.8921 132.825 34.2637 132.972 34.5674 133.265C34.8712 133.558 35.023 133.989 35.023 134.558C35.023 135.108 34.8892 135.563 34.6216 135.922C34.354 136.281 33.9388 136.46 33.376 136.46C32.9066 136.46 32.5338 136.302 32.2577 135.985C31.9816 135.667 31.8436 135.24 31.8436 134.705C31.8436 134.131 31.9891 133.675 32.28 133.335C32.571 132.995 32.9618 132.825 33.4524 132.825ZM37.0237 132.825C37.4081 132.825 37.7203 132.919 37.9603 133.106C38.2024 133.292 38.3479 133.614 38.3968 134.071H37.8393C37.8053 133.861 37.7278 133.686 37.6067 133.548C37.4856 133.408 37.2913 133.338 37.0237 133.338C36.6584 133.338 36.3971 133.517 36.24 133.873C36.138 134.105 36.0871 134.39 36.0871 134.73C36.0871 135.072 36.1593 135.36 36.3037 135.594C36.4481 135.827 36.6754 135.944 36.9855 135.944C37.2233 135.944 37.4113 135.872 37.5493 135.727C37.6895 135.581 37.7862 135.381 37.8393 135.129H38.3968C38.3331 135.581 38.1738 135.912 37.9189 136.122C37.664 136.331 37.338 136.435 36.9409 136.435C36.4948 136.435 36.1391 136.272 35.8736 135.947C35.6081 135.62 35.4754 135.212 35.4754 134.724C35.4754 134.125 35.6209 133.659 35.9118 133.325C36.2028 132.992 36.5734 132.825 37.0237 132.825ZM38.9702 131.64H39.5437V133.386C39.6796 133.214 39.8017 133.093 39.91 133.023C40.0948 132.902 40.3252 132.841 40.6013 132.841C41.0962 132.841 41.4318 133.014 41.6081 133.36C41.7036 133.549 41.7514 133.812 41.7514 134.147V136.336H41.162V134.186C41.162 133.935 41.1302 133.751 41.0665 133.634C40.9624 133.447 40.767 133.354 40.4803 133.354C40.2424 133.354 40.0268 133.436 39.8336 133.599C39.6403 133.763 39.5437 134.072 39.5437 134.526V136.336H38.9702V131.64ZM42.6179 132.924H43.1627V133.513C43.2073 133.399 43.3167 133.26 43.4909 133.096C43.665 132.93 43.8657 132.847 44.093 132.847C44.1036 132.847 44.1216 132.849 44.1471 132.851C44.1726 132.853 44.2162 132.857 44.2778 132.863V133.469C44.2438 133.462 44.2119 133.458 44.1822 133.456C44.1546 133.454 44.1238 133.453 44.0898 133.453C43.8009 133.453 43.579 133.546 43.424 133.733C43.2689 133.918 43.1914 134.131 43.1914 134.373V136.336H42.6179V132.924ZM46.1287 135.966C46.5089 135.966 46.769 135.823 46.9092 135.536C47.0515 135.247 47.1227 134.927 47.1227 134.574C47.1227 134.256 47.0717 133.997 46.9697 133.797C46.8083 133.483 46.5301 133.325 46.1351 133.325C45.7846 133.325 45.5298 133.459 45.3705 133.727C45.2112 133.994 45.1315 134.317 45.1315 134.695C45.1315 135.058 45.2112 135.361 45.3705 135.603C45.5298 135.845 45.7825 135.966 46.1287 135.966ZM46.151 132.825C46.5906 132.825 46.9623 132.972 47.266 133.265C47.5697 133.558 47.7216 133.989 47.7216 134.558C47.7216 135.108 47.5878 135.563 47.3202 135.922C47.0526 136.281 46.6374 136.46 46.0745 136.46C45.6052 136.46 45.2324 136.302 44.9563 135.985C44.6802 135.667 44.5422 135.24 44.5422 134.705C44.5422 134.131 44.6877 133.675 44.9786 133.335C45.2696 132.995 45.6604 132.825 46.151 132.825ZM48.4065 132.924H48.9736V133.408C49.1095 133.24 49.2327 133.118 49.3432 133.042C49.5322 132.912 49.7467 132.847 49.9867 132.847C50.2586 132.847 50.4773 132.914 50.643 133.048C50.7364 133.125 50.8214 133.237 50.8978 133.386C51.0253 133.203 51.175 133.068 51.347 132.981C51.5191 132.892 51.7123 132.847 51.9269 132.847C52.3856 132.847 52.6978 133.013 52.8635 133.344C52.9527 133.523 52.9973 133.763 52.9973 134.064V136.336H52.4015V133.966C52.4015 133.738 52.3442 133.582 52.2295 133.497C52.1169 133.412 51.9789 133.37 51.8153 133.37C51.5902 133.37 51.3959 133.445 51.2323 133.596C51.0709 133.747 50.9902 133.999 50.9902 134.351V136.336H50.4072V134.109C50.4072 133.878 50.3796 133.709 50.3244 133.603C50.2373 133.443 50.0748 133.364 49.837 133.364C49.6203 133.364 49.4228 133.447 49.2444 133.615C49.0681 133.783 48.98 134.087 48.98 134.526V136.336H48.4065V132.924Z" fill="black"/>
<defs>
<filter id="filter0_d_3480_5620" x="0.598655" y="0.256948" width="117.683" height="152.023" filterUnits="userSpaceOnUse" color-interpolation-filters="sRGB">
<feFlood flood-opacity="0" result="BackgroundImageFix"/>
<feColorMatrix in="SourceAlpha" type="matrix" values="0 0 0 0 0 0 0 0 0 0 0 0 0 0 0 0 0 0 127 0" result="hardAlpha"/>
<feOffset dx="-1.29399" dy="1.29399"/>
<feGaussianBlur stdDeviation="2.55563"/>
<feComposite in2="hardAlpha" operator="out"/>
<feColorMatrix type="matrix" values="0 0 0 0 0 0 0 0 0 0 0 0 0 0 0 0 0 0 0.25 0"/>
<feBlend mode="normal" in2="BackgroundImageFix" result="effect1_dropShadow_3480_5620"/>
<feBlend mode="normal" in="SourceGraphic" in2="effect1_dropShadow_3480_5620" result="shape"/>
</filter>
<filter id="filter1_d_3480_5620" x="0.598655" y="0.256948" width="117.683" height="152.023" filterUnits="userSpaceOnUse" color-interpolation-filters="sRGB">
<feFlood flood-opacity="0" result="BackgroundImageFix"/>
<feColorMatrix in="SourceAlpha" type="matrix" values="0 0 0 0 0 0 0 0 0 0 0 0 0 0 0 0 0 0 127 0" result="hardAlpha"/>
<feOffset dx="-1.29399" dy="1.29399"/>
<feGaussianBlur stdDeviation="2.55563"/>
<feComposite in2="hardAlpha" operator="out"/>
<feColorMatrix type="matrix" values="0 0 0 0 0 0 0 0 0 0 0 0 0 0 0 0 0 0 0.25 0"/>
<feBlend mode="normal" in2="BackgroundImageFix" result="effect1_dropShadow_3480_5620"/>
<feBlend mode="normal" in="SourceGraphic" in2="effect1_dropShadow_3480_5620" result="shape"/>
</filter>
<linearGradient id="paint0_linear_3480_5620" x1="59.01" y1="6.08765" x2="110.168" y2="157.189" gradientUnits="userSpaceOnUse">
<stop stop-color="#B2B2B2"/>
<stop offset="1" stop-color="#E1E1E1"/>
</linearGradient>
<linearGradient id="paint1_linear_3480_5620" x1="59.01" y1="6.08765" x2="110.168" y2="157.189" gradientUnits="userSpaceOnUse">
<stop stop-color="#B2B2B2"/>
<stop offset="1" stop-color="#E1E1E1"/>
</linearGradient>
</defs>
</svg>
